<?xml version="1.0" encoding="UTF-8"?>
<svg version="1.1" viewBox="0 0 891 184" xmlns="http://www.w3.org/2000/svg">
<title>HLV-kgs-hor-logo-white-slogan-white</title>
<desc>Created with Sketch.</desc>
<g fill="none" fill-rule="evenodd">
<g transform="translate(-1)" fill="#fff" fill-rule="nonzero">
<g transform="translate(446.5 92) scale(-1 1) rotate(180) translate(-446.5 -92)">
<g transform="translate(.28975 75.568)">
<polygon points="67.5 106.25 67.5 64.021 24.205 64.021 0.73125 42.379 67.5 42.379 67.5 0.1525 90.975 0.1525 90.975 106.25"/>
</g>
<polygon points="24.495 139.59 1.0212 139.59 1.0212 181.82 24.495 181.82"/>
<g transform="translate(1.021 75.447)">
<polygon points="0 42.5 23.474 39.871 23.474 0.27375 0 0.27375"/>
</g>
<g transform="translate(314.32 75.586)">
<polygon points="0 106.25 23.474 106.25 23.474 21.474 23.474 0.13375 0 21.474"/>
</g>
<g transform="translate(336.68 74.56)">
<polygon points="3.75 22.5 54.318 22.5 54.318 1.16 1.1125 1.16"/>
</g>
<g transform="translate(638.17 75.586)">
<polygon points="26.25 106.25 0.17375 36.002 8.9162 0.13375 51.511 106.25"/>
</g>
<g transform="translate(583.27 75.534)">
<polygon points="53.75 32.5 26.359 106.3 0.48 106.3 43.081 0.18375 63.811 0.18375"/>
</g>
<g transform="translate(94)">
<g transform="translate(119.22 8.407)">
<path d="m0 33.75h12.511c2.6238 0 5.0338-0.42625 7.2175-1.2712 2.1975-0.84375 4.075-2.025 5.6562-3.5225 1.5875-1.505 2.8062-3.27 3.6612-5.3012 0.87125-2.0325 1.3075-4.2288 1.3075-6.5888v-0.1c0-2.3688-0.43625-4.5712-1.3075-6.6225-0.855-2.0412-2.0738-3.815-3.6612-5.3138-1.5812-1.4988-3.4588-2.6825-5.6562-3.545-2.1838-0.87375-4.5938-1.3025-7.2175-1.3025h-12.511v33.568zm12.464-28.24c1.7512 0 3.3538 0.2825 4.8 0.84125 1.4312 0.565 2.6538 1.3512 3.665 2.3588 1.015 1.0175 1.7912 2.2188 2.3488 3.615 0.555 1.3912 0.83875 2.9138 0.83875 4.5462v0.095c0 1.6388-0.28375 3.1625-0.83875 4.5762-0.5575 1.4125-1.3338 2.62-2.3488 3.6362-1.0112 1.0112-2.2338 1.805-3.665 2.3812-1.4462 0.57375-3.0488 0.86875-4.8 0.86875h-6.6112v-22.919h6.6112z"/>
</g>
<g transform="translate(154.18 8.0236)">
<path d="m13.75 0c-1.9225 0-3.7075 0.33125-5.3475 1.0225-1.6488 0.695-3.0762 1.625-4.2725 2.8088-1.1912 1.18-2.1312 2.5725-2.8062 4.1688-0.6725 1.6-1 3.2912-1 5.0888v0.08875c0 1.83 0.34375 3.5312 1.0225 5.13 0.69125 1.6012 1.6338 3 2.8312 4.1975 1.2025 1.2 2.63 2.15 4.2625 2.8525 1.6562 0.70875 3.4512 1.0575 5.4012 1.0575 1.9538 0 3.7488-0.34625 5.3888-1.0312 1.65-0.68875 3.0738-1.635 4.2738-2.8338 1.1962-1.2038 2.135-2.585 2.7988-4.17 0.67625-1.585 1.0175-3.2838 1.0175-5.1062v-0.09625c0-1.7938-0.34625-3.4775-1.0375-5.0812-0.68625-1.5975-1.63-2.995-2.8238-4.195-1.2025-1.1988-2.6338-2.1512-4.3-2.855-1.6662-0.7025-3.4588-1.0462-5.4088-1.0462m0.09125 5.0288c1.1738 0 2.2262 0.21 3.1612 0.64125 0.94625 0.435 1.7475 1.0138 2.4138 1.7512 0.66625 0.73375 1.1725 1.5888 1.5275 2.575 0.3425 0.97125 0.515 2.0038 0.515 3.0925v0.08875c0 1.1162-0.1925 2.1775-0.5625 3.1725-0.3825 0.98375-0.91625 1.845-1.605 2.5838-0.6825 0.735-1.4788 1.32-2.4238 1.7512-0.93125 0.42375-1.9788 0.645-3.1175 0.645-1.1488 0-2.1962-0.22125-3.1275-0.645-0.935-0.43125-1.7438-1.0062-2.4088-1.7288-0.66625-0.725-1.1738-1.5788-1.5262-2.5638-0.34375-0.9925-0.52875-2.025-0.52875-3.1188v-0.09625c0-1.115 0.195-2.1662 0.57-3.1388 0.38625-0.9775 0.9225-1.8375 1.6075-2.5938 0.67875-0.7475 1.5-1.34 2.4362-1.775 0.93625-0.43125 1.96-0.64125 3.0688-0.64125"/>
</g>
<g transform="translate(185.19 8.0651)">
<path d="m12.5 0c-1.5125 0-2.9638 0.28875-4.3738 0.8575-1.4038 0.58375-2.6538 1.4262-3.7425 2.5475-1.0825 1.125-1.9575 2.49-2.6362 4.1225-0.665 1.6275-0.99875 3.5-0.99875 5.6062v0.09875c0 2.11 0.3225 3.9825 0.97375 5.6088 0.655 1.6288 1.5312 3.0075 2.61 4.1262 1.085 1.115 2.3388 1.9675 3.7612 2.5425 1.4138 0.57125 2.8675 0.86375 4.38 0.86375 2.0612 0 3.785-0.4475 5.1612-1.3462 1.3625-0.895 2.5138-1.9325 3.4375-3.1162v13.618h5.855v-35.004h-5.855l0.05375 4.2212c-0.935-1.3112-2.085-2.4288-3.4712-3.3525-1.3962-0.93-3.12-1.3938-5.155-1.3938m1.365 5.0375c0.94375 0 1.8675 0.18875 2.7625 0.56625 0.8975 0.39375 1.6788 0.93875 2.34 1.6625 0.6725 0.715 1.2025 1.5688 1.6125 2.5625 0.3975 0.99375 0.59 2.0988 0.59 3.305v0.09875c0 1.2162-0.1925 2.3288-0.59 3.3325-0.41 1.01-0.94 1.8625-1.6125 2.565-0.66125 0.705-1.4425 1.2475-2.34 1.6338-0.895 0.38125-1.8188 0.56875-2.7625 0.56875-0.9875 0-1.9238-0.17625-2.8025-0.5425-0.8725-0.38-1.655-0.91125-2.3212-1.605-0.66375-0.71-1.1888-1.565-1.5688-2.57-0.38625-1.0062-0.5775-2.1362-0.5775-3.3825v-0.09875c0-1.2062 0.19125-2.3175 0.5775-3.3325 0.38-1.005 0.905-1.8588 1.5688-2.5625 0.66625-0.69625 1.4488-1.2412 2.3212-1.635 0.87875-0.3775 1.815-0.56625 2.8025-0.56625"/>
</g>
<path d="m222.41 43.304h6.2812v-5.5075h-6.2812v5.5075zm0.24625-9.395h5.8425v-25.319h-5.8425v25.319z"/>
<polygon points="235.74 15.164 242.12 15.164 242.12 8.59 235.74 8.59"/>
<polygon points="264.79 42.158 270.63 42.158 270.63 8.59 264.79 8.59"/>
<g transform="translate(276.35 .8215)">
<path d="m13.75 0c-4.2162 0-7.9988 1.0012-11.308 2.9962l2.15 4.3438c1.3375-0.82875 2.745-1.4925 4.2188-1.9712 1.4625-0.4775 3.07-0.7175 4.7938-0.7175 2.5988 0 4.57 0.66375 5.9412 1.9775 1.3825 1.3175 2.0688 3.2638 2.0688 5.8288v1.9812c-1.0538-1.37-2.285-2.4962-3.6938-3.3538-1.4025-0.86625-3.1562-1.2988-5.2238-1.2988-1.5038 0-2.9412 0.27125-4.3162 0.81375-1.3725 0.54625-2.6025 1.3175-3.6675 2.3325-1.0725 1-1.9225 2.2388-2.5625 3.71-0.64625 1.4712-0.96125 3.1375-0.96125 4.9862v0.095c0 1.8488 0.315 3.5225 0.96125 5.015 0.64 1.4812 1.49 2.7275 2.5625 3.7325 1.065 1.015 2.3012 1.7788 3.69 2.3275s2.82 0.81875 4.2938 0.81875c2.14 0 3.9075-0.425 5.2988-1.275 1.3925-0.8425 2.5812-1.86 3.57-3.0425v3.7875h5.8v-20.14c0-4.2188-1.0688-7.4012-3.215-9.5462-1.1425-1.1412-2.5938-2.0012-4.3375-2.5538-1.7362-0.56125-3.7625-0.8475-6.0638-0.8475m0.4825 14.679c0.9875 0 1.9438 0.1675 2.85 0.50375 0.91375 0.33125 1.7075 0.81 2.3738 1.4388 0.66875 0.62 1.2138 1.3525 1.6088 2.2038 0.39875 0.84625 0.5925 1.7762 0.5925 2.8038v0.095c0 1.0575-0.19375 2.0025-0.5925 2.8538-0.395 0.84625-0.94 1.5812-1.6088 2.2-0.66625 0.6275-1.46 1.11-2.3738 1.4425-0.90625 0.33125-1.8625 0.505-2.85 0.505-1.0238 0-1.9662-0.17375-2.83-0.505-0.865-0.3325-1.6275-0.8075-2.2812-1.4175-0.6475-0.6075-1.165-1.33-1.525-2.1775-0.37-0.84875-0.5575-1.7938-0.5575-2.8488v-0.1c0-1.055 0.19625-2.005 0.5725-2.8512 0.38875-0.85125 0.89875-1.5838 1.54-2.2038 0.6325-0.62875 1.3975-1.1075 2.27-1.4388 0.87875-0.33625 1.815-0.50375 2.8112-0.50375"/>
</g>
<g transform="translate(311.56 7.6588)">
<path d="m0 26.25h5.8488v-5.7025c0.8075 1.9138 1.9412 3.4512 3.4112 4.5988 1.4725 1.1512 3.325 1.6825 5.5575 1.5862v-6.1388h-0.3375c-1.2725 0-2.4412-0.20625-3.4975-0.6275-1.0538-0.4175-1.9738-1.035-2.7338-1.87-0.77125-0.83-1.3588-1.8688-1.7725-3.1338-0.41625-1.2662-0.6275-2.7338-0.6275-4.39v-9.6388h-5.8488v25.316z"/>
</g>
<g transform="translate(328.66 7.3401)">
<path d="m17.5 1.25v3.12c-0.87-1.0275-1.9675-1.89-3.3125-2.5838-1.345-0.715-2.9662-1.0612-4.8962-1.0612-1.2088 0-2.3662 0.17-3.4438 0.5075-1.085 0.33375-2.0425 0.82625-2.8562 1.48-0.81625 0.66375-1.465 1.4738-1.9688 2.4475-0.4925 0.97375-0.7375 2.1075-0.7375 3.375v0.09875c0 1.4088 0.245 2.6325 0.76875 3.6725 0.5075 1.0312 1.2075 1.8988 2.1325 2.5862 0.9025 0.6875 1.9938 1.2038 3.2625 1.5338 1.265 0.3375 2.6238 0.50125 4.0962 0.50125 1.5325 0 2.84-0.09125 3.9062-0.285 1.0662-0.19125 2.0962-0.445 3.1012-0.76875v0.48375c0 1.7575-0.545 3.1012-1.615 4.0275-1.0688 0.92375-2.6088 1.3938-4.6238 1.3938-1.4425 0-2.72-0.15125-3.8375-0.43125-1.1125-0.29625-2.2538-0.67625-3.4062-1.1588l-1.5825 4.65c1.4125 0.645 2.8488 1.155 4.3162 1.5412 1.4712 0.38 3.2412 0.57875 5.3275 0.57875 3.7662 0 6.5588-0.9425 8.38-2.8062 1.8288-1.8812 2.7312-4.5038 2.7312-7.89v-15.012h-5.7425zm0.1475 10.599c-0.73 0.28625-1.6125 0.52625-2.6225 0.72375-1.01 0.18375-2.0562 0.2825-3.185 0.2825-1.8212 0-3.2462-0.35125-4.275-1.0575-1.0188-0.695-1.5238-1.6575-1.5238-2.875v-0.09375c0-1.2175 0.4675-2.14 1.415-2.7788 0.94375-0.64625 2.095-0.9625 3.4775-0.9625 0.95125 0 1.8375 0.12625 2.655 0.38375 0.81125 0.26 1.525 0.61625 2.1325 1.0825 0.6125 0.46375 1.08 1.0175 1.42 1.6725 0.33125 0.6575 0.50625 1.3838 0.50625 2.185v1.4375z"/>
</g>
<g transform="translate(353.5 .77388)">
<path d="m3.75 0c-0.55875 0-1.0388 0.0225-1.4712 0.07375-0.43375 0.05-0.86625 0.105-1.3138 0.16375v4.66c0.57125-0.1 1.095-0.1425 1.6062-0.1425 0.8225 0 1.485 0.23125 1.9725 0.6875 0.49 0.46875 0.7325 1.2562 0.7325 2.3738v25.319h5.8525v-25.65c0-2.5875-0.6275-4.4862-1.89-5.6888-1.27-1.1938-3.0988-1.7962-5.4888-1.7962zm1.29 42.528h6.2825v-5.5075h-6.2825v5.5075z"/>
</g>
<polygon points="371.92 15.164 378.3 15.164 378.3 8.59 371.92 8.59"/>
<g transform="translate(401.05 8.407)">
<path d="m0 33.75h13.234c1.955 0 3.7238-0.26375 5.3038-0.795 1.5825-0.5225 2.915-1.2812 4.0288-2.275 1.105-0.985 1.94-2.1675 2.5338-3.5462 0.6-1.3725 0.88625-2.9075 0.88625-4.6038v-0.095c0-1.885-0.3475-3.5425-1.0575-4.9612-0.7025-1.4312-1.6675-2.6088-2.88-3.575-1.2188-0.95625-2.6475-1.6875-4.2688-2.18-1.6425-0.495-3.3912-0.74375-5.245-0.74375h-6.6875v-10.792h-5.8475l-5.5511e-15 33.568zm12.73-17.454c2.2438 0 4.0175 0.5575 5.3212 1.685 1.2975 1.1275 1.9462 2.5688 1.9462 4.3312v0.09875c0 1.9862-0.65625 3.4912-1.9712 4.4962-1.3175 1.0138-3.0825 1.5212-5.2962 1.5212h-6.8825v-12.132h6.8825z"/>
</g>
<g transform="translate(430.28 8.0236)">
<path d="m13.75 0c-1.9238 0-3.7112 0.33125-5.3512 1.0225-1.6488 0.695-3.0662 1.625-4.2638 2.8088-1.2 1.18-2.1362 2.5725-2.8038 4.1688-0.675 1.6-1.015 3.2912-1.015 5.0888v0.08875c0 1.83 0.34625 3.5312 1.0275 5.13 0.7 1.6012 1.6325 3 2.8338 4.1975 1.2025 1.2 2.62 2.15 4.2662 2.8525 1.6425 0.70875 3.4462 1.0575 5.3925 1.0575 1.9525 0 3.745-0.34625 5.4025-1.0312 1.6388-0.68875 3.0638-1.635 4.265-2.8338 1.195-1.2038 2.125-2.585 2.8025-4.17 0.66625-1.585 1.01-3.2838 1.01-5.1062v-0.09625c0-1.7938-0.3575-3.4775-1.0362-5.0812-0.6875-1.5975-1.6288-2.995-2.825-4.195-1.2025-1.1988-2.6362-2.1512-4.295-2.855-1.6538-0.7025-3.47-1.0462-5.41-1.0462m0.08625 5.0288c1.1725 0 2.2338 0.21 3.1762 0.64125 0.92875 0.435 1.735 1.0138 2.4012 1.7512 0.66875 0.73375 1.1712 1.5888 1.5212 2.575 0.3475 0.97125 0.52875 2.0038 0.52875 3.0925v0.08875c0 1.1162-0.18625 2.1775-0.57625 3.1725-0.3825 0.98375-0.91375 1.845-1.5912 2.5838-0.685 0.735-1.4962 1.32-2.435 1.7512-0.93625 0.42375-1.9712 0.645-3.1112 0.645-1.1512 0-2.1875-0.22125-3.1262-0.645-0.94-0.43125-1.74-1.0062-2.4062-1.7288-0.6675-0.725-1.175-1.5788-1.5262-2.5638-0.35625-0.9925-0.53125-2.025-0.53125-3.1188v-0.09625c0-1.115 0.20125-2.1662 0.58125-3.1388 0.38-0.9775 0.92-1.8375 1.59-2.5938 0.68625-0.7475 1.4862-1.34 2.4325-1.775 0.9425-0.43125 1.9625-0.64125 3.0725-0.64125"/>
</g>
<g transform="translate(463.25 7.3438)">
<polygon points="-3.9443e-31 36.25 5.8575 36.25 5.8575 15.349 16.359 26.565 23.411 26.565 13.33 16.258 23.739 1.2462 17.03 1.2462 9.4088 12.182 5.8575 8.49 5.8575 1.2462 -2.2204e-15 1.2462"/>
</g>
<path d="m491.05 43.304h6.2888v-5.5075h-6.2888v5.5075zm0.24125-9.395h5.8512v-25.319h-5.8512v25.319z"/>
<g transform="translate(502.3 8.0651)">
<path d="m12.5 0c-1.5012 0-2.955 0.28875-4.3588 0.8575-1.4062 0.58375-2.6538 1.4262-3.735 2.5475-1.0975 1.125-1.9675 2.49-2.6375 4.1225-0.67875 1.6275-1.0088 3.5-1.0088 5.6062v0.09875c0 2.11 0.32375 3.9825 0.98625 5.6088 0.645 1.6288 1.5088 3.0075 2.6012 4.1262 1.0788 1.115 2.3325 1.9675 3.75 2.5425 1.415 0.57125 2.8838 0.86375 4.3825 0.86375 2.0638 0 3.7812-0.4475 5.1675-1.3462 1.365-0.895 2.5088-1.9325 3.4412-3.1162v13.618h5.845v-35.004h-5.845l0.0425 4.2212c-0.92375-1.3112-2.0888-2.4288-3.47-3.3525-1.4-0.93-3.1175-1.3938-5.1612-1.3938m1.3712 5.0375c0.955 0 1.885 0.18875 2.7738 0.56625 0.88625 0.39375 1.6725 0.93875 2.345 1.6625 0.67125 0.715 1.1925 1.5688 1.5888 2.5625 0.4025 0.99375 0.60875 2.0988 0.60875 3.305v0.09875c0 1.2162-0.20625 2.3288-0.60875 3.3325-0.39625 1.01-0.9175 1.8625-1.5888 2.565-0.6725 0.705-1.4588 1.2475-2.345 1.6338-0.88875 0.38125-1.8188 0.56875-2.7738 0.56875-0.9875 0-1.9212-0.17625-2.8012-0.5425-0.875-0.38-1.6438-0.91125-2.3075-1.605-0.66875-0.71-1.1925-1.565-1.5775-2.57-0.38375-1.0062-0.58125-2.1362-0.58125-3.3825v-0.09875c0-1.2062 0.1975-2.3175 0.58125-3.3325 0.385-1.005 0.90875-1.8588 1.5775-2.5625 0.66375-0.69625 1.4325-1.2412 2.3075-1.635 0.88-0.3775 1.8138-0.56625 2.8012-0.56625"/>
</g>
<g transform="translate(534.33 7.3401)">
<path d="m17.5 1.25v3.12c-0.8625-1.0275-1.975-1.89-3.3075-2.5838-1.3375-0.715-2.9738-1.0612-4.8925-1.0612-1.215 0-2.36 0.17-3.45 0.5075-1.0838 0.33375-2.0375 0.82625-2.855 1.48-0.8025 0.66375-1.4612 1.4738-1.9675 2.4475-0.495 0.97375-0.7375 2.1075-0.7375 3.375v0.09875c0 1.4088 0.25 2.6325 0.75375 3.6725 0.52 1.0312 1.2275 1.8988 2.1462 2.5862 0.905 0.6875 1.9925 1.2038 3.2625 1.5338 1.2575 0.3375 2.6338 0.50125 4.0988 0.50125 1.5262 0 2.835-0.09125 3.91-0.285 1.0638-0.19125 2.095-0.445 3.0888-0.76875v0.48375c0 1.7575-0.5425 3.1012-1.6125 4.0275-1.0662 0.92375-2.605 1.3938-4.6238 1.3938-1.4362 0-2.7175-0.15125-3.8412-0.43125-1.1112-0.29625-2.2512-0.67625-3.3962-1.1588l-1.5912 4.65c1.4125 0.645 2.8538 1.155 4.3225 1.5412 1.465 0.38 3.245 0.57875 5.3212 0.57875 3.7788 0 6.5688-0.9425 8.3875-2.8062 1.8288-1.8812 2.7325-4.5038 2.7325-7.89v-15.012h-5.7488zm0.1425 10.599c-0.73875 0.28625-1.6025 0.52625-2.6175 0.72375-1 0.18375-2.0612 0.2825-3.1788 0.2825-1.8275 0-3.25-0.35125-4.2712-1.0575-1.0275-0.695-1.5388-1.6575-1.5388-2.875v-0.09375c0-1.2175 0.4675-2.14 1.4225-2.7788 0.94625-0.64625 2.0925-0.9625 3.4725-0.9625 0.96625 0 1.8525 0.12625 2.6588 0.38375 0.815 0.26 1.53 0.61625 2.1362 1.0825 0.61125 0.46375 1.0712 1.0175 1.4162 1.6725 0.3325 0.6575 0.5 1.3838 0.5 2.185v1.4375z"/>
</g>
<g transform="translate(560.5 .77388)">
<path d="m3.75 0c-0.54375 0-1.0262 0.0225-1.4612 0.07375-0.43125 0.05-0.8625 0.105-1.3138 0.16375v4.66c0.565-0.1 1.1038-0.1425 1.6112-0.1425 0.82 0 1.4812 0.23125 1.97 0.6875 0.48875 0.46875 0.73125 1.2562 0.73125 2.3738v25.319h5.8462v-25.65c0-2.5875-0.62375-4.4862-1.8888-5.6888-1.2638-1.1938-3.0862-1.7962-5.495-1.7962zm1.3012 42.528h6.285v-5.5075h-6.285v5.5075z"/>
</g>
<polygon points="578.94 15.164 585.32 15.164 585.32 8.59 578.94 8.59"/>
<polygon points="202.27 38.436 216.12 38.436 216.12 34.998 202.27 34.998"/>
<g transform="translate(.547 72.71)">
<path d="m158.75 111.25c-21.015 0-38.33-10.142-48.131-25.35 3.5562-8.76 5.2162-18.411 4.55-28.455l-0.02-0.3575c-0.335-5.115-1.26-10.041-2.6812-14.732 1.1038 4.39 1.6875 8.985 1.6875 13.712v0.30375c0 9.3312-2.2612 18.099-6.3162 25.785-9.1262 17.31-27.438 29.094-50.238 29.094-32.928 0-56.859-24.85-56.859-55.182v-0.3075c0-30.334 23.626-54.878 56.549-54.878 20.962 0 38.244 10.089 48.06 25.235-2.4238 6.1238-3.9575 12.728-4.415 19.679l-0.0225 0.35625c-0.49 7.4325 0.30375 14.646 2.1738 21.451-0.78125-3.725-1.195-7.5825-1.195-11.536v-0.3075c0-9.1262 2.1412-17.726 6.0325-25.294 0 0.00375 0.0025 0.00625 0.0025 0.0075 9.0338-17.585 27.495-29.591 50.519-29.591 32.925 0 56.858 24.848 56.858 55.185v0.30375c0 30.334-23.628 54.879-56.554 54.879zm-69.135-55.49c0-18.292-13.112-33.229-32.014-33.229-18.904 0-32.318 15.244-32.318 33.536v0.30375c0 18.292 13.11 33.23 32.008 33.23 18.906 0 32.324-15.24 32.324-33.534v-0.3075zm101.15 0c0-18.292-13.111-33.229-32.011-33.229-18.906 0-32.321 15.244-32.321 33.536v0.30375c0 18.292 13.114 33.23 32.018 33.23 18.901 0 32.315-15.24 32.315-33.534v-0.3075z"/>
</g>
<g transform="translate(286.84 72.71)">
<path d="m158.75 111.25c-21.012 0-38.329-10.142-48.13-25.35 3.5562-8.76 5.2162-18.411 4.5512-28.455l-0.02-0.3575c-0.33625-5.115-1.26-10.041-2.6825-14.732 1.1038 4.39 1.6875 8.985 1.6875 13.712v0.30375c0 9.3312-2.2612 18.099-6.3175 25.785-9.1238 17.31-27.436 29.094-50.238 29.094-32.926 0-56.858-24.85-56.858-55.182v-0.3075c0-30.334 23.626-54.878 56.548-54.878 20.965 0 38.245 10.089 48.06 25.235-2.4225 6.1238-3.9562 12.728-4.415 19.679l-0.02375 0.35625c-0.4875 7.4325 0.30625 14.646 2.1762 21.451-0.78125-3.725-1.1962-7.5825-1.1962-11.536v-0.3075c0-9.1262 2.1425-17.726 6.0338-25.294 0 0.00375 0.0025 0.00625 0.00375 0.0075 9.0325-17.585 27.494-29.591 50.518-29.591 32.924 0 56.858 24.848 56.858 55.185v0.30375c0 30.334-23.626 54.879-56.555 54.879zm-69.135-55.49c0-18.292-13.112-33.229-32.014-33.229-18.904 0-32.318 15.244-32.318 33.536v0.30375c0 18.292 13.112 33.23 32.008 33.23 18.906 0 32.324-15.24 32.324-33.534v-0.3075zm101.15 0c0-18.292-13.114-33.229-32.014-33.229-18.902 0-32.32 15.244-32.32 33.536v0.30375c0 18.292 13.116 33.23 32.018 33.23s32.316-15.24 32.316-33.534v-0.3075z"/>
</g>
<g transform="translate(582.23 72.71)">
<path d="m158.75 111.25c-21.015 0-38.328-10.142-48.129-25.35 3.5562-8.76 5.2138-18.411 4.55-28.455l-0.0225-0.3575c-0.335-5.115-1.2575-10.041-2.6788-14.732 1.1038 4.39 1.685 8.985 1.685 13.712v0.30375c0 9.3312-2.2588 18.099-6.315 25.785-9.125 17.31-27.436 29.094-50.239 29.094-32.928 0-56.858-24.85-56.858-55.182v-0.3075c0-30.334 23.628-54.878 56.548-54.878 20.964 0 38.244 10.089 48.06 25.235-2.4212 6.1238-3.955 12.728-4.415 19.679l-0.0225 0.35625c-0.48875 7.4325 0.30625 14.646 2.1762 21.451-0.7825-3.725-1.195-7.5825-1.195-11.536v-0.3075c0-9.1262 2.1412-17.726 6.0325-25.294 0 0.00375 0.0025 0.00625 0.00375 0.0075 9.0325-17.585 27.494-29.591 50.518-29.591 32.925 0 56.858 24.848 56.858 55.185v0.30375c0 30.334-23.628 54.879-56.556 54.879zm-69.134-55.49c0-18.292-13.114-33.229-32.015-33.229-18.902 0-32.318 15.244-32.318 33.536v0.30375c0 18.292 13.112 33.23 32.008 33.23 18.908 0 32.325-15.24 32.325-33.534v-0.3075zm101.15 0c0-18.292-13.112-33.229-32.014-33.229-18.904 0-32.321 15.244-32.321 33.536v0.30375c0 18.292 13.114 33.23 32.02 33.23 18.9 0 32.315-15.24 32.315-33.534v-0.3075z"/>
</g>
</g>
</g>
</g>
</g>
</svg>
