<?xml version="1.0" encoding="UTF-8"?>
<svg width="891px" height="111px" viewBox="0 0 891 111" version="1.1" xmlns="http://www.w3.org/2000/svg" xmlns:xlink="http://www.w3.org/1999/xlink">
    <!-- Generator: Sketch 43.2 (39069) - http://www.bohemiancoding.com/sketch -->
    <title>Untitled</title>
    <desc>Created with Sketch.</desc>
    <defs></defs>
    <g id="Page-1" stroke="none" stroke-width="1" fill="none" fill-rule="evenodd">
        <g id="HLV-kgs-hor-logo-white-slogan-white-1" transform="translate(-1.000000, 0.000000)" fill-rule="nonzero" fill="#FFFFFF">
            <g id="g10" transform="translate(446.500000, 56.000000) scale(-1, 1) rotate(-180.000000) translate(-446.500000, -56.000000) translate(0.000000, -0.000000)">
                <g id="g12" transform="translate(0.289750, 3.568250)">
                    <polygon id="path14" points="67.5 106.25 67.5 64.02125 24.205 64.02125 0.73125 42.37875 67.5 42.37875 67.5 0.1525 90.975 0.1525 90.975 106.25"></polygon>
                </g>
                <polygon id="path16" points="24.495 67.5875 1.02125 67.5875 1.02125 109.81625 24.495 109.81625 24.495 67.5875"></polygon>
                <g id="g18" transform="translate(1.021000, 3.446750)">
                    <polygon id="path20" points="0 42.5 23.47375 39.87125 23.47375 0.27375 0 0.27375"></polygon>
                </g>
                <g id="g22" transform="translate(314.315625, 3.585875)">
                    <polygon id="path24" points="0 106.25 23.47375 106.25 23.47375 21.47375 23.47375 0.13375 0 21.47375"></polygon>
                </g>
                <g id="g26" transform="translate(336.677125, 2.559875)">
                    <polygon id="path28" points="3.75 22.5 54.3175 22.5 54.3175 1.16 1.1125 1.16"></polygon>
                </g>
                <g id="g30" transform="translate(638.171875, 3.585875)">
                    <polygon id="path32" points="26.25 106.25 0.17375 36.0025 8.91625 0.13375 51.51125 106.25"></polygon>
                </g>
                <g id="g34" transform="translate(583.274375, 3.534000)">
                    <polygon id="path36" points="53.75 32.5 26.35875 106.3025 0.48 106.3025 43.08125 0.18375 63.81125 0.18375"></polygon>
                </g>
                <g id="g38" transform="translate(94.000000, -0.000000)">
                    <g id="g40-Clipped" transform="translate(0.000000, -0.000000)">
                        <g id="g112" transform="translate(0.547000, 0.710000)">
                            <path d="M158.75,111.25 C137.735,111.25 120.42,101.1075 110.61875,85.9 C114.175,77.14 115.835,67.48875 115.16875,57.445 L115.14875,57.0875 C114.81375,51.9725 113.88875,47.04625 112.4675,42.355 C113.57125,46.745 114.155,51.34 114.155,56.0675 L114.155,56.37125 C114.155,65.7025 111.89375,74.47 107.83875,82.15625 C98.7125,99.46625 80.40125,111.25 57.60125,111.25 C24.67375,111.25 0.7425,86.4 0.7425,56.0675 L0.7425,55.76 C0.7425,25.42625 24.36875,0.8825 57.29125,0.8825 C78.25375,0.8825 95.535,10.97125 105.35125,26.1175 C102.9275,32.24125 101.39375,38.845 100.93625,45.79625 L100.91375,46.1525 C100.42375,53.585 101.2175,60.79875 103.0875,67.60375 C102.30625,63.87875 101.8925,60.02125 101.8925,56.0675 L101.8925,55.76 C101.8925,46.63375 104.03375,38.03375 107.925,30.46625 C107.925,30.47 107.9275,30.4725 107.9275,30.47375 C116.96125,12.88875 135.4225,0.8825 158.44625,0.8825 C191.37125,0.8825 215.30375,25.73 215.30375,56.0675 L215.30375,56.37125 C215.30375,86.705 191.67625,111.25 158.75,111.25 L158.75,111.25 Z M89.615,55.76 C89.615,37.4675 76.5025,22.53125 57.60125,22.53125 C38.6975,22.53125 25.28375,37.775 25.28375,56.0675 L25.28375,56.37125 C25.28375,74.66375 38.39375,89.60125 57.29125,89.60125 C76.1975,89.60125 89.615,74.36125 89.615,56.0675 L89.615,55.76 L89.615,55.76 Z M190.76125,55.76 C190.76125,37.4675 177.65,22.53125 158.75,22.53125 C139.84375,22.53125 126.42875,37.775 126.42875,56.0675 L126.42875,56.37125 C126.42875,74.66375 139.5425,89.60125 158.44625,89.60125 C177.3475,89.60125 190.76125,74.36125 190.76125,56.0675 L190.76125,55.76 L190.76125,55.76 Z" id="path114"></path>
                        </g>
                        <g id="g116" transform="translate(286.839125, 0.710000)">
                            <path d="M158.75,111.25 C137.7375,111.25 120.42125,101.1075 110.62,85.9 C114.17625,77.14 115.83625,67.48875 115.17125,57.445 L115.15125,57.0875 C114.815,51.9725 113.89125,47.04625 112.46875,42.355 C113.5725,46.745 114.15625,51.34 114.15625,56.0675 L114.15625,56.37125 C114.15625,65.7025 111.895,74.47 107.83875,82.15625 C98.715,99.46625 80.4025,111.25 57.60125,111.25 C24.675,111.25 0.74375,86.4 0.74375,56.0675 L0.74375,55.76 C0.74375,25.42625 24.37,0.8825 57.29125,0.8825 C78.25625,0.8825 95.53625,10.97125 105.35125,26.1175 C102.92875,32.24125 101.395,38.845 100.93625,45.79625 L100.9125,46.1525 C100.425,53.585 101.21875,60.79875 103.08875,67.60375 C102.3075,63.87875 101.8925,60.02125 101.8925,56.0675 L101.8925,55.76 C101.8925,46.63375 104.035,38.03375 107.92625,30.46625 C107.92625,30.47 107.92875,30.4725 107.93,30.47375 C116.9625,12.88875 135.42375,0.8825 158.4475,0.8825 C191.37125,0.8825 215.305,25.73 215.305,56.0675 L215.305,56.37125 C215.305,86.705 191.67875,111.25 158.75,111.25 L158.75,111.25 Z M89.615,55.76 C89.615,37.4675 76.5025,22.53125 57.60125,22.53125 C38.6975,22.53125 25.28375,37.775 25.28375,56.0675 L25.28375,56.37125 C25.28375,74.66375 38.39625,89.60125 57.29125,89.60125 C76.1975,89.60125 89.615,74.36125 89.615,56.0675 L89.615,55.76 L89.615,55.76 Z M190.76375,55.76 C190.76375,37.4675 177.65,22.53125 158.75,22.53125 C139.8475,22.53125 126.43,37.775 126.43,56.0675 L126.43,56.37125 C126.43,74.66375 139.54625,89.60125 158.4475,89.60125 C177.34875,89.60125 190.76375,74.36125 190.76375,56.0675 L190.76375,55.76 L190.76375,55.76 Z" id="path118"></path>
                        </g>
                        <g id="g120" transform="translate(582.228500, 0.710000)">
                            <path d="M158.75,111.25 C137.735,111.25 120.4225,101.1075 110.62125,85.9 C114.1775,77.14 115.835,67.48875 115.17125,57.445 L115.14875,57.0875 C114.81375,51.9725 113.89125,47.04625 112.47,42.355 C113.57375,46.745 114.155,51.34 114.155,56.0675 L114.155,56.37125 C114.155,65.7025 111.89625,74.47 107.84,82.15625 C98.715,99.46625 80.40375,111.25 57.60125,111.25 C24.67375,111.25 0.74375,86.4 0.74375,56.0675 L0.74375,55.76 C0.74375,25.42625 24.37125,0.8825 57.29125,0.8825 C78.255,0.8825 95.535,10.97125 105.35125,26.1175 C102.93,32.24125 101.39625,38.845 100.93625,45.79625 L100.91375,46.1525 C100.425,53.585 101.22,60.79875 103.09,67.60375 C102.3075,63.87875 101.895,60.02125 101.895,56.0675 L101.895,55.76 C101.895,46.63375 104.03625,38.03375 107.9275,30.46625 C107.9275,30.47 107.93,30.4725 107.93125,30.47375 C116.96375,12.88875 135.425,0.8825 158.44875,0.8825 C191.37375,0.8825 215.30625,25.73 215.30625,56.0675 L215.30625,56.37125 C215.30625,86.705 191.67875,111.25 158.75,111.25 L158.75,111.25 Z M89.61625,55.76 C89.61625,37.4675 76.5025,22.53125 57.60125,22.53125 C38.69875,22.53125 25.28375,37.775 25.28375,56.0675 L25.28375,56.37125 C25.28375,74.66375 38.39625,89.60125 57.29125,89.60125 C76.19875,89.60125 89.61625,74.36125 89.61625,56.0675 L89.61625,55.76 L89.61625,55.76 Z M190.76375,55.76 C190.76375,37.4675 177.65125,22.53125 158.75,22.53125 C139.84625,22.53125 126.42875,37.775 126.42875,56.0675 L126.42875,56.37125 C126.42875,74.66375 139.5425,89.60125 158.44875,89.60125 C177.34875,89.60125 190.76375,74.36125 190.76375,56.0675 L190.76375,55.76 L190.76375,55.76 Z" id="path122"></path>
                        </g>
                    </g>
                </g>
            </g>
        </g>
    </g>
</svg>