<?xml version="1.0" encoding="UTF-8"?>
<svg width="891px" height="184px" viewBox="0 0 891 184" version="1.1" xmlns="http://www.w3.org/2000/svg" xmlns:xlink="http://www.w3.org/1999/xlink">
    <!-- Generator: Sketch 43.2 (39069) - http://www.bohemiancoding.com/sketch -->
    <title>HLV-kgs-hor-logo-white-slogan-white</title>
    <desc>Created with Sketch.</desc>
    <defs></defs>
    <g id="Page-1" stroke="none" stroke-width="1" fill="none" fill-rule="evenodd">
        <g id="HLV-kgs-hor-logo-white-slogan-white" transform="translate(-1.000000, 0.000000)" fill-rule="nonzero" fill="#FFFFFF">
            <g id="g10" transform="translate(446.500000, 92.000000) scale(-1, 1) rotate(-180.000000) translate(-446.500000, -92.000000) translate(0.000000, -0.000000)">
                <g id="g12" transform="translate(0.289750, 75.568250)">
                    <polygon id="path14" points="67.5 106.25 67.5 64.02125 24.205 64.02125 0.73125 42.37875 67.5 42.37875 67.5 0.1525 90.975 0.1525 90.975 106.25"></polygon>
                </g>
                <polygon id="path16" points="24.495 139.5875 1.02125 139.5875 1.02125 181.81625 24.495 181.81625 24.495 139.5875"></polygon>
                <g id="g18" transform="translate(1.021000, 75.446750)">
                    <polygon id="path20" points="0 42.5 23.47375 39.87125 23.47375 0.27375 0 0.27375"></polygon>
                </g>
                <g id="g22" transform="translate(314.315625, 75.585875)">
                    <polygon id="path24" points="0 106.25 23.47375 106.25 23.47375 21.47375 23.47375 0.13375 0 21.47375"></polygon>
                </g>
                <g id="g26" transform="translate(336.677125, 74.559875)">
                    <polygon id="path28" points="3.75 22.5 54.3175 22.5 54.3175 1.16 1.1125 1.16"></polygon>
                </g>
                <g id="g30" transform="translate(638.171875, 75.585875)">
                    <polygon id="path32" points="26.25 106.25 0.17375 36.0025 8.91625 0.13375 51.51125 106.25"></polygon>
                </g>
                <g id="g34" transform="translate(583.274375, 75.534000)">
                    <polygon id="path36" points="53.75 32.5 26.35875 106.3025 0.48 106.3025 43.08125 0.18375 63.81125 0.18375"></polygon>
                </g>
                <g id="g38" transform="translate(94.000000, 0.000000)">
                    <g id="g40-Clipped">
                        <g id="g46" transform="translate(119.216375, 8.407000)">
                            <path d="M0,33.75 L12.51125,33.75 C15.135,33.75 17.545,33.32375 19.72875,32.47875 C21.92625,31.635 23.80375,30.45375 25.385,28.95625 C26.9725,27.45125 28.19125,25.68625 29.04625,23.655 C29.9175,21.6225 30.35375,19.42625 30.35375,17.06625 L30.35375,16.96625 C30.35375,14.5975 29.9175,12.395 29.04625,10.34375 C28.19125,8.3025 26.9725,6.52875 25.385,5.03 C23.80375,3.53125 21.92625,2.3475 19.72875,1.485 C17.545,0.61125 15.135,0.1825 12.51125,0.1825 L0,0.1825 L0,33.75 Z M12.46375,5.51 C14.215,5.51 15.8175,5.7925 17.26375,6.35125 C18.695,6.91625 19.9175,7.7025 20.92875,8.71 C21.94375,9.7275 22.72,10.92875 23.2775,12.325 C23.8325,13.71625 24.11625,15.23875 24.11625,16.87125 L24.11625,16.96625 C24.11625,18.605 23.8325,20.12875 23.2775,21.5425 C22.72,22.955 21.94375,24.1625 20.92875,25.17875 C19.9175,26.19 18.695,26.98375 17.26375,27.56 C15.8175,28.13375 14.215,28.42875 12.46375,28.42875 L5.8525,28.42875 L5.8525,5.51 L12.46375,5.51 L12.46375,5.51 Z" id="path48"></path>
                        </g>
                        <g id="g50" transform="translate(154.184750, 8.023625)">
                            <path d="M13.75,0 C11.8275,0 10.0425,0.33125 8.4025,1.0225 C6.75375,1.7175 5.32625,2.6475 4.13,3.83125 C2.93875,5.01125 1.99875,6.40375 1.32375,8 C0.65125,9.6 0.32375,11.29125 0.32375,13.08875 L0.32375,13.1775 C0.32375,15.0075 0.6675,16.70875 1.34625,18.3075 C2.0375,19.90875 2.98,21.3075 4.1775,22.505 C5.38,23.705 6.8075,24.655 8.44,25.3575 C10.09625,26.06625 11.89125,26.415 13.84125,26.415 C15.795,26.415 17.59,26.06875 19.23,25.38375 C20.88,24.695 22.30375,23.74875 23.50375,22.55 C24.7,21.34625 25.63875,19.965 26.3025,18.38 C26.97875,16.795 27.32,15.09625 27.32,13.27375 L27.32,13.1775 C27.32,11.38375 26.97375,9.7 26.2825,8.09625 C25.59625,6.49875 24.6525,5.10125 23.45875,3.90125 C22.25625,2.7025 20.825,1.75 19.15875,1.04625 C17.4925,0.34375 15.7,0 13.75,0 M13.84125,5.02875 C15.015,5.02875 16.0675,5.23875 17.0025,5.67 C17.94875,6.105 18.75,6.68375 19.41625,7.42125 C20.0825,8.155 20.58875,9.01 20.94375,9.99625 C21.28625,10.9675 21.45875,12 21.45875,13.08875 L21.45875,13.1775 C21.45875,14.29375 21.26625,15.355 20.89625,16.35 C20.51375,17.33375 19.98,18.195 19.29125,18.93375 C18.60875,19.66875 17.8125,20.25375 16.8675,20.685 C15.93625,21.10875 14.88875,21.33 13.75,21.33 C12.60125,21.33 11.55375,21.10875 10.6225,20.685 C9.6875,20.25375 8.87875,19.67875 8.21375,18.95625 C7.5475,18.23125 7.04,17.3775 6.6875,16.3925 C6.34375,15.4 6.15875,14.3675 6.15875,13.27375 L6.15875,13.1775 C6.15875,12.0625 6.35375,11.01125 6.72875,10.03875 C7.115,9.06125 7.65125,8.20125 8.33625,7.445 C9.015,6.6975 9.83625,6.105 10.7725,5.67 C11.70875,5.23875 12.7325,5.02875 13.84125,5.02875" id="path52"></path>
                        </g>
                        <g id="g54" transform="translate(185.193000, 8.065125)">
                            <path d="M12.5,0 C10.9875,0 9.53625,0.28875 8.12625,0.8575 C6.7225,1.44125 5.4725,2.28375 4.38375,3.405 C3.30125,4.53 2.42625,5.895 1.7475,7.5275 C1.0825,9.155 0.74875,11.0275 0.74875,13.13375 L0.74875,13.2325 C0.74875,15.3425 1.07125,17.215 1.7225,18.84125 C2.3775,20.47 3.25375,21.84875 4.3325,22.9675 C5.4175,24.0825 6.67125,24.935 8.09375,25.51 C9.5075,26.08125 10.96125,26.37375 12.47375,26.37375 C14.535,26.37375 16.25875,25.92625 17.635,25.0275 C18.9975,24.1325 20.14875,23.095 21.0725,21.91125 L21.0725,35.52875 L26.9275,35.52875 L26.9275,0.525 L21.0725,0.525 L21.12625,4.74625 C20.19125,3.435 19.04125,2.3175 17.655,1.39375 C16.25875,0.46375 14.535,0 12.5,0 M13.865,5.0375 C14.80875,5.0375 15.7325,5.22625 16.6275,5.60375 C17.525,5.9975 18.30625,6.5425 18.9675,7.26625 C19.64,7.98125 20.17,8.835 20.58,9.82875 C20.9775,10.8225 21.17,11.9275 21.17,13.13375 L21.17,13.2325 C21.17,14.44875 20.9775,15.56125 20.58,16.565 C20.17,17.575 19.64,18.4275 18.9675,19.13 C18.30625,19.835 17.525,20.3775 16.6275,20.76375 C15.7325,21.145 14.80875,21.3325 13.865,21.3325 C12.8775,21.3325 11.94125,21.15625 11.0625,20.79 C10.19,20.41 9.4075,19.87875 8.74125,19.185 C8.0775,18.475 7.5525,17.62 7.1725,16.615 C6.78625,15.60875 6.595,14.47875 6.595,13.2325 L6.595,13.13375 C6.595,11.9275 6.78625,10.81625 7.1725,9.80125 C7.5525,8.79625 8.0775,7.9425 8.74125,7.23875 C9.4075,6.5425 10.19,5.9975 11.0625,5.60375 C11.94125,5.22625 12.8775,5.0375 13.865,5.0375" id="path56"></path>
                        </g>
                        <path d="M222.4125,43.30375 L228.69375,43.30375 L228.69375,37.79625 L222.4125,37.79625 L222.4125,43.30375 Z M222.65875,33.90875 L228.50125,33.90875 L228.50125,8.59 L222.65875,8.59 L222.65875,33.90875 Z" id="path58"></path>
                        <polygon id="path60" points="235.7425 15.16375 242.1225 15.16375 242.1225 8.59 235.7425 8.59 235.7425 15.16375"></polygon>
                        <polygon id="path62" points="264.7875 42.1575 270.63375 42.1575 270.63375 8.59 264.7875 8.59"></polygon>
                        <g id="g64" transform="translate(276.353250, 0.821500)">
                            <path d="M13.75,0 C9.53375,0 5.75125,1.00125 2.4425,2.99625 L4.5925,7.34 C5.93,6.51125 7.3375,5.8475 8.81125,5.36875 C10.27375,4.89125 11.88125,4.65125 13.605,4.65125 C16.20375,4.65125 18.175,5.315 19.54625,6.62875 C20.92875,7.94625 21.615,9.8925 21.615,12.4575 L21.615,14.43875 C20.56125,13.06875 19.33,11.9425 17.92125,11.085 C16.51875,10.21875 14.765,9.78625 12.6975,9.78625 C11.19375,9.78625 9.75625,10.0575 8.38125,10.6 C7.00875,11.14625 5.77875,11.9175 4.71375,12.9325 C3.64125,13.9325 2.79125,15.17125 2.15125,16.6425 C1.505,18.11375 1.19,19.78 1.19,21.62875 L1.19,21.72375 C1.19,23.5725 1.505,25.24625 2.15125,26.73875 C2.79125,28.22 3.64125,29.46625 4.71375,30.47125 C5.77875,31.48625 7.015,32.25 8.40375,32.79875 C9.7925,33.3475 11.22375,33.6175 12.6975,33.6175 C14.8375,33.6175 16.605,33.1925 17.99625,32.3425 C19.38875,31.5 20.5775,30.4825 21.56625,29.3 L21.56625,33.0875 L27.36625,33.0875 L27.36625,12.9475 C27.36625,8.72875 26.2975,5.54625 24.15125,3.40125 C23.00875,2.26 21.5575,1.4 19.81375,0.8475 C18.0775,0.28625 16.05125,0 13.75,0 M14.2325,14.67875 C15.22,14.67875 16.17625,14.84625 17.0825,15.1825 C17.99625,15.51375 18.79,15.9925 19.45625,16.62125 C20.125,17.24125 20.67,17.97375 21.065,18.825 C21.46375,19.67125 21.6575,20.60125 21.6575,21.62875 L21.6575,21.72375 C21.6575,22.78125 21.46375,23.72625 21.065,24.5775 C20.67,25.42375 20.125,26.15875 19.45625,26.7775 C18.79,27.405 17.99625,27.8875 17.0825,28.22 C16.17625,28.55125 15.22,28.725 14.2325,28.725 C13.20875,28.725 12.26625,28.55125 11.4025,28.22 C10.5375,27.8875 9.775,27.4125 9.12125,26.8025 C8.47375,26.195 7.95625,25.4725 7.59625,24.625 C7.22625,23.77625 7.03875,22.83125 7.03875,21.77625 L7.03875,21.67625 C7.03875,20.62125 7.235,19.67125 7.61125,18.825 C8,17.97375 8.51,17.24125 9.15125,16.62125 C9.78375,15.9925 10.54875,15.51375 11.42125,15.1825 C12.3,14.84625 13.23625,14.67875 14.2325,14.67875" id="path66"></path>
                        </g>
                        <g id="g68" transform="translate(311.555875, 7.658750)">
                            <path d="M0,26.25 L5.84875,26.25 L5.84875,20.5475 C6.65625,22.46125 7.79,23.99875 9.26,25.14625 C10.7325,26.2975 12.585,26.82875 14.8175,26.7325 L14.8175,20.59375 L14.48,20.59375 C13.2075,20.59375 12.03875,20.3875 10.9825,19.96625 C9.92875,19.54875 9.00875,18.93125 8.24875,18.09625 C7.4775,17.26625 6.89,16.2275 6.47625,14.9625 C6.06,13.69625 5.84875,12.22875 5.84875,10.5725 L5.84875,0.93375 L0,0.93375 L0,26.25 Z" id="path70"></path>
                        </g>
                        <g id="g72" transform="translate(328.656125, 7.340125)">
                            <path d="M17.5,1.25 L17.5,4.37 C16.63,3.3425 15.5325,2.48 14.1875,1.78625 C12.8425,1.07125 11.22125,0.725 9.29125,0.725 C8.0825,0.725 6.925,0.895 5.8475,1.2325 C4.7625,1.56625 3.805,2.05875 2.99125,2.7125 C2.175,3.37625 1.52625,4.18625 1.0225,5.16 C0.53,6.13375 0.285,7.2675 0.285,8.535 L0.285,8.63375 C0.285,10.0425 0.53,11.26625 1.05375,12.30625 C1.56125,13.3375 2.26125,14.205 3.18625,14.8925 C4.08875,15.58 5.18,16.09625 6.44875,16.42625 C7.71375,16.76375 9.0725,16.9275 10.545,16.9275 C12.0775,16.9275 13.385,16.83625 14.45125,16.6425 C15.5175,16.45125 16.5475,16.1975 17.5525,15.87375 L17.5525,16.3575 C17.5525,18.115 17.0075,19.45875 15.9375,20.385 C14.86875,21.30875 13.32875,21.77875 11.31375,21.77875 C9.87125,21.77875 8.59375,21.6275 7.47625,21.3475 C6.36375,21.05125 5.2225,20.67125 4.07,20.18875 L2.4875,24.83875 C3.9,25.48375 5.33625,25.99375 6.80375,26.38 C8.275,26.76 10.045,26.95875 12.13125,26.95875 C15.8975,26.95875 18.69,26.01625 20.51125,24.1525 C22.34,22.27125 23.2425,19.64875 23.2425,16.2625 L23.2425,1.25 L17.5,1.25 Z M17.6475,11.84875 C16.9175,12.135 16.035,12.375 15.025,12.5725 C14.015,12.75625 12.96875,12.855 11.84,12.855 C10.01875,12.855 8.59375,12.50375 7.565,11.7975 C6.54625,11.1025 6.04125,10.14 6.04125,8.9225 L6.04125,8.82875 C6.04125,7.61125 6.50875,6.68875 7.45625,6.05 C8.4,5.40375 9.55125,5.0875 10.93375,5.0875 C11.885,5.0875 12.77125,5.21375 13.58875,5.47125 C14.4,5.73125 15.11375,6.0875 15.72125,6.55375 C16.33375,7.0175 16.80125,7.57125 17.14125,8.22625 C17.4725,8.88375 17.6475,9.61 17.6475,10.41125 L17.6475,11.84875 L17.6475,11.84875 Z" id="path74"></path>
                        </g>
                        <g id="g76" transform="translate(353.496875, 0.773875)">
                            <path d="M3.75,0 C3.19125,0 2.71125,0.0225 2.27875,0.07375 C1.845,0.12375 1.4125,0.17875 0.965,0.2375 L0.965,4.8975 C1.53625,4.7975 2.06,4.755 2.57125,4.755 C3.39375,4.755 4.05625,4.98625 4.54375,5.4425 C5.03375,5.91125 5.27625,6.69875 5.27625,7.81625 L5.27625,33.135 L11.12875,33.135 L11.12875,7.485 C11.12875,4.8975 10.50125,2.99875 9.23875,1.79625 C7.96875,0.6025 6.14,0 3.75,0 L3.75,0 Z M5.04,42.5275 L11.3225,42.5275 L11.3225,37.02 L5.04,37.02 L5.04,42.5275 Z" id="path78"></path>
                        </g>
                        <polygon id="path80" points="371.915 15.16375 378.30125 15.16375 378.30125 8.59 371.915 8.59 371.915 15.16375"></polygon>
                        <g id="g82" transform="translate(401.048125, 8.407000)">
                            <path d="M0,33.75 L13.23375,33.75 C15.18875,33.75 16.9575,33.48625 18.5375,32.955 C20.12,32.4325 21.4525,31.67375 22.56625,30.68 C23.67125,29.695 24.50625,28.5125 25.1,27.13375 C25.7,25.76125 25.98625,24.22625 25.98625,22.53 L25.98625,22.435 C25.98625,20.55 25.63875,18.8925 24.92875,17.47375 C24.22625,16.0425 23.26125,14.865 22.04875,13.89875 C20.83,12.9425 19.40125,12.21125 17.78,11.71875 C16.1375,11.22375 14.38875,10.975 12.535,10.975 L5.8475,10.975 L5.8475,0.1825 L5.55111512e-15,0.1825 L0,33.75 Z M12.73,16.29625 C14.97375,16.29625 16.7475,16.85375 18.05125,17.98125 C19.34875,19.10875 19.9975,20.55 19.9975,22.3125 L19.9975,22.41125 C19.9975,24.3975 19.34125,25.9025 18.02625,26.9075 C16.70875,27.92125 14.94375,28.42875 12.73,28.42875 L5.8475,28.42875 L5.8475,16.29625 L12.73,16.29625 L12.73,16.29625 Z" id="path84"></path>
                        </g>
                        <g id="g86" transform="translate(430.279000, 8.023625)">
                            <path d="M13.75,0 C11.82625,0 10.03875,0.33125 8.39875,1.0225 C6.75,1.7175 5.3325,2.6475 4.135,3.83125 C2.935,5.01125 1.99875,6.40375 1.33125,8 C0.65625,9.6 0.31625,11.29125 0.31625,13.08875 L0.31625,13.1775 C0.31625,15.0075 0.6625,16.70875 1.34375,18.3075 C2.04375,19.90875 2.97625,21.3075 4.1775,22.505 C5.38,23.705 6.7975,24.655 8.44375,25.3575 C10.08625,26.06625 11.89,26.415 13.83625,26.415 C15.78875,26.415 17.58125,26.06875 19.23875,25.38375 C20.8775,24.695 22.3025,23.74875 23.50375,22.55 C24.69875,21.34625 25.62875,19.965 26.30625,18.38 C26.9725,16.795 27.31625,15.09625 27.31625,13.27375 L27.31625,13.1775 C27.31625,11.38375 26.95875,9.7 26.28,8.09625 C25.5925,6.49875 24.65125,5.10125 23.455,3.90125 C22.2525,2.7025 20.81875,1.75 19.16,1.04625 C17.50625,0.34375 15.69,0 13.75,0 M13.83625,5.02875 C15.00875,5.02875 16.07,5.23875 17.0125,5.67 C17.94125,6.105 18.7475,6.68375 19.41375,7.42125 C20.0825,8.155 20.585,9.01 20.935,9.99625 C21.2825,10.9675 21.46375,12 21.46375,13.08875 L21.46375,13.1775 C21.46375,14.29375 21.2775,15.355 20.8875,16.35 C20.505,17.33375 19.97375,18.195 19.29625,18.93375 C18.61125,19.66875 17.8,20.25375 16.86125,20.685 C15.925,21.10875 14.89,21.33 13.75,21.33 C12.59875,21.33 11.5625,21.10875 10.62375,20.685 C9.68375,20.25375 8.88375,19.67875 8.2175,18.95625 C7.55,18.23125 7.0425,17.3775 6.69125,16.3925 C6.335,15.4 6.16,14.3675 6.16,13.27375 L6.16,13.1775 C6.16,12.0625 6.36125,11.01125 6.74125,10.03875 C7.12125,9.06125 7.66125,8.20125 8.33125,7.445 C9.0175,6.6975 9.8175,6.105 10.76375,5.67 C11.70625,5.23875 12.72625,5.02875 13.83625,5.02875" id="path88"></path>
                        </g>
                        <g id="g90" transform="translate(463.247750, 7.343750)">
                            <polygon id="path92" points="-3.94430453e-31 36.25 5.8575 36.25 5.8575 15.34875 16.35875 26.565 23.41125 26.565 13.33 16.2575 23.73875 1.24625 17.03 1.24625 9.40875 12.1825 5.8575 8.49 5.8575 1.24625 -2.22044605e-15 1.24625"></polygon>
                        </g>
                        <path d="M491.04625,43.30375 L497.335,43.30375 L497.335,37.79625 L491.04625,37.79625 L491.04625,43.30375 Z M491.2875,33.90875 L497.13875,33.90875 L497.13875,8.59 L491.2875,8.59 L491.2875,33.90875 Z" id="path94"></path>
                        <g id="g96" transform="translate(502.301750, 8.065125)">
                            <path d="M12.5,0 C10.99875,0 9.545,0.28875 8.14125,0.8575 C6.735,1.44125 5.4875,2.28375 4.40625,3.405 C3.30875,4.53 2.43875,5.895 1.76875,7.5275 C1.09,9.155 0.76,11.0275 0.76,13.13375 L0.76,13.2325 C0.76,15.3425 1.08375,17.215 1.74625,18.84125 C2.39125,20.47 3.255,21.84875 4.3475,22.9675 C5.42625,24.0825 6.68,24.935 8.0975,25.51 C9.5125,26.08125 10.98125,26.37375 12.48,26.37375 C14.54375,26.37375 16.26125,25.92625 17.6475,25.0275 C19.0125,24.1325 20.15625,23.095 21.08875,21.91125 L21.08875,35.52875 L26.93375,35.52875 L26.93375,0.525 L21.08875,0.525 L21.13125,4.74625 C20.2075,3.435 19.0425,2.3175 17.66125,1.39375 C16.26125,0.46375 14.54375,0 12.5,0 M13.87125,5.0375 C14.82625,5.0375 15.75625,5.22625 16.645,5.60375 C17.53125,5.9975 18.3175,6.5425 18.99,7.26625 C19.66125,7.98125 20.1825,8.835 20.57875,9.82875 C20.98125,10.8225 21.1875,11.9275 21.1875,13.13375 L21.1875,13.2325 C21.1875,14.44875 20.98125,15.56125 20.57875,16.565 C20.1825,17.575 19.66125,18.4275 18.99,19.13 C18.3175,19.835 17.53125,20.3775 16.645,20.76375 C15.75625,21.145 14.82625,21.3325 13.87125,21.3325 C12.88375,21.3325 11.95,21.15625 11.07,20.79 C10.195,20.41 9.42625,19.87875 8.7625,19.185 C8.09375,18.475 7.57,17.62 7.185,16.615 C6.80125,15.60875 6.60375,14.47875 6.60375,13.2325 L6.60375,13.13375 C6.60375,11.9275 6.80125,10.81625 7.185,9.80125 C7.57,8.79625 8.09375,7.9425 8.7625,7.23875 C9.42625,6.5425 10.195,5.9975 11.07,5.60375 C11.95,5.22625 12.88375,5.0375 13.87125,5.0375" id="path98"></path>
                        </g>
                        <g id="g100" transform="translate(534.334250, 7.340125)">
                            <path d="M17.5,1.25 L17.5,4.37 C16.6375,3.3425 15.525,2.48 14.1925,1.78625 C12.855,1.07125 11.21875,0.725 9.3,0.725 C8.085,0.725 6.94,0.895 5.85,1.2325 C4.76625,1.56625 3.8125,2.05875 2.995,2.7125 C2.1925,3.37625 1.53375,4.18625 1.0275,5.16 C0.5325,6.13375 0.29,7.2675 0.29,8.535 L0.29,8.63375 C0.29,10.0425 0.54,11.26625 1.04375,12.30625 C1.56375,13.3375 2.27125,14.205 3.19,14.8925 C4.095,15.58 5.1825,16.09625 6.4525,16.42625 C7.71,16.76375 9.08625,16.9275 10.55125,16.9275 C12.0775,16.9275 13.38625,16.83625 14.46125,16.6425 C15.525,16.45125 16.55625,16.1975 17.55,15.87375 L17.55,16.3575 C17.55,18.115 17.0075,19.45875 15.9375,20.385 C14.87125,21.30875 13.3325,21.77875 11.31375,21.77875 C9.8775,21.77875 8.59625,21.6275 7.4725,21.3475 C6.36125,21.05125 5.22125,20.67125 4.07625,20.18875 L2.485,24.83875 C3.8975,25.48375 5.33875,25.99375 6.8075,26.38 C8.2725,26.76 10.0525,26.95875 12.12875,26.95875 C15.9075,26.95875 18.6975,26.01625 20.51625,24.1525 C22.345,22.27125 23.24875,19.64875 23.24875,16.2625 L23.24875,1.25 L17.5,1.25 Z M17.6425,11.84875 C16.90375,12.135 16.04,12.375 15.025,12.5725 C14.025,12.75625 12.96375,12.855 11.84625,12.855 C10.01875,12.855 8.59625,12.50375 7.575,11.7975 C6.5475,11.1025 6.03625,10.14 6.03625,8.9225 L6.03625,8.82875 C6.03625,7.61125 6.50375,6.68875 7.45875,6.05 C8.405,5.40375 9.55125,5.0875 10.93125,5.0875 C11.8975,5.0875 12.78375,5.21375 13.59,5.47125 C14.405,5.73125 15.12,6.0875 15.72625,6.55375 C16.3375,7.0175 16.7975,7.57125 17.1425,8.22625 C17.475,8.88375 17.6425,9.61 17.6425,10.41125 L17.6425,11.84875 L17.6425,11.84875 Z" id="path102"></path>
                        </g>
                        <g id="g104" transform="translate(560.503625, 0.773875)">
                            <path d="M3.75,0 C3.20625,0 2.72375,0.0225 2.28875,0.07375 C1.8575,0.12375 1.42625,0.17875 0.975,0.2375 L0.975,4.8975 C1.54,4.7975 2.07875,4.755 2.58625,4.755 C3.40625,4.755 4.0675,4.98625 4.55625,5.4425 C5.045,5.91125 5.2875,6.69875 5.2875,7.81625 L5.2875,33.135 L11.13375,33.135 L11.13375,7.485 C11.13375,4.8975 10.51,2.99875 9.245,1.79625 C7.98125,0.6025 6.15875,0 3.75,0 L3.75,0 Z M5.05125,42.5275 L11.33625,42.5275 L11.33625,37.02 L5.05125,37.02 L5.05125,42.5275 L5.05125,42.5275 Z" id="path106"></path>
                        </g>
                        <polygon id="path108" points="578.93875 15.16375 585.31875 15.16375 585.31875 8.59 578.93875 8.59 578.93875 15.16375"></polygon>
                        <polygon id="path110" points="202.26875 38.43625 216.1175 38.43625 216.1175 34.9975 202.26875 34.9975"></polygon>
                        <g id="g112" transform="translate(0.547000, 72.710000)">
                            <path d="M158.75,111.25 C137.735,111.25 120.42,101.1075 110.61875,85.9 C114.175,77.14 115.835,67.48875 115.16875,57.445 L115.14875,57.0875 C114.81375,51.9725 113.88875,47.04625 112.4675,42.355 C113.57125,46.745 114.155,51.34 114.155,56.0675 L114.155,56.37125 C114.155,65.7025 111.89375,74.47 107.83875,82.15625 C98.7125,99.46625 80.40125,111.25 57.60125,111.25 C24.67375,111.25 0.7425,86.4 0.7425,56.0675 L0.7425,55.76 C0.7425,25.42625 24.36875,0.8825 57.29125,0.8825 C78.25375,0.8825 95.535,10.97125 105.35125,26.1175 C102.9275,32.24125 101.39375,38.845 100.93625,45.79625 L100.91375,46.1525 C100.42375,53.585 101.2175,60.79875 103.0875,67.60375 C102.30625,63.87875 101.8925,60.02125 101.8925,56.0675 L101.8925,55.76 C101.8925,46.63375 104.03375,38.03375 107.925,30.46625 C107.925,30.47 107.9275,30.4725 107.9275,30.47375 C116.96125,12.88875 135.4225,0.8825 158.44625,0.8825 C191.37125,0.8825 215.30375,25.73 215.30375,56.0675 L215.30375,56.37125 C215.30375,86.705 191.67625,111.25 158.75,111.25 L158.75,111.25 Z M89.615,55.76 C89.615,37.4675 76.5025,22.53125 57.60125,22.53125 C38.6975,22.53125 25.28375,37.775 25.28375,56.0675 L25.28375,56.37125 C25.28375,74.66375 38.39375,89.60125 57.29125,89.60125 C76.1975,89.60125 89.615,74.36125 89.615,56.0675 L89.615,55.76 L89.615,55.76 Z M190.76125,55.76 C190.76125,37.4675 177.65,22.53125 158.75,22.53125 C139.84375,22.53125 126.42875,37.775 126.42875,56.0675 L126.42875,56.37125 C126.42875,74.66375 139.5425,89.60125 158.44625,89.60125 C177.3475,89.60125 190.76125,74.36125 190.76125,56.0675 L190.76125,55.76 L190.76125,55.76 Z" id="path114"></path>
                        </g>
                        <g id="g116" transform="translate(286.839125, 72.710000)">
                            <path d="M158.75,111.25 C137.7375,111.25 120.42125,101.1075 110.62,85.9 C114.17625,77.14 115.83625,67.48875 115.17125,57.445 L115.15125,57.0875 C114.815,51.9725 113.89125,47.04625 112.46875,42.355 C113.5725,46.745 114.15625,51.34 114.15625,56.0675 L114.15625,56.37125 C114.15625,65.7025 111.895,74.47 107.83875,82.15625 C98.715,99.46625 80.4025,111.25 57.60125,111.25 C24.675,111.25 0.74375,86.4 0.74375,56.0675 L0.74375,55.76 C0.74375,25.42625 24.37,0.8825 57.29125,0.8825 C78.25625,0.8825 95.53625,10.97125 105.35125,26.1175 C102.92875,32.24125 101.395,38.845 100.93625,45.79625 L100.9125,46.1525 C100.425,53.585 101.21875,60.79875 103.08875,67.60375 C102.3075,63.87875 101.8925,60.02125 101.8925,56.0675 L101.8925,55.76 C101.8925,46.63375 104.035,38.03375 107.92625,30.46625 C107.92625,30.47 107.92875,30.4725 107.93,30.47375 C116.9625,12.88875 135.42375,0.8825 158.4475,0.8825 C191.37125,0.8825 215.305,25.73 215.305,56.0675 L215.305,56.37125 C215.305,86.705 191.67875,111.25 158.75,111.25 L158.75,111.25 Z M89.615,55.76 C89.615,37.4675 76.5025,22.53125 57.60125,22.53125 C38.6975,22.53125 25.28375,37.775 25.28375,56.0675 L25.28375,56.37125 C25.28375,74.66375 38.39625,89.60125 57.29125,89.60125 C76.1975,89.60125 89.615,74.36125 89.615,56.0675 L89.615,55.76 L89.615,55.76 Z M190.76375,55.76 C190.76375,37.4675 177.65,22.53125 158.75,22.53125 C139.8475,22.53125 126.43,37.775 126.43,56.0675 L126.43,56.37125 C126.43,74.66375 139.54625,89.60125 158.4475,89.60125 C177.34875,89.60125 190.76375,74.36125 190.76375,56.0675 L190.76375,55.76 L190.76375,55.76 Z" id="path118"></path>
                        </g>
                        <g id="g120" transform="translate(582.228500, 72.710000)">
                            <path d="M158.75,111.25 C137.735,111.25 120.4225,101.1075 110.62125,85.9 C114.1775,77.14 115.835,67.48875 115.17125,57.445 L115.14875,57.0875 C114.81375,51.9725 113.89125,47.04625 112.47,42.355 C113.57375,46.745 114.155,51.34 114.155,56.0675 L114.155,56.37125 C114.155,65.7025 111.89625,74.47 107.84,82.15625 C98.715,99.46625 80.40375,111.25 57.60125,111.25 C24.67375,111.25 0.74375,86.4 0.74375,56.0675 L0.74375,55.76 C0.74375,25.42625 24.37125,0.8825 57.29125,0.8825 C78.255,0.8825 95.535,10.97125 105.35125,26.1175 C102.93,32.24125 101.39625,38.845 100.93625,45.79625 L100.91375,46.1525 C100.425,53.585 101.22,60.79875 103.09,67.60375 C102.3075,63.87875 101.895,60.02125 101.895,56.0675 L101.895,55.76 C101.895,46.63375 104.03625,38.03375 107.9275,30.46625 C107.9275,30.47 107.93,30.4725 107.93125,30.47375 C116.96375,12.88875 135.425,0.8825 158.44875,0.8825 C191.37375,0.8825 215.30625,25.73 215.30625,56.0675 L215.30625,56.37125 C215.30625,86.705 191.67875,111.25 158.75,111.25 L158.75,111.25 Z M89.61625,55.76 C89.61625,37.4675 76.5025,22.53125 57.60125,22.53125 C38.69875,22.53125 25.28375,37.775 25.28375,56.0675 L25.28375,56.37125 C25.28375,74.66375 38.39625,89.60125 57.29125,89.60125 C76.19875,89.60125 89.61625,74.36125 89.61625,56.0675 L89.61625,55.76 L89.61625,55.76 Z M190.76375,55.76 C190.76375,37.4675 177.65125,22.53125 158.75,22.53125 C139.84625,22.53125 126.42875,37.775 126.42875,56.0675 L126.42875,56.37125 C126.42875,74.66375 139.5425,89.60125 158.44875,89.60125 C177.34875,89.60125 190.76375,74.36125 190.76375,56.0675 L190.76375,55.76 L190.76375,55.76 Z" id="path122"></path>
                        </g>
                    </g>
                </g>
            </g>
        </g>
    </g>
</svg>