<?xml version="1.0" encoding="UTF-8" standalone="no"?>
<svg
   xmlns:dc="http://purl.org/dc/elements/1.1/"
   xmlns:cc="http://creativecommons.org/ns#"
   xmlns:rdf="http://www.w3.org/1999/02/22-rdf-syntax-ns#"
   xmlns:svg="http://www.w3.org/2000/svg"
   xmlns="http://www.w3.org/2000/svg"
   viewBox="0 0 990 765"
   height="765"
   width="990"
   xml:space="preserve"
   version="1.1"
   id="svg2"><metadata
     id="metadata8"><rdf:RDF><cc:Work
         rdf:about=""><dc:format>image/svg+xml</dc:format><dc:type
           rdf:resource="http://purl.org/dc/dcmitype/StillImage" /></cc:Work></rdf:RDF></metadata><defs
     id="defs6"><clipPath
       id="clipPath42"
       clipPathUnits="userSpaceOnUse"><path
         id="path44"
         d="M 0,612 792,612 792,0 0,0 0,612 Z" /></clipPath></defs><g
     transform="matrix(1.25,0,0,-1.25,0,765)"
     id="g10"><g
       transform="translate(92.6318,377.4546)"
       id="g12"><path
         id="path14"
         style="fill:#ffffff;fill-opacity:1;fill-rule:nonzero;stroke:none"
         d="m 0,0 0,-33.783 -34.636,0 -18.779,-17.314 53.415,0 0,-33.781 18.78,0 L 18.78,0 0,0 Z" /></g><path
       id="path16"
       style="fill:#ffffff;fill-opacity:1;fill-rule:nonzero;stroke:none"
       d="m 57.996,343.67 -18.779,0 0,33.783 18.779,0 0,-33.783 z" /><g
       transform="translate(39.2168,326.3574)"
       id="g18"><path
         id="path20"
         style="fill:#ffffff;fill-opacity:1;fill-rule:nonzero;stroke:none"
         d="m 0,0 18.779,-2.103 0,-31.678 L 0,-33.781 0,0 Z" /></g><g
       transform="translate(289.8525,377.4687)"
       id="g22"><path
         id="path24"
         style="fill:#ffffff;fill-opacity:1;fill-rule:nonzero;stroke:none"
         d="m 0,0 18.779,0 0,-67.821 0,-17.072 L 0,-67.821 0,0 Z" /></g><g
       transform="translate(310.7417,309.6479)"
       id="g26"><path
         id="path28"
         style="fill:#ffffff;fill-opacity:1;fill-rule:nonzero;stroke:none"
         d="m 0,0 40.454,0 0,-17.072 -42.564,0 L 0,0 Z" /></g><g
       transform="translate(569.9375,377.4687)"
       id="g30"><path
         id="path32"
         style="fill:#ffffff;fill-opacity:1;fill-rule:nonzero;stroke:none"
         d="M 0,0 -20.861,-56.198 -13.867,-84.893 20.209,0 0,0 Z" /></g><g
       transform="translate(548.0195,318.4272)"
       id="g34"><path
         id="path36"
         style="fill:#ffffff;fill-opacity:1;fill-rule:nonzero;stroke:none"
         d="m 0,0 -21.913,59.042 -20.703,0 34.081,-84.895 16.584,0 L 0,0 Z" /></g><g
       id="g38"><g
         clip-path="url(#clipPath42)"
         id="g40"><g
           transform="translate(208.9731,265.7256)"
           id="g46"><path
             id="path48"
             style="fill:#ffffff;fill-opacity:1;fill-rule:nonzero;stroke:none"
             d="m 0,0 10.009,0 c 2.099,0 4.027,-0.341 5.774,-1.017 1.758,-0.675 3.26,-1.62 4.525,-2.818 1.27,-1.204 2.245,-2.616 2.929,-4.241 0.697,-1.626 1.046,-3.383 1.046,-5.271 l 0,-0.08 c 0,-1.895 -0.349,-3.657 -1.046,-5.298 -0.684,-1.633 -1.659,-3.052 -2.929,-4.251 -1.265,-1.199 -2.767,-2.146 -4.525,-2.836 -1.747,-0.699 -3.675,-1.042 -5.774,-1.042 L 0,-26.854 0,0 Z m 9.971,-22.592 c 1.401,0 2.683,0.226 3.84,0.673 1.145,0.452 2.123,1.081 2.932,1.887 0.812,0.814 1.433,1.775 1.879,2.892 0.444,1.113 0.671,2.331 0.671,3.637 l 0,0.076 c 0,1.311 -0.227,2.53 -0.671,3.661 -0.446,1.13 -1.067,2.096 -1.879,2.909 -0.809,0.809 -1.787,1.444 -2.932,1.905 -1.157,0.459 -2.439,0.695 -3.84,0.695 l -5.289,0 0,-18.335 5.289,0 z" /></g><g
           transform="translate(247.9478,238.4189)"
           id="g50"><path
             id="path52"
             style="fill:#ffffff;fill-opacity:1;fill-rule:nonzero;stroke:none"
             d="m 0,0 c -1.538,0 -2.966,0.265 -4.278,0.818 -1.319,0.556 -2.461,1.3 -3.418,2.247 -0.953,0.944 -1.705,2.058 -2.245,3.335 -0.538,1.28 -0.8,2.633 -0.8,4.071 l 0,0.071 c 0,1.464 0.275,2.825 0.818,4.104 0.553,1.281 1.307,2.4 2.265,3.358 0.962,0.96 2.104,1.72 3.41,2.282 1.325,0.567 2.761,0.846 4.321,0.846 1.563,0 2.999,-0.277 4.311,-0.825 1.32,-0.551 2.459,-1.308 3.419,-2.267 0.957,-0.963 1.708,-2.068 2.239,-3.336 0.541,-1.268 0.814,-2.627 0.814,-4.085 l 0,-0.077 C 10.856,9.107 10.579,7.76 10.026,6.477 9.477,5.199 8.722,4.081 7.767,3.121 6.805,2.162 5.66,1.4 4.327,0.837 2.994,0.275 1.56,0 0,0 m 0.073,4.023 c 0.939,0 1.781,0.168 2.529,0.513 C 3.359,4.884 4,5.347 4.533,5.937 5.066,6.524 5.471,7.208 5.755,7.997 6.029,8.774 6.167,9.6 6.167,10.471 l 0,0.071 c 0,0.893 -0.154,1.742 -0.45,2.538 C 5.411,13.867 4.984,14.556 4.433,15.147 3.887,15.735 3.25,16.203 2.494,16.548 1.749,16.887 0.911,17.064 0,17.064 c -0.919,0 -1.757,-0.177 -2.502,-0.516 -0.748,-0.345 -1.395,-0.805 -1.927,-1.383 -0.533,-0.58 -0.939,-1.263 -1.221,-2.051 -0.275,-0.794 -0.423,-1.62 -0.423,-2.495 l 0,-0.077 c 0,-0.892 0.156,-1.733 0.456,-2.511 0.309,-0.782 0.738,-1.47 1.286,-2.075 0.543,-0.598 1.2,-1.072 1.949,-1.42 0.749,-0.345 1.568,-0.513 2.455,-0.513" /></g><g
           transform="translate(271.7544,238.4521)"
           id="g54"><path
             id="path56"
             style="fill:#ffffff;fill-opacity:1;fill-rule:nonzero;stroke:none"
             d="m 0,0 c -1.21,0 -2.371,0.231 -3.499,0.686 -1.123,0.467 -2.123,1.141 -2.994,2.038 -0.866,0.9 -1.566,1.992 -2.109,3.298 -0.532,1.302 -0.799,2.8 -0.799,4.485 l 0,0.079 c 0,1.688 0.258,3.186 0.779,4.487 0.524,1.303 1.225,2.406 2.088,3.301 0.868,0.892 1.871,1.574 3.009,2.034 1.131,0.457 2.294,0.691 3.504,0.691 1.649,0 3.028,-0.358 4.129,-1.077 1.09,-0.716 2.011,-1.546 2.75,-2.493 l 0,10.894 4.684,0 0,-28.003 -4.684,0 0.043,3.377 C 6.153,2.748 5.233,1.854 4.124,1.115 3.007,0.371 1.628,0 0,0 m 1.092,4.03 c 0.755,0 1.494,0.151 2.21,0.453 0.718,0.315 1.343,0.751 1.872,1.33 0.538,0.572 0.962,1.255 1.29,2.05 0.318,0.795 0.472,1.679 0.472,2.644 l 0,0.079 c 0,0.973 -0.154,1.863 -0.472,2.666 -0.328,0.808 -0.752,1.49 -1.29,2.052 -0.529,0.564 -1.154,0.998 -1.872,1.307 -0.716,0.305 -1.455,0.455 -2.21,0.455 -0.79,0 -1.539,-0.141 -2.242,-0.434 -0.698,-0.304 -1.324,-0.729 -1.857,-1.284 -0.531,-0.568 -0.951,-1.252 -1.255,-2.056 -0.309,-0.805 -0.462,-1.709 -0.462,-2.706 l 0,-0.079 c 0,-0.965 0.153,-1.854 0.462,-2.666 0.304,-0.804 0.724,-1.487 1.255,-2.05 C -2.474,5.234 -1.848,4.798 -1.15,4.483 -0.447,4.181 0.302,4.03 1.092,4.03" /></g><path
           id="path58"
           style="fill:#ffffff;fill-opacity:1;fill-rule:nonzero;stroke:none"
           d="m 291.53,266.643 5.025,0 0,-4.406 -5.025,0 0,4.406 z m 0.197,-7.516 4.674,0 0,-20.255 -4.674,0 0,20.255 z" /><path
           id="path60"
           style="fill:#ffffff;fill-opacity:1;fill-rule:nonzero;stroke:none"
           d="m 302.194,244.131 5.104,0 0,-5.259 -5.104,0 0,5.259 z" /><path
           id="path62"
           style="fill:#ffffff;fill-opacity:1;fill-rule:nonzero;stroke:none"
           d="m 325.43,265.726 4.677,0 0,-26.854 -4.677,0 0,26.854 z" /><g
           transform="translate(345.6826,232.6572)"
           id="g64"><path
             id="path66"
             style="fill:#ffffff;fill-opacity:1;fill-rule:nonzero;stroke:none"
             d="m 0,0 c -3.373,0 -6.399,0.801 -9.046,2.397 l 1.72,3.475 c 1.07,-0.663 2.196,-1.194 3.375,-1.577 1.17,-0.382 2.456,-0.574 3.835,-0.574 2.079,0 3.656,0.531 4.753,1.582 1.106,1.054 1.655,2.611 1.655,4.663 l 0,1.585 C 5.449,10.455 4.464,9.554 3.337,8.868 2.215,8.175 0.812,7.829 -0.842,7.829 c -1.203,0 -2.353,0.217 -3.453,0.651 -1.098,0.437 -2.082,1.054 -2.934,1.866 -0.858,0.8 -1.538,1.791 -2.05,2.968 -0.517,1.177 -0.769,2.51 -0.769,3.989 l 0,0.076 c 0,1.479 0.252,2.818 0.769,4.012 0.512,1.185 1.192,2.182 2.05,2.986 0.852,0.812 1.841,1.423 2.952,1.862 1.111,0.439 2.256,0.655 3.435,0.655 1.712,0 3.126,-0.34 4.239,-1.02 C 4.511,25.2 5.462,24.386 6.253,23.44 l 0,3.03 4.64,0 0,-16.112 C 10.893,6.983 10.038,4.437 8.321,2.721 7.407,1.808 6.246,1.12 4.851,0.678 3.462,0.229 1.841,0 0,0 m 0.386,11.743 c 0.79,0 1.555,0.134 2.28,0.403 0.731,0.265 1.366,0.648 1.899,1.151 0.535,0.496 0.971,1.082 1.287,1.763 0.319,0.677 0.474,1.421 0.474,2.243 l 0,0.076 c 0,0.846 -0.155,1.602 -0.474,2.283 -0.316,0.677 -0.752,1.265 -1.287,1.76 -0.533,0.502 -1.168,0.888 -1.899,1.154 -0.725,0.265 -1.49,0.404 -2.28,0.404 -0.819,0 -1.573,-0.139 -2.264,-0.404 C -2.57,22.31 -3.18,21.93 -3.703,21.442 -4.221,20.956 -4.635,20.378 -4.923,19.7 -5.219,19.021 -5.369,18.265 -5.369,17.421 l 0,-0.08 c 0,-0.844 0.157,-1.604 0.458,-2.281 0.311,-0.681 0.719,-1.267 1.232,-1.763 0.506,-0.503 1.118,-0.886 1.816,-1.151 0.703,-0.269 1.452,-0.403 2.249,-0.403" /></g><g
           transform="translate(362.8447,259.127)"
           id="g68"><path
             id="path70"
             style="fill:#ffffff;fill-opacity:1;fill-rule:nonzero;stroke:none"
             d="m 0,0 4.679,0 0,-4.562 c 0.646,1.531 1.553,2.761 2.729,3.679 1.178,0.921 2.66,1.346 4.446,1.269 l 0,-4.911 -0.27,0 C 10.566,-4.525 9.631,-4.69 8.786,-5.027 7.943,-5.361 7.207,-5.855 6.599,-6.523 5.982,-7.187 5.512,-8.018 5.181,-9.03 4.848,-10.043 4.679,-11.217 4.679,-12.542 l 0,-7.711 -4.679,0 L 0,0 Z" /></g><g
           transform="translate(390.5249,238.8721)"
           id="g72"><path
             id="path74"
             style="fill:#ffffff;fill-opacity:1;fill-rule:nonzero;stroke:none"
             d="M 0,0 0,2.496 C -0.696,1.674 -1.574,0.984 -2.65,0.429 -3.726,-0.143 -5.023,-0.42 -6.567,-0.42 c -0.967,0 -1.893,0.136 -2.755,0.406 -0.868,0.267 -1.634,0.661 -2.285,1.184 -0.653,0.531 -1.172,1.179 -1.575,1.958 -0.394,0.779 -0.59,1.686 -0.59,2.7 l 0,0.079 c 0,1.127 0.196,2.106 0.615,2.938 0.406,0.825 0.966,1.519 1.706,2.069 0.722,0.55 1.595,0.963 2.61,1.227 1.012,0.27 2.099,0.401 3.277,0.401 1.226,0 2.272,-0.073 3.125,-0.228 0.853,-0.153 1.677,-0.356 2.481,-0.615 l 0,0.387 c 0,1.406 -0.436,2.481 -1.292,3.222 -0.855,0.739 -2.087,1.115 -3.699,1.115 -1.154,0 -2.176,-0.121 -3.07,-0.345 -0.89,-0.237 -1.803,-0.541 -2.725,-0.927 l -1.266,3.72 c 1.13,0.516 2.279,0.924 3.453,1.233 1.177,0.304 2.593,0.463 4.262,0.463 3.013,0 5.247,-0.754 6.704,-2.245 1.463,-1.505 2.185,-3.603 2.185,-6.312 L 4.594,0 0,0 Z m 0.118,8.479 c -0.584,0.229 -1.29,0.421 -2.098,0.579 -0.808,0.147 -1.645,0.226 -2.548,0.226 -1.457,0 -2.597,-0.281 -3.42,-0.846 -0.815,-0.556 -1.219,-1.326 -1.219,-2.3 l 0,-0.075 c 0,-0.974 0.374,-1.712 1.132,-2.223 0.755,-0.517 1.676,-0.77 2.782,-0.77 0.761,0 1.47,0.101 2.124,0.307 0.649,0.208 1.22,0.493 1.706,0.866 0.49,0.371 0.864,0.814 1.136,1.338 0.265,0.526 0.405,1.107 0.405,1.748 l 0,1.15 z" /></g><g
           transform="translate(399.3975,232.6191)"
           id="g76"><path
             id="path78"
             style="fill:#ffffff;fill-opacity:1;fill-rule:nonzero;stroke:none"
             d="M 0,0 C -0.447,0 -0.831,0.018 -1.177,0.059 -1.524,0.099 -1.87,0.143 -2.228,0.19 l 0,3.728 c 0.457,-0.08 0.876,-0.114 1.285,-0.114 0.658,0 1.188,0.185 1.578,0.55 0.392,0.375 0.586,1.005 0.586,1.899 l 0,20.255 4.682,0 0,-20.52 C 5.903,3.918 5.401,2.399 4.391,1.437 3.375,0.482 1.912,0 0,0 m 1.032,34.022 5.026,0 0,-4.406 -5.026,0 0,4.406 z" /></g><path
           id="path80"
           style="fill:#ffffff;fill-opacity:1;fill-rule:nonzero;stroke:none"
           d="m 411.132,244.131 5.109,0 0,-5.259 -5.109,0 0,5.259 z" /><g
           transform="translate(434.4385,265.7256)"
           id="g82"><path
             id="path84"
             style="fill:#ffffff;fill-opacity:1;fill-rule:nonzero;stroke:none"
             d="m 0,0 10.587,0 c 1.564,0 2.979,-0.211 4.243,-0.636 1.266,-0.418 2.332,-1.025 3.223,-1.82 0.884,-0.788 1.552,-1.734 2.027,-2.837 0.48,-1.098 0.709,-2.326 0.709,-3.683 l 0,-0.076 c 0,-1.508 -0.278,-2.834 -0.846,-3.969 -0.562,-1.145 -1.334,-2.087 -2.304,-2.86 -0.975,-0.765 -2.118,-1.35 -3.415,-1.744 -1.314,-0.396 -2.713,-0.595 -4.196,-0.595 l -5.35,0 0,-8.634 -4.678,0 L 0,0 Z m 10.184,-13.963 c 1.795,0 3.214,0.446 4.257,1.348 1.038,0.902 1.557,2.055 1.557,3.465 l 0,0.079 c 0,1.589 -0.525,2.793 -1.577,3.597 -1.054,0.811 -2.466,1.217 -4.237,1.217 l -5.506,0 0,-9.706 5.506,0 z" /></g><g
           transform="translate(468.8232,238.4189)"
           id="g86"><path
             id="path88"
             style="fill:#ffffff;fill-opacity:1;fill-rule:nonzero;stroke:none"
             d="m 0,0 c -1.539,0 -2.969,0.265 -4.281,0.818 -1.319,0.556 -2.453,1.3 -3.411,2.247 -0.96,0.944 -1.709,2.058 -2.243,3.335 -0.54,1.28 -0.812,2.633 -0.812,4.071 l 0,0.071 c 0,1.464 0.277,2.825 0.822,4.104 0.56,1.281 1.306,2.4 2.267,3.358 0.962,0.96 2.096,1.72 3.413,2.282 1.314,0.567 2.757,0.846 4.314,0.846 1.562,0 2.996,-0.277 4.322,-0.825 1.311,-0.551 2.451,-1.308 3.412,-2.267 0.956,-0.963 1.7,-2.068 2.242,-3.336 0.533,-1.268 0.808,-2.627 0.808,-4.085 l 0,-0.077 C 10.853,9.107 10.567,7.76 10.024,6.477 9.474,5.199 8.721,4.081 7.764,3.121 6.802,2.162 5.655,1.4 4.328,0.837 3.005,0.275 1.552,0 0,0 m 0.069,4.023 c 0.938,0 1.787,0.168 2.541,0.513 0.743,0.348 1.388,0.811 1.921,1.401 0.535,0.587 0.937,1.271 1.217,2.06 0.278,0.777 0.423,1.603 0.423,2.474 l 0,0.071 c 0,0.893 -0.149,1.742 -0.461,2.538 C 5.404,13.867 4.979,14.556 4.437,15.147 3.889,15.735 3.24,16.203 2.489,16.548 1.74,16.887 0.912,17.064 0,17.064 c -0.921,0 -1.75,-0.177 -2.501,-0.516 -0.752,-0.345 -1.392,-0.805 -1.925,-1.383 -0.534,-0.58 -0.94,-1.263 -1.221,-2.051 -0.285,-0.794 -0.425,-1.62 -0.425,-2.495 l 0,-0.077 c 0,-0.892 0.161,-1.733 0.465,-2.511 0.304,-0.782 0.736,-1.47 1.272,-2.075 0.549,-0.598 1.189,-1.072 1.946,-1.42 0.754,-0.345 1.57,-0.513 2.458,-0.513" /></g><g
           transform="translate(484.1982,266.875)"
           id="g90"><path
             id="path92"
             style="fill:#ffffff;fill-opacity:1;fill-rule:nonzero;stroke:none"
             d="m 0,0 4.686,0 0,-16.721 8.401,8.973 5.642,0 -8.065,-8.246 8.327,-12.009 -5.367,0 -6.097,8.749 -2.841,-2.954 0,-5.795 -4.686,0 L 0,0 Z" /></g><path
           id="path94"
           style="fill:#ffffff;fill-opacity:1;fill-rule:nonzero;stroke:none"
           d="m 506.437,266.643 5.031,0 0,-4.406 -5.031,0 0,4.406 z m 0.193,-7.516 4.681,0 0,-20.255 -4.681,0 0,20.255 z" /><g
           transform="translate(525.4414,238.4521)"
           id="g96"><path
             id="path98"
             style="fill:#ffffff;fill-opacity:1;fill-rule:nonzero;stroke:none"
             d="m 0,0 c -1.201,0 -2.364,0.231 -3.487,0.686 -1.125,0.467 -2.123,1.141 -2.988,2.038 -0.878,0.9 -1.574,1.992 -2.11,3.298 -0.543,1.302 -0.807,2.8 -0.807,4.485 l 0,0.079 c 0,1.688 0.259,3.186 0.789,4.487 0.516,1.303 1.207,2.406 2.081,3.301 0.863,0.892 1.866,1.574 3,2.034 1.132,0.457 2.307,0.691 3.506,0.691 1.651,0 3.025,-0.358 4.134,-1.077 1.092,-0.716 2.007,-1.546 2.753,-2.493 l 0,10.894 4.676,0 0,-28.003 -4.676,0 0.034,3.377 C 6.166,2.748 5.234,1.854 4.129,1.115 3.009,0.371 1.635,0 0,0 m 1.097,4.03 c 0.764,0 1.508,0.151 2.219,0.453 0.709,0.315 1.338,0.751 1.876,1.33 0.537,0.572 0.954,1.255 1.271,2.05 0.322,0.795 0.487,1.679 0.487,2.644 l 0,0.079 c 0,0.973 -0.165,1.863 -0.487,2.666 -0.317,0.808 -0.734,1.49 -1.271,2.052 -0.538,0.564 -1.167,0.998 -1.876,1.307 -0.711,0.305 -1.455,0.455 -2.219,0.455 -0.79,0 -1.537,-0.141 -2.241,-0.434 -0.7,-0.304 -1.315,-0.729 -1.846,-1.284 -0.535,-0.568 -0.954,-1.252 -1.262,-2.056 -0.307,-0.805 -0.465,-1.709 -0.465,-2.706 l 0,-0.079 c 0,-0.965 0.158,-1.854 0.465,-2.666 C -3.944,7.037 -3.525,6.354 -2.99,5.791 -2.459,5.234 -1.844,4.798 -1.144,4.483 -0.44,4.181 0.307,4.03 1.097,4.03" /></g><g
           transform="translate(555.0674,238.8721)"
           id="g100"><path
             id="path102"
             style="fill:#ffffff;fill-opacity:1;fill-rule:nonzero;stroke:none"
             d="M 0,0 0,2.496 C -0.69,1.674 -1.58,0.984 -2.646,0.429 -3.716,-0.143 -5.025,-0.42 -6.56,-0.42 c -0.972,0 -1.888,0.136 -2.76,0.406 -0.867,0.267 -1.63,0.661 -2.284,1.184 -0.642,0.531 -1.169,1.179 -1.574,1.958 -0.396,0.779 -0.59,1.686 -0.59,2.7 l 0,0.079 c 0,1.127 0.2,2.106 0.603,2.938 0.416,0.825 0.982,1.519 1.717,2.069 0.724,0.55 1.594,0.963 2.61,1.227 1.006,0.27 2.107,0.401 3.279,0.401 1.221,0 2.268,-0.073 3.128,-0.228 0.851,-0.153 1.676,-0.356 2.471,-0.615 l 0,0.387 c 0,1.406 -0.434,2.481 -1.29,3.222 -0.853,0.739 -2.084,1.115 -3.699,1.115 -1.149,0 -2.174,-0.121 -3.073,-0.345 -0.889,-0.237 -1.801,-0.541 -2.717,-0.927 l -1.273,3.72 c 1.13,0.516 2.283,0.924 3.458,1.233 1.172,0.304 2.596,0.463 4.257,0.463 3.023,0 5.255,-0.754 6.71,-2.245 1.463,-1.505 2.186,-3.603 2.186,-6.312 L 4.599,0 0,0 Z M 0.114,8.479 C -0.477,8.708 -1.168,8.9 -1.98,9.058 c -0.8,0.147 -1.649,0.226 -2.543,0.226 -1.462,0 -2.6,-0.281 -3.417,-0.846 -0.822,-0.556 -1.231,-1.326 -1.231,-2.3 l 0,-0.075 c 0,-0.974 0.374,-1.712 1.138,-2.223 0.757,-0.517 1.674,-0.77 2.778,-0.77 0.773,0 1.482,0.101 2.127,0.307 0.652,0.208 1.224,0.493 1.709,0.866 0.489,0.371 0.857,0.814 1.133,1.338 0.266,0.526 0.4,1.107 0.4,1.748 l 0,1.15 z" /></g><g
           transform="translate(565.0029,232.6191)"
           id="g104"><path
             id="path106"
             style="fill:#ffffff;fill-opacity:1;fill-rule:nonzero;stroke:none"
             d="m 0,0 c -0.435,0 -0.821,0.018 -1.169,0.059 -0.345,0.04 -0.69,0.084 -1.051,0.131 l 0,3.728 c 0.452,-0.08 0.883,-0.114 1.289,-0.114 0.656,0 1.185,0.185 1.576,0.55 0.391,0.375 0.585,1.005 0.585,1.899 l 0,20.255 4.677,0 0,-20.52 C 5.907,3.918 5.408,2.399 4.396,1.437 3.385,0.482 1.927,0 0,0 m 1.041,34.022 5.028,0 0,-4.406 -5.028,0 0,4.406 z" /></g><path
           id="path108"
           style="fill:#ffffff;fill-opacity:1;fill-rule:nonzero;stroke:none"
           d="m 576.751,244.131 5.104,0 0,-5.259 -5.104,0 0,5.259 z" /><path
           id="path110"
           style="fill:#ffffff;fill-opacity:1;fill-rule:nonzero;stroke:none"
           d="m 275.415,262.749 11.079,0 0,-2.751 -11.079,0 0,2.751 z" /><g
           transform="translate(241.0376,379.168)"
           id="g112"><path
             id="path114"
             style="fill:#ffffff;fill-opacity:1;fill-rule:nonzero;stroke:none"
             d="m 0,0 c -16.812,0 -30.664,-8.114 -38.505,-20.28 2.845,-7.008 4.173,-14.729 3.64,-22.764 l -0.016,-0.286 c -0.268,-4.092 -1.008,-8.033 -2.145,-11.786 0.883,3.512 1.35,7.188 1.35,10.97 l 0,0.243 c 0,7.465 -1.809,14.479 -5.053,20.628 C -48.03,-9.427 -62.679,0 -80.919,0 c -26.342,0 -45.487,-19.88 -45.487,-44.146 l 0,-0.246 c 0,-24.267 18.901,-43.902 45.239,-43.902 16.77,0 30.595,8.071 38.448,20.188 -1.939,4.899 -3.166,10.182 -3.532,15.743 l -0.018,0.285 c -0.392,5.946 0.243,11.717 1.739,17.161 -0.625,-2.98 -0.956,-6.066 -0.956,-9.229 l 0,-0.246 c 0,-7.301 1.713,-14.181 4.826,-20.235 0,0.003 0.002,0.005 0.002,0.006 7.227,-14.068 21.996,-23.673 40.415,-23.673 26.34,0 45.486,19.878 45.486,44.148 l 0,0.243 C 45.243,-19.636 26.341,0 0,0 m -55.308,-44.392 c 0,-14.634 -10.49,-26.583 -25.611,-26.583 -15.123,0 -25.854,12.195 -25.854,26.829 l 0,0.243 c 0,14.634 10.488,26.584 25.606,26.584 15.125,0 25.859,-12.192 25.859,-26.827 l 0,-0.246 z m 80.917,0 C 25.609,-59.026 15.12,-70.975 0,-70.975 c -15.125,0 -25.857,12.195 -25.857,26.829 l 0,0.243 c 0,14.634 10.491,26.584 25.614,26.584 15.121,0 25.852,-12.192 25.852,-26.827 l 0,-0.246 z" /></g><g
           transform="translate(470.0713,379.168)"
           id="g116"><path
             id="path118"
             style="fill:#ffffff;fill-opacity:1;fill-rule:nonzero;stroke:none"
             d="m 0,0 c -16.81,0 -30.663,-8.114 -38.504,-20.28 2.845,-7.008 4.173,-14.729 3.641,-22.764 l -0.016,-0.286 c -0.269,-4.092 -1.008,-8.033 -2.146,-11.786 0.883,3.512 1.35,7.188 1.35,10.97 l 0,0.243 c 0,7.465 -1.809,14.479 -5.054,20.628 C -48.028,-9.427 -62.678,0 -80.919,0 c -26.341,0 -45.486,-19.88 -45.486,-44.146 l 0,-0.246 c 0,-24.267 18.901,-43.902 45.238,-43.902 16.772,0 30.596,8.071 38.448,20.188 -1.938,4.899 -3.165,10.182 -3.532,15.743 l -0.019,0.285 c -0.39,5.946 0.245,11.717 1.741,17.161 -0.625,-2.98 -0.957,-6.066 -0.957,-9.229 l 0,-0.246 c 0,-7.301 1.714,-14.181 4.827,-20.235 0,0.003 0.002,0.005 0.003,0.006 7.226,-14.068 21.995,-23.673 40.414,-23.673 26.339,0 45.486,19.878 45.486,44.148 l 0,0.243 C 45.244,-19.636 26.343,0 0,0 m -55.308,-44.392 c 0,-14.634 -10.49,-26.583 -25.611,-26.583 -15.123,0 -25.854,12.195 -25.854,26.829 l 0,0.243 c 0,14.634 10.49,26.584 25.606,26.584 15.125,0 25.859,-12.192 25.859,-26.827 l 0,-0.246 z m 80.919,0 C 25.611,-59.026 15.12,-70.975 0,-70.975 c -15.122,0 -25.856,12.195 -25.856,26.829 l 0,0.243 c 0,14.634 10.493,26.584 25.614,26.584 15.121,0 25.853,-12.192 25.853,-26.827 l 0,-0.246 z" /></g><g
           transform="translate(706.3828,379.168)"
           id="g120"><path
             id="path122"
             style="fill:#ffffff;fill-opacity:1;fill-rule:nonzero;stroke:none"
             d="m 0,0 c -16.812,0 -30.662,-8.114 -38.503,-20.28 2.845,-7.008 4.171,-14.729 3.64,-22.764 l -0.018,-0.286 c -0.268,-4.092 -1.006,-8.033 -2.143,-11.786 0.883,3.512 1.348,7.188 1.348,10.97 l 0,0.243 c 0,7.465 -1.807,14.479 -5.052,20.628 C -48.028,-9.427 -62.677,0 -80.919,0 c -26.342,0 -45.486,-19.88 -45.486,-44.146 l 0,-0.246 c 0,-24.267 18.902,-43.902 45.238,-43.902 16.771,0 30.595,8.071 38.448,20.188 -1.937,4.899 -3.164,10.182 -3.532,15.743 l -0.018,0.285 c -0.391,5.946 0.245,11.717 1.741,17.161 -0.626,-2.98 -0.956,-6.066 -0.956,-9.229 l 0,-0.246 c 0,-7.301 1.713,-14.181 4.826,-20.235 0,0.003 0.002,0.005 0.003,0.006 7.226,-14.068 21.995,-23.673 40.414,-23.673 26.34,0 45.486,19.878 45.486,44.148 l 0,0.243 C 45.245,-19.636 26.343,0 0,0 m -55.307,-44.392 c 0,-14.634 -10.491,-26.583 -25.612,-26.583 -15.122,0 -25.854,12.195 -25.854,26.829 l 0,0.243 c 0,14.634 10.49,26.584 25.606,26.584 15.126,0 25.86,-12.192 25.86,-26.827 l 0,-0.246 z m 80.918,0 c 0,-14.634 -10.49,-26.583 -25.611,-26.583 -15.123,0 -25.857,12.195 -25.857,26.829 l 0,0.243 c 0,14.634 10.491,26.584 25.616,26.584 15.12,0 25.852,-12.192 25.852,-26.827 l 0,-0.246 z" /></g></g></g></g></svg>