<?xml version="1.0" encoding="UTF-8" standalone="no"?>
<svg
   xmlns:dc="http://purl.org/dc/elements/1.1/"
   xmlns:cc="http://creativecommons.org/ns#"
   xmlns:rdf="http://www.w3.org/1999/02/22-rdf-syntax-ns#"
   xmlns:svg="http://www.w3.org/2000/svg"
   xmlns="http://www.w3.org/2000/svg"
   viewBox="0 0 990 765"
   height="765"
   width="990"
   xml:space="preserve"
   version="1.1"
   id="svg2"><metadata
     id="metadata8"><rdf:RDF><cc:Work
         rdf:about=""><dc:format>image/svg+xml</dc:format><dc:type
           rdf:resource="http://purl.org/dc/dcmitype/StillImage" /></cc:Work></rdf:RDF></metadata><defs
     id="defs6"><clipPath
       id="clipPath30"
       clipPathUnits="userSpaceOnUse"><path
         id="path32"
         d="M 0,612 792,612 792,0 0,0 0,612 Z" /></clipPath></defs><g
     transform="matrix(1.25,0,0,-1.25,0,765)"
     id="g10"><g
       transform="translate(63.9053,384.3848)"
       id="g12"><path
         id="path14"
         style="fill:#66b551;fill-opacity:1;fill-rule:nonzero;stroke:none"
         d="m 0,0 0,-37.004 -37.94,0 -20.571,-18.967 58.511,0 0,-37.004 20.571,0 L 20.571,0 0,0 Z" /></g><path
       id="path16"
       style="fill:#66b551;fill-opacity:1;fill-rule:nonzero;stroke:none"
       d="m 25.965,347.381 -20.57,0 0,37.004 20.57,0 0,-37.004 z" /><path
       id="path18"
       style="fill:#2da454;fill-opacity:1;fill-rule:nonzero;stroke:none"
       d="m 5.394,328.414 20.57,0 0,-37.004 -20.57,0 0,37.004 z" /><g
       transform="translate(279.9395,384.3999)"
       id="g20"><path
         id="path22"
         style="fill:#66b551;fill-opacity:1;fill-rule:nonzero;stroke:none"
         d="m 0,0 20.57,0 0,-74.289 0,-18.701 L 0,-74.289 0,0 Z" /></g><path
       id="path24"
       style="fill:#2da454;fill-opacity:1;fill-rule:nonzero;stroke:none"
       d="m 300.51,310.111 46.623,0 0,-18.701 -46.623,0 0,18.701 z" /><g
       id="g26"><g
         clip-path="url(#clipPath30)"
         id="g28"><g
           transform="translate(597.7393,337.6309)"
           id="g34"><path
             id="path36"
             style="fill:#66b551;fill-opacity:1;fill-rule:nonzero;stroke:none"
             d="m 0,0 0,0.268 c 0,26.582 20.972,48.357 49.826,48.357 28.855,0 49.561,-21.51 49.561,-48.09 l 0,-0.267 c 0,-26.584 -20.972,-48.36 -49.83,-48.36 C 20.704,-48.092 0,-26.584 0,0 m 77.88,0 0,0.268 c 0,16.031 -11.756,29.386 -28.323,29.386 -16.562,0 -28.052,-13.091 -28.052,-29.119 l 0,-0.267 c 0,-16.03 11.756,-29.391 28.321,-29.391 16.564,0 28.054,13.092 28.054,29.123" /></g><g
           transform="translate(88.002,337.6309)"
           id="g38"><path
             id="path40"
             style="fill:#66b551;fill-opacity:1;fill-rule:nonzero;stroke:none"
             d="m 0,0 0,0.266 c 0,26.586 20.976,48.359 49.828,48.359 28.858,0 49.563,-21.508 49.563,-48.092 l 0,-0.267 c 0,-26.582 -20.974,-48.358 -49.827,-48.358 C 20.708,-48.092 0,-26.584 0,0 m 77.882,0 0,0.266 c 0,16.031 -11.754,29.39 -28.318,29.39 -16.567,0 -28.055,-13.094 -28.055,-29.123 l 0,-0.267 c 0,-16.028 11.758,-29.387 28.319,-29.387 16.565,0 28.054,13.09 28.054,29.121" /></g><g
           transform="translate(176.6338,337.6309)"
           id="g42"><path
             id="path44"
             style="fill:#66b551;fill-opacity:1;fill-rule:nonzero;stroke:none"
             d="m 0,0 0,0.268 c 0,26.582 20.974,48.357 49.828,48.357 28.855,0 49.561,-21.51 49.561,-48.09 l 0,-0.267 c 0,-26.584 -20.972,-48.36 -49.829,-48.36 C 20.706,-48.092 0,-26.584 0,0 m 77.882,0 0,0.268 c 0,16.031 -11.758,29.386 -28.322,29.386 -16.563,0 -28.051,-13.091 -28.051,-29.119 l 0,-0.267 c 0,-16.03 11.756,-29.391 28.319,-29.391 16.568,0 28.054,13.092 28.054,29.123" /></g><g
           transform="translate(176.6338,337.6309)"
           id="g46"><path
             id="path48"
             style="fill:#2da454;fill-opacity:1;fill-rule:nonzero;stroke:none"
             d="m 0,0 c 0,-8.002 1.89,-15.537 5.299,-22.172 3.514,6.719 5.46,14.352 5.46,22.438 l 0,0.267 C 10.759,8.535 8.873,16.07 5.462,22.705 1.952,15.986 0,8.352 0,0.268 L 0,0 Z" /></g><g
           transform="translate(338.8828,337.6309)"
           id="g50"><path
             id="path52"
             style="fill:#66b551;fill-opacity:1;fill-rule:nonzero;stroke:none"
             d="m 0,0 0,0.268 c 0,26.582 20.974,48.357 49.826,48.357 28.857,0 49.565,-21.51 49.565,-48.09 l 0,-0.267 c 0,-26.584 -20.976,-48.36 -49.83,-48.36 C 20.704,-48.092 0,-26.584 0,0 m 77.883,0 0,0.268 c 0,16.031 -11.759,29.386 -28.322,29.386 -16.564,0 -28.052,-13.091 -28.052,-29.119 l 0,-0.267 c 0,-16.03 11.752,-29.391 28.317,-29.391 16.568,0 28.057,13.092 28.057,29.123" /></g><g
           transform="translate(427.5205,337.6309)"
           id="g54"><path
             id="path56"
             style="fill:#66b551;fill-opacity:1;fill-rule:nonzero;stroke:none"
             d="m 0,0 0,0.268 c 0,26.582 20.972,48.357 49.828,48.357 28.855,0 49.561,-21.51 49.561,-48.09 l 0,-0.267 c 0,-26.584 -20.974,-48.36 -49.83,-48.36 C 20.706,-48.092 0,-26.584 0,0 m 77.882,0 0,0.268 c 0,16.031 -11.758,29.386 -28.323,29.386 -16.562,0 -28.052,-13.091 -28.052,-29.119 l 0,-0.267 c 0,-16.03 11.754,-29.391 28.321,-29.391 16.564,0 28.054,13.092 28.054,29.123" /></g><g
           transform="translate(427.5205,337.6309)"
           id="g58"><path
             id="path60"
             style="fill:#2da454;fill-opacity:1;fill-rule:nonzero;stroke:none"
             d="m 0,0 c 0,-7.998 1.89,-15.531 5.295,-22.166 3.51,6.719 5.458,14.35 5.458,22.434 l 0,0.267 c 0,7.998 -1.885,15.528 -5.295,22.162 C 1.948,15.979 0,8.35 0,0.268 L 0,0 Z" /></g><g
           transform="translate(686.377,337.6309)"
           id="g62"><path
             id="path64"
             style="fill:#66b551;fill-opacity:1;fill-rule:nonzero;stroke:none"
             d="m 0,0 0,0.268 c 0,26.582 20.972,48.357 49.826,48.357 28.857,0 49.561,-21.51 49.561,-48.09 l 0,-0.267 c 0,-26.584 -20.972,-48.36 -49.826,-48.36 C 20.704,-48.092 0,-26.584 0,0 m 77.882,0 0,0.268 c 0,16.031 -11.758,29.386 -28.321,29.386 -16.564,0 -28.057,-13.091 -28.057,-29.119 l 0,-0.267 c 0,-16.03 11.757,-29.391 28.322,-29.391 16.564,0 28.056,13.092 28.056,29.123" /></g><g
           transform="translate(686.377,337.6309)"
           id="g66"><path
             id="path68"
             style="fill:#2da454;fill-opacity:1;fill-rule:nonzero;stroke:none"
             d="m 0,0 c 0,-7.998 1.885,-15.531 5.295,-22.164 3.506,6.719 5.454,14.35 5.454,22.432 l 0,0.267 c 0,7.996 -1.886,15.528 -5.291,22.16 C 1.946,15.979 0,8.348 0,0.268 L 0,0 Z" /></g><g
           transform="translate(586.7402,384.3999)"
           id="g70"><path
             id="path72"
             style="fill:#2da454;fill-opacity:1;fill-rule:nonzero;stroke:none"
             d="M 0,0 -24.006,-64.672 -15.189,-92.99 22.14,0 0,0 Z" /></g><g
           transform="translate(562.7344,319.7285)"
           id="g74"><path
             id="path76"
             style="fill:#66b551;fill-opacity:1;fill-rule:nonzero;stroke:none"
             d="m 0,0 -24.006,64.672 -22.678,0 37.332,-92.99 18.168,0 L 0,0 Z" /></g><g
           transform="translate(191.3437,261.999)"
           id="g78"><path
             id="path80"
             style="fill:#838383;fill-opacity:1;fill-rule:nonzero;stroke:none"
             d="m 0,0 10.965,0 c 2.299,0 4.41,-0.373 6.326,-1.115 1.924,-0.74 3.57,-1.775 4.955,-3.084 1.391,-1.322 2.459,-2.867 3.209,-4.648 0.764,-1.781 1.145,-3.705 1.145,-5.774 l 0,-0.086 c 0,-2.076 -0.381,-4.007 -1.145,-5.804 -0.75,-1.791 -1.818,-3.343 -3.209,-4.655 -1.385,-1.316 -3.031,-2.355 -4.955,-3.107 -1.916,-0.766 -4.027,-1.141 -6.326,-1.141 L 0,-29.414 0,0 Z m 10.924,-24.746 c 1.533,0 2.937,0.246 4.205,0.735 1.254,0.494 2.326,1.185 3.213,2.068 0.888,0.891 1.568,1.945 2.058,3.168 0.485,1.217 0.735,2.553 0.735,3.986 l 0,0.082 c 0,1.436 -0.25,2.769 -0.735,4.01 -0.49,1.237 -1.17,2.297 -2.058,3.184 -0.887,0.888 -1.959,1.582 -3.213,2.086 -1.268,0.506 -2.672,0.765 -4.205,0.765 l -5.795,0 0,-20.084 5.795,0 z" /></g><g
           transform="translate(234.0371,232.0869)"
           id="g82"><path
             id="path84"
             style="fill:#838383;fill-opacity:1;fill-rule:nonzero;stroke:none"
             d="m 0,0 c -1.686,0 -3.248,0.29 -4.686,0.896 -1.445,0.61 -2.695,1.423 -3.744,2.462 -1.045,1.035 -1.867,2.252 -2.459,3.654 -0.588,1.401 -0.877,2.884 -0.877,4.457 l 0,0.078 c 0,1.604 0.301,3.098 0.895,4.498 0.607,1.401 1.432,2.627 2.482,3.678 1.055,1.049 2.305,1.883 3.737,2.498 1.449,0.621 3.023,0.926 4.732,0.926 1.711,0 3.285,-0.301 4.721,-0.904 1.447,-0.602 2.695,-1.431 3.748,-2.479 1.047,-1.055 1.871,-2.269 2.451,-3.658 0.592,-1.387 0.891,-2.877 0.891,-4.473 l 0,-0.086 C 11.891,9.979 11.588,8.5 10.984,7.096 10.383,5.694 9.553,4.471 8.508,3.418 7.453,2.368 6.199,1.534 4.738,0.918 3.279,0.303 1.707,0 0,0 m 0.08,4.407 c 1.027,0 1.951,0.187 2.772,0.564 0.828,0.379 1.529,0.885 2.113,1.533 0.584,0.643 1.027,1.392 1.34,2.256 0.298,0.85 0.451,1.756 0.451,2.709 l 0,0.078 c 0,0.979 -0.17,1.909 -0.494,2.782 C 5.926,15.19 5.459,15.944 4.857,16.592 4.258,17.237 3.559,17.75 2.732,18.127 1.914,18.5 0.998,18.692 0,18.692 -1.008,18.692 -1.924,18.5 -2.742,18.127 -3.561,17.75 -4.268,17.243 -4.852,16.612 -5.436,15.979 -5.881,15.229 -6.189,14.364 -6.49,13.495 -6.65,12.59 -6.65,11.633 l 0,-0.086 c 0,-0.978 0.17,-1.898 0.498,-2.748 0.34,-0.859 0.806,-1.612 1.41,-2.275 C -4.148,5.87 -3.43,5.35 -2.609,4.971 -1.789,4.594 -0.893,4.407 0.08,4.407" /></g><g
           transform="translate(260.1152,232.124)"
           id="g86"><path
             id="path88"
             style="fill:#838383;fill-opacity:1;fill-rule:nonzero;stroke:none"
             d="m 0,0 c -1.326,0 -2.598,0.252 -3.832,0.752 -1.232,0.512 -2.326,1.25 -3.279,2.233 -0.95,0.984 -1.717,2.18 -2.311,3.613 -0.584,1.424 -0.877,3.063 -0.877,4.912 l 0,0.086 c 0,1.848 0.283,3.49 0.852,4.916 0.576,1.426 1.343,2.634 2.291,3.615 0.949,0.977 2.049,1.725 3.293,2.227 1.238,0.5 2.513,0.756 3.84,0.756 1.806,0 3.316,-0.391 4.521,-1.178 1.195,-0.785 2.203,-1.695 3.014,-2.732 l 0,11.933 5.131,0 0,-30.672 -5.131,0 0.047,3.698 C 6.74,3.01 5.732,2.03 4.516,1.221 3.293,0.405 1.783,0 0,0 m 1.195,4.413 c 0.827,0 1.639,0.166 2.422,0.5 0.785,0.343 1.469,0.818 2.051,1.455 0.59,0.623 1.053,1.373 1.412,2.244 0.348,0.871 0.516,1.84 0.516,2.898 l 0,0.086 c 0,1.065 -0.168,2.041 -0.516,2.922 -0.359,0.881 -0.822,1.629 -1.412,2.246 -0.582,0.617 -1.266,1.092 -2.051,1.43 -0.783,0.334 -1.595,0.5 -2.422,0.5 -0.865,0 -1.685,-0.156 -2.455,-0.477 -0.765,-0.33 -1.449,-0.797 -2.033,-1.405 -0.584,-0.624 -1.045,-1.372 -1.375,-2.253 -0.34,-0.881 -0.506,-1.871 -0.506,-2.963 l 0,-0.086 c 0,-1.058 0.166,-2.031 0.506,-2.92 0.33,-0.881 0.791,-1.629 1.375,-2.246 0.584,-0.613 1.268,-1.088 2.033,-1.431 0.77,-0.334 1.59,-0.5 2.455,-0.5" /></g><path
           id="path90"
           style="fill:#838383;fill-opacity:1;fill-rule:nonzero;stroke:none"
           d="m 281.775,263.003 5.506,0 0,-4.826 -5.506,0 0,4.826 z m 0.217,-8.233 5.119,0 0,-22.186 -5.119,0 0,22.186 z" /><path
           id="path92"
           style="fill:#838383;fill-opacity:1;fill-rule:nonzero;stroke:none"
           d="m 293.457,238.344 5.592,0 0,-5.76 -5.592,0 0,5.76 z" /><path
           id="path94"
           style="fill:#838383;fill-opacity:1;fill-rule:nonzero;stroke:none"
           d="m 318.91,261.999 5.125,0 0,-29.414 -5.125,0 0,29.414 z" /><g
           transform="translate(341.0957,225.7773)"
           id="g96"><path
             id="path98"
             style="fill:#838383;fill-opacity:1;fill-rule:nonzero;stroke:none"
             d="m 0,0 c -3.695,0 -7.01,0.877 -9.91,2.625 l 1.885,3.808 c 1.171,-0.728 2.406,-1.31 3.697,-1.73 1.281,-0.42 2.689,-0.629 4.201,-0.629 2.275,0 4.004,0.582 5.205,1.734 1.211,1.156 1.813,2.861 1.813,5.106 l 0,1.738 C 5.969,11.449 4.889,10.464 3.654,9.714 2.426,8.953 0.889,8.572 -0.922,8.572 c -1.32,0 -2.58,0.241 -3.785,0.715 -1.201,0.48 -2.279,1.154 -3.213,2.043 -0.939,0.877 -1.684,1.962 -2.246,3.252 -0.564,1.291 -0.842,2.75 -0.842,4.369 l 0,0.084 c 0,1.621 0.278,3.086 0.842,4.396 0.562,1.297 1.307,2.389 2.246,3.27 0.934,0.89 2.018,1.56 3.233,2.039 1.22,0.482 2.472,0.717 3.765,0.717 1.873,0 3.422,-0.372 4.643,-1.116 1.218,-0.738 2.261,-1.631 3.129,-2.666 l 0,3.317 5.08,0 0,-17.645 C 11.93,7.646 10.994,4.859 9.113,2.979 8.111,1.979 6.842,1.225 5.312,0.742 3.791,0.248 2.016,0 0,0 m 0.42,12.861 c 0.867,0 1.705,0.148 2.5,0.443 0.801,0.289 1.494,0.709 2.08,1.259 0.586,0.544 1.062,1.185 1.41,1.931 0.35,0.742 0.52,1.558 0.52,2.457 l 0,0.084 c 0,0.927 -0.17,1.757 -0.52,2.502 -0.348,0.74 -0.824,1.386 -1.41,1.927 -0.586,0.551 -1.279,0.973 -2.08,1.264 -0.795,0.291 -1.633,0.443 -2.5,0.443 -0.895,0 -1.721,-0.152 -2.477,-0.443 -0.759,-0.291 -1.425,-0.707 -2,-1.242 -0.568,-0.533 -1.021,-1.166 -1.336,-1.908 -0.326,-0.743 -0.49,-1.573 -0.49,-2.498 l 0,-0.088 c 0,-0.924 0.172,-1.756 0.504,-2.498 0.34,-0.746 0.787,-1.387 1.348,-1.931 0.554,-0.55 1.224,-0.97 1.99,-1.259 0.77,-0.295 1.59,-0.443 2.461,-0.443" /></g><g
           transform="translate(359.8945,254.7705)"
           id="g100"><path
             id="path102"
             style="fill:#838383;fill-opacity:1;fill-rule:nonzero;stroke:none"
             d="m 0,0 5.125,0 0,-4.998 c 0.707,1.68 1.703,3.024 2.99,4.03 1.287,1.009 2.912,1.476 4.871,1.39 l 0,-5.379 -0.297,0 c -1.115,0 -2.138,-0.183 -3.066,-0.55 C 8.701,-5.873 7.895,-6.414 7.23,-7.146 6.553,-7.871 6.039,-8.783 5.672,-9.894 5.309,-11 5.125,-12.285 5.125,-13.738 l 0,-8.449 -5.125,0 L 0,0 Z" /></g><g
           transform="translate(390.2148,232.585)"
           id="g104"><path
             id="path106"
             style="fill:#838383;fill-opacity:1;fill-rule:nonzero;stroke:none"
             d="M 0,0 0,2.733 C -0.762,1.834 -1.725,1.075 -2.902,0.469 c -1.178,-0.625 -2.6,-0.931 -4.291,-0.931 -1.059,0 -2.073,0.15 -3.018,0.445 -0.951,0.291 -1.791,0.726 -2.502,1.295 -0.717,0.582 -1.285,1.293 -1.728,2.146 -0.43,0.854 -0.645,1.847 -0.645,2.959 l 0,0.086 c 0,1.235 0.215,2.305 0.674,3.219 0.445,0.904 1.058,1.664 1.869,2.264 0.791,0.605 1.746,1.056 2.857,1.345 1.11,0.297 2.299,0.438 3.59,0.438 1.344,0 2.489,-0.08 3.424,-0.248 0.934,-0.168 1.838,-0.389 2.717,-0.674 l 0,0.424 c 0,1.539 -0.477,2.717 -1.414,3.529 -0.938,0.811 -2.285,1.221 -4.051,1.221 -1.264,0 -2.385,-0.131 -3.363,-0.377 -0.977,-0.258 -1.975,-0.592 -2.987,-1.014 l -1.386,4.074 c 1.236,0.563 2.496,1.012 3.783,1.351 1.291,0.333 2.84,0.505 4.668,0.505 3.301,0 5.75,-0.824 7.344,-2.459 C 4.24,18.422 5.031,16.12 5.031,13.153 L 5.031,0 0,0 Z m 0.129,9.284 c -0.641,0.252 -1.414,0.463 -2.299,0.638 -0.883,0.159 -1.803,0.246 -2.789,0.246 -1.596,0 -2.846,-0.308 -3.746,-0.925 -0.895,-0.61 -1.336,-1.453 -1.336,-2.52 l 0,-0.082 c 0,-1.07 0.408,-1.877 1.238,-2.437 0.828,-0.565 1.838,-0.844 3.047,-0.844 0.836,0 1.611,0.113 2.328,0.338 0.711,0.228 1.338,0.539 1.869,0.948 0.538,0.407 0.948,0.892 1.245,1.464 0.291,0.578 0.443,1.215 0.443,1.916 l 0,1.258 z" /></g><g
           transform="translate(399.9336,225.7344)"
           id="g108"><path
             id="path110"
             style="fill:#838383;fill-opacity:1;fill-rule:nonzero;stroke:none"
             d="M 0,0 C -0.488,0 -0.91,0.02 -1.287,0.063 -1.67,0.108 -2.049,0.156 -2.439,0.209 l 0,4.082 c 0.5,-0.088 0.959,-0.127 1.406,-0.127 0.721,0 1.301,0.203 1.728,0.607 0.43,0.41 0.643,1.098 0.643,2.08 l 0,22.184 5.129,0 0,-22.475 C 6.467,4.291 5.916,2.629 4.809,1.576 3.697,0.527 2.096,0 0,0 m 1.131,37.269 5.506,0 0,-4.825 -5.506,0 0,4.825 z" /></g><path
           id="path112"
           style="fill:#838383;fill-opacity:1;fill-rule:nonzero;stroke:none"
           d="m 412.787,238.344 5.596,0 0,-5.76 -5.596,0 0,5.76 z" /><g
           transform="translate(438.3174,261.999)"
           id="g114"><path
             id="path116"
             style="fill:#838383;fill-opacity:1;fill-rule:nonzero;stroke:none"
             d="m 0,0 11.598,0 c 1.713,0 3.263,-0.23 4.648,-0.695 1.387,-0.457 2.553,-1.125 3.528,-1.994 0.97,-0.867 1.703,-1.902 2.224,-3.111 0.523,-1.2 0.776,-2.547 0.776,-4.032 l 0,-0.084 c 0,-1.65 -0.305,-3.105 -0.926,-4.347 -0.619,-1.254 -1.461,-2.289 -2.526,-3.133 -1.068,-0.838 -2.322,-1.479 -3.74,-1.91 -1.439,-0.436 -2.971,-0.654 -4.599,-0.654 l -5.858,0 0,-9.454 -5.125,0 L 0,0 Z m 11.156,-15.296 c 1.967,0 3.522,0.488 4.662,1.478 1.139,0.988 1.704,2.252 1.704,3.795 l 0,0.085 c 0,1.743 -0.573,3.06 -1.727,3.942 -1.152,0.887 -2.699,1.334 -4.639,1.334 l -6.031,0 0,-10.634 6.031,0 z" /></g><g
           transform="translate(475.9814,232.0869)"
           id="g118"><path
             id="path120"
             style="fill:#838383;fill-opacity:1;fill-rule:nonzero;stroke:none"
             d="m 0,0 c -1.687,0 -3.25,0.29 -4.689,0.896 -1.444,0.61 -2.686,1.423 -3.737,2.462 -1.052,1.035 -1.871,2.252 -2.455,3.654 -0.592,1.401 -0.89,2.884 -0.89,4.457 l 0,0.078 c 0,1.604 0.304,3.098 0.9,4.498 0.613,1.401 1.432,2.627 2.484,3.678 1.053,1.049 2.297,1.883 3.739,2.498 1.439,0.621 3.019,0.926 4.726,0.926 1.709,0 3.28,-0.301 4.733,-0.904 1.435,-0.602 2.685,-1.431 3.738,-2.479 1.047,-1.055 1.861,-2.269 2.455,-3.658 0.584,-1.387 0.885,-2.877 0.885,-4.473 l 0,-0.086 C 11.889,9.979 11.578,8.5 10.981,7.096 10.381,5.694 9.553,4.471 8.506,3.418 7.453,2.368 6.195,1.534 4.744,0.918 3.293,0.303 1.701,0 0,0 m 0.078,4.407 c 1.026,0 1.957,0.187 2.783,0.564 0.813,0.379 1.52,0.885 2.104,1.533 0.586,0.643 1.027,1.392 1.334,2.256 0.305,0.85 0.461,1.756 0.461,2.709 l 0,0.078 c 0,0.979 -0.16,1.909 -0.504,2.782 C 5.92,15.19 5.455,15.944 4.861,16.592 4.262,17.237 3.551,17.75 2.729,18.127 1.908,18.5 1,18.692 0,18.692 c -1.008,0 -1.916,-0.192 -2.736,-0.565 -0.826,-0.377 -1.526,-0.884 -2.11,-1.515 -0.586,-0.633 -1.031,-1.383 -1.339,-2.248 -0.311,-0.869 -0.467,-1.774 -0.467,-2.731 l 0,-0.086 c 0,-0.978 0.179,-1.898 0.508,-2.748 0.337,-0.859 0.808,-1.612 1.398,-2.275 0.6,-0.654 1.303,-1.174 2.131,-1.553 0.826,-0.377 1.719,-0.564 2.693,-0.564" /></g><g
           transform="translate(492.8252,263.2568)"
           id="g122"><path
             id="path124"
             style="fill:#838383;fill-opacity:1;fill-rule:nonzero;stroke:none"
             d="m 0,0 5.131,0 0,-18.314 9.203,9.828 6.182,0 -8.834,-9.033 9.121,-13.154 -5.881,0 -6.678,9.582 -3.113,-3.235 0,-6.347 -5.131,0 L 0,0 Z" /></g><path
           id="path126"
           style="fill:#838383;fill-opacity:1;fill-rule:nonzero;stroke:none"
           d="m 517.183,263.003 5.513,0 0,-4.826 -5.513,0 0,4.826 z m 0.213,-8.233 5.129,0 0,-22.186 -5.129,0 0,22.186 z" /><g
           transform="translate(538.0029,232.124)"
           id="g128"><path
             id="path130"
             style="fill:#838383;fill-opacity:1;fill-rule:nonzero;stroke:none"
             d="m 0,0 c -1.314,0 -2.59,0.252 -3.82,0.752 -1.235,0.512 -2.326,1.25 -3.274,2.233 -0.961,0.984 -1.724,2.18 -2.312,3.613 -0.594,1.424 -0.881,3.063 -0.881,4.912 l 0,0.086 c 0,1.848 0.283,3.49 0.861,4.916 0.565,1.426 1.323,2.634 2.28,3.615 0.947,0.977 2.043,1.725 3.287,2.227 1.24,0.5 2.527,0.756 3.838,0.756 1.81,0 3.316,-0.391 4.529,-1.178 1.197,-0.785 2.201,-1.695 3.019,-2.732 l 0,11.933 5.119,0 0,-30.672 -5.119,0 0.036,3.698 C 6.754,3.01 5.733,2.03 4.521,1.221 3.295,0.405 1.789,0 0,0 m 1.201,4.413 c 0.838,0 1.653,0.166 2.43,0.5 0.779,0.343 1.465,0.818 2.055,1.455 0.588,0.623 1.043,1.373 1.392,2.244 0.354,0.871 0.533,1.84 0.533,2.898 l 0,0.086 c 0,1.065 -0.179,2.041 -0.533,2.922 -0.349,0.881 -0.804,1.629 -1.392,2.246 -0.59,0.617 -1.276,1.092 -2.055,1.43 -0.777,0.334 -1.592,0.5 -2.43,0.5 -0.867,0 -1.683,-0.156 -2.453,-0.477 -0.769,-0.33 -1.443,-0.797 -2.025,-1.405 -0.586,-0.624 -1.045,-1.372 -1.381,-2.253 -0.336,-0.881 -0.51,-1.871 -0.51,-2.963 l 0,-0.086 c 0,-1.058 0.174,-2.031 0.51,-2.92 0.336,-0.881 0.795,-1.629 1.381,-2.246 0.582,-0.613 1.256,-1.088 2.025,-1.431 0.77,-0.334 1.586,-0.5 2.453,-0.5" /></g><g
           transform="translate(570.4541,232.585)"
           id="g132"><path
             id="path134"
             style="fill:#838383;fill-opacity:1;fill-rule:nonzero;stroke:none"
             d="M 0,0 0,2.733 C -0.756,1.834 -1.73,1.075 -2.898,0.469 c -1.174,-0.625 -2.606,-0.931 -4.289,-0.931 -1.063,0 -2.067,0.15 -3.024,0.445 -0.947,0.291 -1.785,0.726 -2.5,1.295 -0.705,0.582 -1.281,1.293 -1.726,2.146 -0.432,0.854 -0.643,1.847 -0.643,2.959 l 0,0.086 c 0,1.235 0.217,2.305 0.66,3.219 0.455,0.904 1.076,1.664 1.879,2.264 0.795,0.605 1.746,1.056 2.859,1.345 1.102,0.297 2.309,0.438 3.594,0.438 1.336,0 2.483,-0.08 3.426,-0.248 0.932,-0.168 1.834,-0.389 2.705,-0.674 l 0,0.424 c 0,1.539 -0.475,2.717 -1.412,3.529 -0.934,0.811 -2.283,1.221 -4.051,1.221 -1.258,0 -2.383,-0.131 -3.367,-0.377 -0.975,-0.258 -1.973,-0.592 -2.977,-1.014 l -1.394,4.074 c 1.238,0.563 2.5,1.012 3.789,1.351 1.283,0.333 2.844,0.505 4.662,0.505 3.311,0 5.756,-0.824 7.352,-2.459 1.601,-1.645 2.392,-3.947 2.392,-6.914 L 5.037,0 0,0 Z m 0.125,9.284 c -0.646,0.252 -1.404,0.463 -2.295,0.638 -0.875,0.159 -1.808,0.246 -2.787,0.246 -1.598,0 -2.846,-0.308 -3.74,-0.925 -0.901,-0.61 -1.348,-1.453 -1.348,-2.52 l 0,-0.082 c 0,-1.07 0.408,-1.877 1.244,-2.437 0.83,-0.565 1.836,-0.844 3.043,-0.844 0.848,0 1.623,0.113 2.332,0.338 0.715,0.228 1.34,0.539 1.873,0.948 0.532,0.407 0.938,0.892 1.241,1.464 0.291,0.578 0.437,1.215 0.437,1.916 l 0,1.258 z" /></g><g
           transform="translate(581.3369,225.7344)"
           id="g136"><path
             id="path138"
             style="fill:#838383;fill-opacity:1;fill-rule:nonzero;stroke:none"
             d="M 0,0 C -0.478,0 -0.9,0.02 -1.281,0.063 -1.658,0.108 -2.035,0.156 -2.43,0.209 l 0,4.082 c 0.493,-0.088 0.965,-0.127 1.409,-0.127 0.718,0 1.3,0.203 1.728,0.607 0.428,0.41 0.641,1.098 0.641,2.08 l 0,22.184 5.125,0 0,-22.475 C 6.473,4.291 5.924,2.629 4.813,1.576 3.707,0.527 2.111,0 0,0 m 1.141,37.269 5.507,0 0,-4.825 -5.507,0 0,4.825 z" /></g><path
           id="path140"
           style="fill:#838383;fill-opacity:1;fill-rule:nonzero;stroke:none"
           d="m 594.206,238.344 5.59,0 0,-5.76 -5.59,0 0,5.76 z" /><path
           id="path142"
           style="fill:#838383;fill-opacity:1;fill-rule:nonzero;stroke:none"
           d="m 264.123,258.739 12.137,0 0,-3.017 -12.137,0 0,3.017 z" /></g></g></g></svg>