<svg xmlns="http://www.w3.org/2000/svg" xmlns:xlink="http://www.w3.org/1999/xlink" viewBox="0 0 143 143"><defs><style>.cls-1{fill:url(#linear-gradient);}.cls-2{fill:#fff;}</style><linearGradient id="linear-gradient" y1="71.5" x2="143" y2="71.5" gradientUnits="userSpaceOnUse"><stop offset="0" stop-color="#74b054"/><stop offset="1" stop-color="#479d45"/></linearGradient></defs><title>02</title><g id="Layer_2" data-name="Layer 2"><g id="IKONICE"><rect class="cls-1" width="143" height="143" rx="20.15" ry="20.15"/><path class="cls-2" d="M100.18,101.34H42.84A1.86,1.86,0,0,1,41,99.48V69.2A15.36,15.36,0,0,0,25.63,53.87a11.9,11.9,0,0,0-11.9,11.89,9.15,9.15,0,0,0,9.14,9.15,7,7,0,0,0,7-7,5.2,5.2,0,0,0-5.18-5.19,1.86,1.86,0,1,1,0-3.71A8.91,8.91,0,0,1,33.55,68,10.68,10.68,0,0,1,22.87,78.64,12.89,12.89,0,0,1,10,65.76,15.64,15.64,0,0,1,25.63,50.14,19.09,19.09,0,0,1,44.69,69.2V97.61H98.31V69.2a19.1,19.1,0,0,1,19.08-19.06A15.63,15.63,0,0,1,133,65.76a12.89,12.89,0,0,1-12.86,12.88A10.68,10.68,0,0,1,109.47,68a8.89,8.89,0,0,1,8.9-8.9,1.86,1.86,0,1,1,0,3.71A5.2,5.2,0,0,0,113.18,68a7,7,0,0,0,7,7,9.15,9.15,0,0,0,9.13-9.15,11.9,11.9,0,0,0-11.88-11.89A15.36,15.36,0,0,0,102,69.2V99.48a1.87,1.87,0,0,1-1.86,1.86Z"/><path class="cls-2" d="M114.71,119.23h-86a7.72,7.72,0,0,1-7.7-7.7V76.77a1.87,1.87,0,0,1,3.73,0v34.76a4,4,0,0,0,4,4h86a4,4,0,0,0,4-4V76.77a1.87,1.87,0,0,1,3.73,0v34.76a7.72,7.72,0,0,1-7.7,7.7Z"/><path class="cls-2" d="M100.18,85.56H42.84a1.87,1.87,0,0,1,0-3.73h57.34a1.87,1.87,0,0,1,0,3.73Z"/><path class="cls-2" d="M42.84,125.27A1.85,1.85,0,0,1,41,123.42v-4.57a1.86,1.86,0,1,1,3.71,0v4.57a1.85,1.85,0,0,1-1.85,1.85Z"/><path class="cls-2" d="M100.18,125.27a1.86,1.86,0,0,1-1.87-1.85v-4.57a1.87,1.87,0,1,1,3.73,0v4.57a1.86,1.86,0,0,1-1.86,1.85Z"/><path class="cls-2" d="M112.75,53.87A1.86,1.86,0,0,1,110.89,52V39.86a18.42,18.42,0,0,0-18.4-18.4H50.93a18.41,18.41,0,0,0-18.4,18.4V52a1.87,1.87,0,1,1-3.73,0V39.86A22.15,22.15,0,0,1,50.93,17.73H92.49A22.14,22.14,0,0,1,114.6,39.86V52a1.86,1.86,0,0,1-1.85,1.87Z"/></g></g></svg>