<?xml version="1.0" encoding="UTF-8"?>
<svg version="1.1" viewBox="0 0 977 201" xmlns="http://www.w3.org/2000/svg">
<title>Untitled</title>
<desc>Created with Sketch.</desc>
<g fill="none" fill-rule="evenodd">
<g transform="translate(0 -1)" fill-rule="nonzero">
<g transform="translate(488.5 101) scale(-1 1) rotate(180) translate(-488.5 -101)">
<g transform="translate(.13162 82.231)" fill="#66B551">
<polygon points="73.75 116.25 73.75 69.995 26.325 69.995 0.61125 46.286 73.75 46.286 73.75 0.03125 99.464 0.03125 99.464 116.25"/>
</g>
<polygon points="26.456 152.23 0.74375 152.23 0.74375 198.48 26.456 198.48" fill="#66B551"/>
<polygon points="0.7425 128.52 26.455 128.52 26.455 82.262 0.7425 82.262" fill="#2DA454"/>
<g transform="translate(343.92 82.25)" fill="#66B551">
<polygon points="0 116.25 25.712 116.25 25.712 23.389 25.712 0.0125 0 23.389"/>
</g>
<polygon points="369.64 105.64 427.92 105.64 427.92 82.262 369.64 82.262" fill="#2DA454"/>
<g transform="translate(104)">
<g transform="translate(0)">
<g transform="translate(637.17 78.789)" fill="#66B551">
<path d="m0 61.25v0.335c0 33.228 26.215 60.446 62.282 60.446 36.069 0 61.951-26.888 61.951-60.112v-0.33375c0-33.23-26.215-60.45-62.288-60.45-36.066 0-61.946 26.885-61.946 60.115m97.35 0v0.335c0 20.039-14.695 36.732-35.404 36.732-20.702 0-35.065-16.364-35.065-36.399v-0.33375c0-20.038 14.695-36.739 35.401-36.739 20.705 0 35.068 16.365 35.068 36.404"/>
</g>
<g transform="translate(.0025 78.789)" fill="#66B551">
<path d="m0 61.25v0.3325c0 33.232 26.22 60.449 62.285 60.449 36.072 0 61.954-26.885 61.954-60.115v-0.33375c0-33.228-26.218-60.448-62.284-60.448-36.07 0-61.955 26.885-61.955 60.115m97.352 0v0.3325c0 20.039-14.692 36.738-35.398 36.738-20.709 0-35.069-16.368-35.069-36.404v-0.33375c0-20.035 14.698-36.734 35.399-36.734 20.706 0 35.068 16.362 35.068 36.401"/>
</g>
<g transform="translate(110.79 78.789)" fill="#66B551">
<path d="m0 61.25v0.335c0 33.228 26.218 60.446 62.285 60.446 36.069 0 61.951-26.888 61.951-60.112v-0.33375c0-33.23-26.215-60.45-62.286-60.45-36.068 0-61.95 26.885-61.95 60.115m97.352 0v0.335c0 20.039-14.698 36.732-35.402 36.732-20.704 0-35.064-16.364-35.064-36.399v-0.33375c0-20.038 14.695-36.739 35.399-36.739 20.71 0 35.068 16.365 35.068 36.404"/>
</g>
<g transform="translate(110.79 111.29)" fill="#2DA454">
<path d="m0 28.75c0-10.002 2.3625-19.421 6.6238-27.715 4.3925 8.3988 6.825 17.94 6.825 28.048v0.33375c0 10.002-2.3575 19.421-6.6212 27.715-4.3875-8.3988-6.8275-17.941-6.8275-28.046v-0.335z"/>
</g>
<g transform="translate(313.6 78.789)" fill="#66B551">
<path d="m0 61.25v0.335c0 33.228 26.218 60.446 62.282 60.446 36.071 0 61.956-26.888 61.956-60.112v-0.33375c0-33.23-26.22-60.45-62.288-60.45-36.071 0-61.951 26.885-61.951 60.115m97.354 0v0.335c0 20.039-14.699 36.732-35.402 36.732-20.705 0-35.065-16.364-35.065-36.399v-0.33375c0-20.038 14.69-36.739 35.396-36.739 20.71 0 35.071 16.365 35.071 36.404"/>
</g>
<g transform="translate(424.4 78.789)" fill="#66B551">
<path d="m0 61.25v0.335c0 33.228 26.215 60.446 62.285 60.446 36.069 0 61.951-26.888 61.951-60.112v-0.33375c0-33.23-26.218-60.45-62.288-60.45-36.066 0-61.949 26.885-61.949 60.115m97.352 0v0.335c0 20.039-14.698 36.732-35.404 36.732-20.702 0-35.065-16.364-35.065-36.399v-0.33375c0-20.038 14.692-36.739 35.401-36.739 20.705 0 35.068 16.365 35.068 36.404"/>
</g>
<g transform="translate(424.4 111.29)" fill="#2DA454">
<path d="m0 28.75c0-9.9975 2.3625-19.414 6.6188-27.708 4.3875 8.3988 6.8225 17.938 6.8225 28.042v0.33375c0 9.9975-2.3562 19.41-6.6188 27.702-4.3875-8.3975-6.8225-17.934-6.8225-28.036v-0.335z"/>
</g>
<g transform="translate(747.97 78.789)" fill="#66B551">
<path d="m0 61.25v0.335c0 33.228 26.215 60.446 62.282 60.446 36.071 0 61.951-26.888 61.951-60.112v-0.33375c0-33.23-26.215-60.45-62.282-60.45-36.071 0-61.951 26.885-61.951 60.115m97.352 0v0.335c0 20.039-14.698 36.732-35.401 36.732-20.705 0-35.071-16.364-35.071-36.399v-0.33375c0-20.038 14.696-36.739 35.402-36.739 20.705 0 35.07 16.365 35.07 36.404"/>
</g>
<g transform="translate(747.97 111.29)" fill="#2DA454">
<path d="m0 28.75c0-9.9975 2.3562-19.414 6.6188-27.705 4.3825 8.3988 6.8175 17.938 6.8175 28.04v0.33375c0 9.995-2.3575 19.41-6.6138 27.7-4.39-8.395-6.8225-17.934-6.8225-28.034v-0.335z"/>
</g>
<g transform="translate(592.18 82.25)" fill="#2DA454">
<polygon points="31.25 116.25 1.2425 35.41 12.264 0.0125 58.925 116.25"/>
</g>
<g transform="translate(534.67 81.411)" fill="#66B551">
<polygon points="58.75 36.25 28.742 117.09 0.395 117.09 47.06 0.8525 69.77 0.8525"/>
</g>
<g transform="translate(129.18 7.9988)" fill="#838383">
<path d="m0 37.5h13.706c2.8738 0 5.5125-0.46625 7.9075-1.3938 2.405-0.925 4.4625-2.2188 6.1938-3.855 1.7388-1.6525 3.0738-3.5838 4.0112-5.81 0.955-2.2262 1.4312-4.6312 1.4312-7.2175v-0.1075c0-2.595-0.47625-5.0088-1.4312-7.255-0.9375-2.2388-2.2725-4.1788-4.0112-5.8188-1.7312-1.645-3.7888-2.9438-6.1938-3.8838-2.395-0.9575-5.0338-1.4262-7.9075-1.4262h-13.706v36.768zm13.655-30.932c1.9162 0 3.6712 0.3075 5.2562 0.91875 1.5675 0.6175 2.9075 1.4812 4.0162 2.585 1.11 1.1138 1.96 2.4312 2.5725 3.96 0.60625 1.5212 0.91875 3.1912 0.91875 4.9825v0.1025c0 1.795-0.3125 3.4612-0.91875 5.0125-0.6125 1.5462-1.4625 2.8712-2.5725 3.98-1.1088 1.11-2.4488 1.9775-4.0162 2.6075-1.585 0.6325-3.34 0.95625-5.2562 0.95625h-7.2438v-25.105h7.2438z"/>
</g>
<g transform="translate(167.55 8.1086)" fill="#838383">
<path d="m15 0c-2.1075 0-4.06 0.3625-5.8575 1.12-1.8062 0.7625-3.3688 1.7788-4.68 3.0775-1.3062 1.2938-2.3338 2.815-3.0738 4.5675-0.735 1.7512-1.0962 3.605-1.0962 5.5712v0.0975c0 2.005 0.37625 3.8725 1.1188 5.6225 0.75875 1.7512 1.79 3.2838 3.1025 4.5975 1.3188 1.3112 2.8812 2.3538 4.6712 3.1225 1.8112 0.77625 3.7788 1.1575 5.915 1.1575 2.1388 0 4.1062-0.37625 5.9012-1.13 1.8088-0.7525 3.3688-1.7888 4.685-3.0988 1.3088-1.3188 2.3388-2.8362 3.0638-4.5725 0.74-1.7338 1.1138-3.5962 1.1138-5.5912v-0.1075c0-1.96-0.37875-3.8088-1.1338-5.5638-0.75125-1.7525-1.7888-3.2812-3.095-4.5975-1.3188-1.3125-2.8862-2.355-4.7125-3.125-1.8238-0.76875-3.7888-1.1475-5.9225-1.1475m0.1 5.5088c1.2838 0 2.4388 0.23375 3.465 0.705 1.035 0.47375 1.9112 1.1062 2.6412 1.9162 0.73 0.80375 1.2838 1.74 1.675 2.82 0.3725 1.0625 0.56375 2.195 0.56375 3.3862v0.0975c0 1.2238-0.2125 2.3862-0.6175 3.4775-0.42 1.0762-1.0038 2.0188-1.7562 2.8288-0.74875 0.80625-1.6225 1.4475-2.6562 1.9188-1.0225 0.46625-2.1675 0.70625-3.415 0.70625-1.26 0-2.405-0.24-3.4275-0.70625-1.0238-0.47125-1.9075-1.105-2.6375-1.8938-0.73-0.79125-1.2862-1.7288-1.6712-2.81-0.37625-1.0862-0.57625-2.2175-0.57625-3.4138v-0.1075c0-1.2225 0.2125-2.3725 0.6225-3.435 0.425-1.0738 1.0075-2.015 1.7625-2.8438 0.7425-0.8175 1.64-1.4675 2.6662-1.9412 1.025-0.47125 2.145-0.705 3.3612-0.705"/>
</g>
<g transform="translate(201.39 8.155)" fill="#838383">
<path d="m13.75 0c-1.6575 0-3.2475 0.315-4.79 0.94-1.54 0.64-2.9075 1.5625-4.0988 2.7912-1.1875 1.23-2.1462 2.725-2.8888 4.5162-0.73 1.78-1.0962 3.8288-1.0962 6.14v0.1075c0 2.31 0.35375 4.3625 1.065 6.145 0.72 1.7825 1.6788 3.2925 2.8638 4.5188 1.1862 1.2212 2.5612 2.1562 4.1162 2.7838 1.5475 0.625 3.1412 0.945 4.8 0.945 2.2575 0 4.145-0.48875 5.6512-1.4725 1.4938-0.98125 2.7538-2.1188 3.7675-3.415v14.916h6.4138v-38.34h-6.4138l0.05875 4.6225c-1.0238-1.4362-2.2838-2.6612-3.8038-3.6725-1.5288-1.02-3.4162-1.5262-5.645-1.5262m1.4938 5.5162c1.0338 0 2.0488 0.2075 3.0275 0.625 0.98125 0.42875 1.8362 1.0225 2.5638 1.8188 0.7375 0.77875 1.3162 1.7162 1.765 2.805 0.435 1.0888 0.645 2.3 0.645 3.6225v0.1075c0 1.3312-0.21 2.5512-0.645 3.6525-0.44875 1.1012-1.0275 2.0362-1.765 2.8075-0.7275 0.77125-1.5825 1.365-2.5638 1.7875-0.97875 0.4175-1.9938 0.625-3.0275 0.625-1.0812 0-2.1062-0.195-3.0688-0.59625-0.95625-0.4125-1.8112-0.99625-2.5412-1.7562-0.73-0.78-1.3062-1.715-1.7188-2.8162-0.425-1.1012-0.6325-2.3388-0.6325-3.7038v-0.1075c0-1.3225 0.2075-2.5388 0.6325-3.65 0.4125-1.1012 0.98875-2.0362 1.7188-2.8075 0.73-0.76625 1.585-1.36 2.5412-1.7888 0.9625-0.4175 1.9875-0.625 3.0688-0.625"/>
</g>
<path d="m242.22 46.754h6.8825v-6.0325h-6.8825v6.0325zm0.27125-10.291h6.3988v-27.732h-6.3988v27.732z" fill="#838383"/>
<polygon points="256.82 15.93 263.81 15.93 263.81 8.73 256.82 8.73" fill="#838383"/>
<polygon points="288.64 45.499 295.04 45.499 295.04 8.7312 288.64 8.7312" fill="#838383"/>
<g transform="translate(301.37 .22162)" fill="#838383">
<path d="m15 0c-4.6188 0-8.7625 1.0962-12.388 3.2812l2.3562 4.76c1.4638-0.91 3.0075-1.6375 4.6212-2.1625 1.6012-0.525 3.3612-0.78625 5.2512-0.78625 2.8438 0 5.005 0.7275 6.5062 2.1675 1.5138 1.445 2.2662 3.5762 2.2662 6.3825v2.1725c-1.1525-1.5038-2.5025-2.735-4.0462-3.6725-1.535-0.95125-3.4562-1.4275-5.72-1.4275-1.65 0-3.225 0.30125-4.7312 0.89375-1.5012 0.6-2.8488 1.4425-4.0162 2.5538-1.1738 1.0962-2.105 2.4525-2.8075 4.065-0.705 1.6138-1.0525 3.4375-1.0525 5.4612v0.105c0 2.0262 0.3475 3.8575 1.0525 5.495 0.7025 1.6212 1.6338 2.9862 2.8075 4.0875 1.1675 1.1125 2.5225 1.95 4.0412 2.5488 1.525 0.6025 3.09 0.89625 4.7062 0.89625 2.3412 0 4.2775-0.465 5.8038-1.395 1.5225-0.9225 2.8262-2.0388 3.9112-3.3325v4.1462h6.35v-22.056c0-4.6262-1.17-8.11-3.5212-10.46-1.2525-1.25-2.8388-2.1925-4.7512-2.7962-1.9012-0.6175-4.12-0.9275-6.64-0.9275m0.525 16.076c1.0838 0 2.1312 0.185 3.125 0.55375 1.0012 0.36125 1.8675 0.88625 2.6 1.5738 0.7325 0.68 1.3275 1.4812 1.7625 2.4138 0.4375 0.9275 0.65 1.9475 0.65 3.0712v0.105c0 1.1588-0.2125 2.1962-0.65 3.1275-0.435 0.925-1.03 1.7325-1.7625 2.4088-0.7325 0.68875-1.5988 1.2162-2.6 1.58-0.99375 0.36375-2.0412 0.55375-3.125 0.55375-1.1188 0-2.1512-0.19-3.0962-0.55375-0.94875-0.36375-1.7812-0.88375-2.5-1.5525-0.71-0.66625-1.2762-1.4575-1.67-2.385-0.4075-0.92875-0.6125-1.9662-0.6125-3.1225v-0.11c0-1.155 0.215-2.195 0.63-3.1225 0.425-0.9325 0.98375-1.7338 1.685-2.4138 0.6925-0.6875 1.53-1.2125 2.4875-1.5738 0.9625-0.36875 1.9875-0.55375 3.0762-0.55375"/>
</g>
<g transform="translate(339.87 7.7131)" fill="#838383">
<path d="m0 28.75h6.4062v-6.2475c0.88375 2.1 2.1288 3.78 3.7375 5.0375 1.6088 1.2612 3.64 1.845 6.0888 1.7375v-6.7238h-0.37125c-1.3938 0-2.6725-0.22875-3.8325-0.6875-1.1525-0.4575-2.16-1.1338-2.9912-2.0488-0.84625-0.90625-1.4888-2.0462-1.9475-3.435-0.45375-1.3825-0.68375-2.9888-0.68375-4.805v-10.561h-6.4062v27.734z"/>
</g>
<g transform="translate(357.77 7.4812)" fill="#838383">
<path d="m20 1.25v3.4162c-0.9525-1.1238-2.1562-2.0725-3.6275-2.83-1.4725-0.78125-3.25-1.1638-5.3638-1.1638-1.3238 0-2.5912 0.1875-3.7725 0.55625-1.1888 0.36375-2.2388 0.9075-3.1275 1.6188-0.89625 0.7275-1.6062 1.6162-2.16 2.6825-0.5375 1.0675-0.80625 2.3088-0.80625 3.6988v0.1075c0 1.5438 0.26875 2.8812 0.8425 4.0238 0.55625 1.13 1.3225 2.08 2.3362 2.83 0.98875 0.75625 2.1825 1.32 3.5712 1.6812 1.3875 0.37125 2.8738 0.5475 4.4875 0.5475 1.68 0 3.1112-0.1 4.28-0.31 1.1675-0.21 2.2975-0.48625 3.3962-0.8425v0.53c0 1.9238-0.59625 3.3962-1.7675 4.4112-1.1725 1.0138-2.8562 1.5262-5.0638 1.5262-1.58 0-2.9812-0.16375-4.2038-0.47125-1.2212-0.3225-2.4688-0.74-3.7338-1.2675l-1.7325 5.0925c1.545 0.70375 3.12 1.265 4.7288 1.6888 1.6138 0.41625 3.55 0.63125 5.835 0.63125 4.1262 0 7.1875-1.03 9.18-3.0738 2.0012-2.0562 2.99-4.9338 2.99-8.6425v-16.441h-6.2888zm0.16125 11.605c-0.80125 0.315-1.7675 0.57875-2.8738 0.7975-1.1038 0.19875-2.2538 0.3075-3.4862 0.3075-1.995 0-3.5575-0.385-4.6825-1.1562-1.1188-0.7625-1.67-1.8162-1.67-3.15v-0.1025c0-1.3375 0.51-2.3462 1.5475-3.0462 1.035-0.70625 2.2975-1.055 3.8088-1.055 1.045 0 2.0138 0.14125 2.91 0.4225 0.88875 0.285 1.6725 0.67375 2.3362 1.185 0.6725 0.50875 1.185 1.115 1.5562 1.83 0.36375 0.7225 0.55375 1.5188 0.55375 2.395v1.5725z"/>
</g>
<g transform="translate(386.17 .168)" fill="#838383">
<path d="m3.75 0c-0.61 0-1.1375 0.025-1.6088 0.07875-0.47875 0.05625-0.9525 0.11625-1.44 0.1825v5.1025c0.625-0.11 1.1988-0.15875 1.7575-0.15875 0.90125 0 1.6262 0.25375 2.16 0.75875 0.5375 0.5125 0.80375 1.3725 0.80375 2.6v27.73h6.4112v-28.094c0-2.8362-0.68875-4.9138-2.0725-6.23-1.39-1.3112-3.3912-1.97-6.0112-1.97zm1.4138 46.586h6.8825v-6.0312h-6.8825v6.0312z"/>
</g>
<polygon points="405.98 15.93 412.98 15.93 412.98 8.73 405.98 8.73" fill="#838383"/>
<g transform="translate(437.9 7.9988)" fill="#838383">
<path d="m0 37.5h14.498c2.1412 0 4.0788-0.2875 5.81-0.86875 1.7338-0.57125 3.1912-1.4062 4.41-2.4925 1.2125-1.0838 2.1288-2.3775 2.78-3.8888 0.65375-1.5 0.97-3.1838 0.97-5.04v-0.105c0-2.0625-0.38125-3.8812-1.1575-5.4338-0.77375-1.5675-1.8262-2.8612-3.1575-3.9162-1.335-1.0475-2.9025-1.8488-4.675-2.3875-1.7988-0.545-3.7138-0.8175-5.7488-0.8175h-7.3225v-11.818h-6.4062l-3.3307e-15 36.768zm13.945-19.12c2.4588 0 4.4025 0.61 5.8275 1.8475 1.4238 1.235 2.13 2.815 2.13 4.7438v0.10625c0 2.1788-0.71625 3.825-2.1588 4.9275-1.44 1.1088-3.3738 1.6675-5.7988 1.6675h-7.5388v-13.292h7.5388z"/>
</g>
<g transform="translate(469.98 8.1086)" fill="#838383">
<path d="m15 0c-2.1088 0-4.0625 0.3625-5.8612 1.12-1.805 0.7625-3.3575 1.7788-4.6712 3.0775-1.315 1.2938-2.3388 2.815-3.0688 4.5675-0.74 1.7512-1.1125 3.605-1.1125 5.5712v0.0975c0 2.005 0.38 3.8725 1.125 5.6225 0.76625 1.7512 1.79 3.2838 3.105 4.5975 1.3162 1.3112 2.8712 2.3538 4.6738 3.1225 1.7988 0.77625 3.7738 1.1575 5.9075 1.1575 2.1362 0 4.1-0.37625 5.9162-1.13 1.7938-0.7525 3.3562-1.7888 4.6725-3.0988 1.3088-1.3188 2.3262-2.8362 3.0688-4.5725 0.73-1.7338 1.1062-3.5962 1.1062-5.5912v-0.1075c0-1.96-0.38875-3.8088-1.135-5.5638-0.75-1.7525-1.785-3.2812-3.0938-4.5975-1.3162-1.3125-2.8888-2.355-4.7025-3.125-1.8138-0.76875-3.8038-1.1475-5.93-1.1475m0.0975 5.5088c1.2825 0 2.4462 0.23375 3.4788 0.705 1.0162 0.47375 1.9 1.1062 2.63 1.9162 0.7325 0.80375 1.2838 1.74 1.6675 2.82 0.38125 1.0625 0.57625 2.195 0.57625 3.3862v0.0975c0 1.2238-0.2 2.3862-0.63 3.4775-0.42 1.0762-1.0012 2.0188-1.7438 2.8288-0.74875 0.80625-1.6375 1.4475-2.665 1.9188-1.0262 0.46625-2.1612 0.70625-3.4112 0.70625-1.26 0-2.395-0.24-3.42-0.70625-1.0325-0.47125-1.9075-1.105-2.6375-1.8938-0.7325-0.79125-1.2888-1.7288-1.6738-2.81-0.38875-1.0862-0.58375-2.2175-0.58375-3.4138v-0.1075c0-1.2225 0.22375-2.3725 0.635-3.435 0.42125-1.0738 1.01-2.015 1.7475-2.8438 0.75-0.8175 1.6288-1.4675 2.6638-1.9412 1.0325-0.47125 2.1488-0.705 3.3662-0.705"/>
</g>
<g transform="translate(506.03 8.321)" fill="#838383">
<polygon points="7.8886e-31 38.75 6.4138 38.75 6.4138 15.858 17.918 28.142 25.645 28.142 14.602 16.851 26.004 0.40875 18.652 0.40875 10.305 12.386 6.4138 8.3425 6.4138 0.40875 -4.4409e-15 0.40875"/>
</g>
<path d="m536.48 46.754h6.8912v-6.0325h-6.8912v6.0325zm0.26625-10.291h6.4112v-27.732h-6.4112v27.732z" fill="#838383"/>
<g transform="translate(548.75 8.155)" fill="#838383">
<path d="m13.75 0c-1.6425 0-3.2375 0.315-4.775 0.94-1.5438 0.64-2.9075 1.5625-4.0925 2.7912-1.2012 1.23-2.155 2.725-2.89 4.5162-0.7425 1.78-1.1012 3.8288-1.1012 6.14v0.1075c0 2.31 0.35375 4.3625 1.0762 6.145 0.70625 1.7825 1.6538 3.2925 2.85 4.5188 1.1838 1.2212 2.5538 2.1562 4.1088 2.7838 1.55 0.625 3.1588 0.945 4.7975 0.945 2.2625 0 4.145-0.48875 5.6612-1.4725 1.4962-0.98125 2.7512-2.1188 3.7738-3.415v14.916h6.3988v-38.34h-6.3988l0.045 4.6225c-1.0112-1.4362-2.2875-2.6612-3.8025-3.6725-1.5325-1.02-3.415-1.5262-5.6512-1.5262m1.5012 5.5162c1.0475 0 2.0662 0.2075 3.0375 0.625 0.97375 0.42875 1.8312 1.0225 2.5688 1.8188 0.735 0.77875 1.3038 1.7162 1.74 2.805 0.4425 1.0888 0.66625 2.3 0.66625 3.6225v0.1075c0 1.3312-0.22375 2.5512-0.66625 3.6525-0.43625 1.1012-1.005 2.0362-1.74 2.8075-0.7375 0.77125-1.595 1.365-2.5688 1.7875-0.97125 0.4175-1.99 0.625-3.0375 0.625-1.0838 0-2.1038-0.195-3.0662-0.59625-0.96125-0.4125-1.8038-0.99625-2.5312-1.7562-0.7325-0.78-1.3062-1.715-1.7262-2.8162s-0.6375-2.3388-0.6375-3.7038v-0.1075c0-1.3225 0.2175-2.5388 0.6375-3.65 0.42-1.1012 0.99375-2.0362 1.7262-2.8075 0.7275-0.76625 1.57-1.36 2.5312-1.7888 0.9625-0.4175 1.9825-0.625 3.0662-0.625"/>
</g>
<g transform="translate(583.07 7.4812)" fill="#838383">
<path d="m20 1.25v3.4162c-0.945-1.1238-2.1625-2.0725-3.6225-2.83-1.4675-0.78125-3.2575-1.1638-5.3612-1.1638-1.3288 0-2.5838 0.1875-3.78 0.55625-1.1838 0.36375-2.2312 0.9075-3.125 1.6188-0.88125 0.7275-1.6012 1.6162-2.1575 2.6825-0.54 1.0675-0.80375 2.3088-0.80375 3.6988v0.1075c0 1.5438 0.27125 2.8812 0.825 4.0238 0.56875 1.13 1.345 2.08 2.3488 2.83 0.99375 0.75625 2.1825 1.32 3.5738 1.6812 1.3775 0.37125 2.8862 0.5475 4.4925 0.5475 1.67 0 3.1038-0.1 4.2825-0.31 1.165-0.21 2.2925-0.48625 3.3812-0.8425v0.53c0 1.9238-0.59375 3.3962-1.765 4.4112-1.1675 1.0138-2.8538 1.5262-5.0638 1.5262-1.5725 0-2.9788-0.16375-4.2088-0.47125-1.2188-0.3225-2.4662-0.74-3.7212-1.2675l-1.7425 5.0925c1.5475 0.70375 3.125 1.265 4.7362 1.6888 1.6038 0.41625 3.555 0.63125 5.8275 0.63125 4.1388 0 7.195-1.03 9.19-3.0738 2.0012-2.0562 2.99-4.9338 2.99-8.6425v-16.441h-6.2962zm0.15625 11.605c-0.8075 0.315-1.755 0.57875-2.8688 0.7975-1.0938 0.19875-2.26 0.3075-3.4838 0.3075-1.9975 0-3.5575-0.385-4.675-1.1562-1.1262-0.7625-1.685-1.8162-1.685-3.15v-0.1025c0-1.3375 0.51-2.3462 1.555-3.0462 1.0375-0.70625 2.295-1.055 3.8038-1.055 1.06 0 2.0288 0.14125 2.915 0.4225 0.89375 0.285 1.675 0.67375 2.3412 1.185 0.665 0.50875 1.1725 1.115 1.5512 1.83 0.36375 0.7225 0.54625 1.5188 0.54625 2.395v1.5725z"/>
</g>
<g transform="translate(612.92 .168)" fill="#838383">
<path d="m3.75 0c-0.5975 0-1.125 0.025-1.6012 0.07875-0.47125 0.05625-0.9425 0.11625-1.4362 0.1825v5.1025c0.61625-0.11 1.2062-0.15875 1.7612-0.15875 0.8975 0 1.625 0.25375 2.16 0.75875 0.535 0.5125 0.80125 1.3725 0.80125 2.6v27.73h6.4062v-28.094c0-2.8362-0.68625-4.9138-2.075-6.23-1.3825-1.3112-3.3775-1.97-6.0162-1.97zm1.4262 46.586h6.8838v-6.0312h-6.8838v6.0312z"/>
</g>
<polygon points="632.76 15.93 639.74 15.93 639.74 8.73 632.76 8.73" fill="#838383"/>
<polygon points="220.15 41.424 235.32 41.424 235.32 37.652 220.15 37.652" fill="#838383"/>
</g>
</g>
</g>
</g>
</g>
</svg>
