<svg xmlns="http://www.w3.org/2000/svg" xmlns:xlink="http://www.w3.org/1999/xlink" viewBox="0 0 143 143"><defs><style>.cls-1{fill:url(#linear-gradient);}.cls-2{fill:#fff;}</style><linearGradient id="linear-gradient" y1="71.5" x2="143" y2="71.5" gradientUnits="userSpaceOnUse"><stop offset="0" stop-color="#74b054"/><stop offset="1" stop-color="#479d45"/></linearGradient></defs><title>01</title><g id="Layer_2" data-name="Layer 2"><g id="IKONICE"><rect class="cls-1" width="143" height="143" rx="20.15" ry="20.15"/><path class="cls-2" d="M74.94,85.29H68.72a4.1,4.1,0,0,1,0-8.19h11a2.72,2.72,0,0,0,0-5.43H74.54V67.9a2.72,2.72,0,1,0-5.43,0v3.77h-.39a9.52,9.52,0,0,0,0,19h6.22a4.1,4.1,0,1,1,0,8.19H63.79a2.72,2.72,0,0,0,0,5.43h5.34v3.86a2.72,2.72,0,1,0,5.43,0v-3.86h.52a9.52,9.52,0,0,0-.14-19Z"/><path class="cls-2" d="M112.62,79.13a78.17,78.17,0,0,0-11.76-18.86A88.13,88.13,0,0,0,85.8,46L97.33,24.57a2.66,2.66,0,0,0-.5-3.21c-3-2.92-6.15-4.35-9.68-4.35-3.23,0-6.19,1.22-8.77,2.31-2,.84-4,1.65-5.52,1.65a3.44,3.44,0,0,1-1.29-.23c-5.38-2-9.52-3.18-13.52-3.18-5.07,0-9.38,2-13.61,6.37a2.73,2.73,0,0,0-.32,3.4L56.56,46.12A88.87,88.87,0,0,0,41.7,60.27,78.8,78.8,0,0,0,29.94,79.13a64.2,64.2,0,0,0-5.38,25.6,21.09,21.09,0,0,0,21.05,21.06H97a21.09,21.09,0,0,0,21-21.06,64.2,64.2,0,0,0-5.38-25.6ZM49.91,26.19a11.82,11.82,0,0,1,8.14-3.25c3.21,0,6.83,1.08,11.65,2.87a9.17,9.17,0,0,0,3.14.54c2.65,0,5.18-1,7.6-2.05s4.54-1.9,6.69-1.9a7.21,7.21,0,0,1,4.37,1.49L80.64,44.06H61.74Zm47,94.17H45.61A15.64,15.64,0,0,1,30,104.73c0-14.49,5.31-28.24,15.76-40.86A82.89,82.89,0,0,1,61.1,49.49H81.41A81.45,81.45,0,0,1,96.77,63.87c10.47,12.62,15.76,26.35,15.76,40.86A15.58,15.58,0,0,1,97,120.36Z"/></g></g></svg>