<svg xmlns="http://www.w3.org/2000/svg" viewBox="0 0 865.28 1262.89"><defs><style>.cls-1{fill:#592b0d;}.cls-2{fill:#783c0e;}.cls-3{fill:#67c5b8;}.cls-4{fill:#425a6b;}.cls-5{fill:#884a15;}.cls-6{fill:#9cc2d5;}.cls-7{fill:#edf0f2;}.cls-8{fill:#8d0e29;}.cls-9{fill:#fff;}</style></defs><title>Asset 1</title><g id="Layer_2" data-name="Layer 2"><g id="Layer_3_Image" data-name="Layer 3 Image"><path class="cls-1" d="M256.76,54s8.82-18.5,9.05-19.19,6.68-10.13,6.68-10.13l3.23-4.15s3.91-5.07,4.83-5.53,9-5.53,9-5.53l9-4.6,8.06-3L313.26,0h18.66l16.13,2.3a62.83,62.83,0,0,1,6,3.23c2.07,1.38,7.37,4.61,7.37,4.61s4.38,2.07,4.84,2.76a29.68,29.68,0,0,0,3.91,3l5.76,7.61L382.14,29l2.53,3,2.08,8.06,3.91,15.44,2.77,15.89V92.83l.91,6.44-7.82,16.6-18.43,6.91-47.45-5.07-46.54-21-13.59-26Z"/><path class="cls-2" d="M287.18,232.48l-.9-8.92-4.06-7.41-3.79-5.67-3.79-8.33v-4.66l-1.46-5-2.33-7.29-2.1-4.06-3.94-7.65-3.94-7.65-1.27-2.48-3-11.11L255.11,147v-6.41l-1.75-2.92v-4.37L251,127.8l-3.2-9.62V93.69l-.89-12.22s1.17-8,1.33-8.5.84-4.33,1.17-4.83,3.33-6.84,3.67-7.34S256.76,54,256.76,54l5.84,3,6,3.33,5.16,2.5L277.43,65l5.33.83s4.34-.83,5.34-1.16,5.83-2.34,5.83-2.34,5.5-2.5,6.17-2.83,3.66-2.5,5.16-2.83,9-3.84,9-3.84l8.34-2.66h4.66l4.67,2.33,3.5,5.17L339.1,62s4.33,5,5,5.67,0,14.33,0,14.33l.29,4.83,1.37,9.34,1.17,6L352.6,108l9.66,3.5,6.34,2.5s6.66,0,7.5-.5,5.66-4.83,5.66-4.83,3.84-3.84,4.67-4.5,5-3.5,5-3.5,4.5-2.34,5.33-2a28.67,28.67,0,0,1,3.34,2.16l1.16,4.34v15l-2.33,7.5L395.76,133s-2.33,3.17-2.66,3.83-2.5,3.84-2.5,3.84l-1,3.83-.5,9.17.16,9.76,1.17,6.74,2,4.83,1.17,4.5,1.16,9.33.67,15.34-1,8.83-1.33,4.67-.89,2L388.6,252.3l-49.17,6.5-58.17-3-4.33-9,6.5-9.16Z"/><polygon class="cls-3" points="471.39 1128.84 480.51 1119.51 485.06 1107.21 478.76 1107.84 485.06 1099.01 486.69 1088.77 482.19 1088.77 484.65 1079.34 485.06 1069.09 477.89 1065.09 479.04 1052.29 466.76 1029.09 469.07 1021.94 464.56 1005.56 458.82 951.04 453.9 923.17 449.44 915.79 435.01 909.47 458.76 980.84 460.86 1048.6 460.86 1118.69 471.39 1128.84"/><path class="cls-4" d="M395,1004.44v9l1,27.86,1.3,9.79,1.53,14.37,2.17,10.22,2.4,5.44,7.83,15.24,4.57,7.18,7.18,10,3.49,4.57,4.57,4.35a52.55,52.55,0,0,1,3.48,4.14c.87,1.3,3.92,4.57,3.92,4.57s4.41,2.61,4.91,3,5.13,2.25,5.13,2.25l5,.87H456l3-1.12,2.63-.5,2.37-1.13,2.5-1.62,1.63-1.25,3.25-2.88,1.5-2.5,3.12-7.12,1.63-6.38,1.12-5,1.13-8.25v-7l.62-12.25V1073l-2.62-7.88-4.38-14-2.62-11-4.13-11-3-11.37-2.75-9.13-1.37-17.37-.88-10.38-1.5-9.87-2.5-13-.12-8-1-12-1.38-6.13-1.75-4.5L448.64,923l-6.75-8.25-4.16-2.63L435,909.47l-5.87-2.88h-3.75a33.45,33.45,0,0,0-3.5,0c-.63.13-2.88.5-2.88.5l-4,.38-3,.65-3.37,1.22-4.25,2-2.5,1.38-4.25,3-2.13,2.37-2,2.89-1.12,3.49-2,4.37-1.13,5.5,18.5,7.38,13,65-23.37-5.13Z"/><path class="cls-5" d="M710.27,579.34l4.25,10.37v7.92s.85,4.81,0,5.94-1.94,6.79-1.94,6.79,2.41,6.17,2.31,7.61,3.3,8.8,3.87,9.93,5.09,8.48,5.37,9.33A30.39,30.39,0,0,0,727,642a18.18,18.18,0,0,0,3.68,2.83l8.77,5.37,7.07,2.27s2.83,1.41,4.24,2.26a14.06,14.06,0,0,1,3.68,3.11,31.59,31.59,0,0,0,4,3.39,11,11,0,0,1,2.76,2,29,29,0,0,0,4.31,3.12,40.44,40.44,0,0,0,5.09,2.26,15.69,15.69,0,0,0,3.68,0l3.11-2,2.55-4.53V659l-2.55-4.24a53.5,53.5,0,0,0-5.09-3.4c-.85-.28-6.79-5.09-6.79-5.09l10.47,2,4,.85s4.8,1.7,5.65,2,5.66,2.55,6.51,2.83,7.35,3.68,7.35,3.68l7.92,3.11s13.3,4.81,14.15,5.37,11.31,4,11.31,4l9.62,4.53h5.09s.85-4.24,2-4.24,4.81-.29,4.81-.29l4.8.85h4l2.27-2.54v-5.1l-5.38-.84-8.2-2.83L841,654.77l-7.63-4.53-13-8.2-10.74-7.64L800.5,627l-5.37-5.85L787.77,614l-12.72-11.32-8.77-10.18-3.4-6.22-3.39-7-3.62-7.87-34-11.17-10.46,10.18Z"/><path class="cls-6" d="M568.18,837.3,499,891.55l2.17,4.53,4.14,4.93,6.48,7.11a32.34,32.34,0,0,1,3.91,2.34,38.14,38.14,0,0,0,3.51,2.56s1.75,2.16,2,2.56,2,3.24,2,3.24l.67,4,1.62,6.34,1.35,6.61s.81,4,.94,4.45a14.93,14.93,0,0,0,1.35,1.89l3.37,2.16,1,1.35,2.62,10.52,6.34,15.24,4.85,9.71,10.12,15.52,13.22,17.81L588,1040.1l13,18.48,4.86,9.31,11.46,20,8.37,15.52,17.26,31,3.92,10.39,1.07,6.21v7.69l1.62,17.4,3,7.28,2.29,6.75,2.84,4.72,1.89-5.67c.13-.4,2.69-4.85,2.69-4.85l3.78-3.24,4.59-2.7,10.12-5.13,11.06-5.12,10.39-1.62,5.53-.41,9.57,1s3,1.08,3.51,1.35-21.31-34.4-21.31-34.4l-3.38-17-4.45-17.27-4.85-18.61L682.85,1069l-5-15.11-1.89-6.75-2.15-7.82-1.76-8.37-2.83-9-15.11-46.4-2.56-9.31-3.24-8.36-2.7-8.23-4.72-14.17s-3.1-5.66-3.24-6.07-2.29-3.91-2.56-4.31-3.24-5.54-3.24-5.54l-3.1-5-3.37-5.12-7.15-10.53-8.35-11.06-5.28-6.88L599,874.57l-4.73-5-5.39-6.2L582,853.53l-9-11.2Z"/><path class="cls-6" d="M324.44,1031.34l12.27-2.73.13,0,10.24-3.11a1.36,1.36,0,0,0,.28-.11l7.66-3.79,6-2.88.13-.07,4.31-2.53,5.66-3.21.15-.09,3.53-2.47a1,1,0,0,1,.17-.1l4-2.16.1,0,3.48-1.61a1.61,1.61,0,0,1,.33-.12l3.14-.79.23,0,8.25-1a1.93,1.93,0,0,1,.89.12l3.85,1.54,4.06,1.41a1.37,1.37,0,0,0,.29.07l3.29.56.15,0,6.12.51h.11l7,.09c.23,0,3.68-.48,4.41-.58l.27-.06,6-1.8a1.27,1.27,0,0,0,.32-.13l3.45-1.8,5.5-3.16a1.66,1.66,0,0,0,.54-.48c.54-.71,1.89-2.5,2.1-2.7s3.42-6.17,3.42-6.17l2.53-4.73a1.55,1.55,0,0,0,.18-.51l.52-2.64a2.07,2.07,0,0,0,0-.35V966.91a1.82,1.82,0,0,0-.12-.65,30.63,30.63,0,0,1-1.08-3.12,34.76,34.76,0,0,0-1.63-3.51l-3.05-5.51-.07-.12-4.59-7-5.43-7.44a1.72,1.72,0,0,0-.32-.34l-3.76-3-4.54-3.6-3.94-3-3.77-2.91-3.36-2.35-.14-.09-2.59-1.49a1.37,1.37,0,0,0-.35-.15c-.75-.24-3.62-1.15-3.84-1.15a22,22,0,0,0-2.57-.51c-.34.09-1.46.17-1.63.43s-4.28,1.71-4.54,2-2.26,1.55-2.79,1.89l-.24.18-2.88,2.65a1.29,1.29,0,0,0-.16.17l-1.73,2.05-.84.95a1.81,1.81,0,0,1-1.32.6l-14.34.24a1.89,1.89,0,0,1-.87-.21l-2.5-1.32-2.27-1.3a1.44,1.44,0,0,1-.25-.18l-2.32-1.91-.1-.08-2.44-1.73a1.7,1.7,0,0,0-.35-.19l-4.18-1.74a2.47,2.47,0,0,0-.36-.11h0a1.83,1.83,0,0,0-2.08,1.27l-27.9,95.23a1.89,1.89,0,0,1-.23.5l-5.44,8.22A1.82,1.82,0,0,0,324.44,1031.34Z"/><path class="cls-5" d="M530.73,734.8l-4.05-9L505.2,715.5,484,716.8l-14.45,3.77-35.39,14.84-10,11.58-8.07,13.28V772l-.78,9.76,2.34,6.38,7.46,9.92,5.18,5.18,5.09,7.67,12.75,16,6.5,6.25,11.83,10.91,4.92,5.5L473,852.8l10.26,13.92,7.92,13,6.58,10,1.25,1.83,5.34-1.41s1.66-1.5,1.91-1.75,2.59-2,2.92-2.17,8.33-4,8.33-4,10.59-5.08,10.84-5.17,8.5-3.91,8.5-3.91l6-3.42,9.5-7.25,5.66-5.58,2.42-3.67s1.92-3.83,2.17-4.08,3.83-6,3.83-6l1.08-2,.67-3.84-3-3.16-6.92-9.67-5.58-9.33-5.17-9.5-3.08-6.17s-3.33-12.58-3.42-12.83-2.08-8.42-2.08-8.42l-.75-7.92L537,762.64l-.83-3.92-1.67-7.5-1.33-5.58-1.42-4.17-1-3.42Z"/><path class="cls-5" d="M230.44,908.12l9.85,20.31L247,945.08l8.56,17.76,7.62,15.39,4.12,7.29,1.74,3.17,4,6.82,4.12,7.62,4,5.7,3.33,4.76,3.33,4.13,5.71,5.71,6,3,7.3,3.65,4.6,2.22h8.72s2.54-1.27,3-1.43a32.54,32.54,0,0,0,3.33-3.33l7.14-5.87,12.37-13.32,6.19-9.68,2.85-5.55s2.06-5.23,2.06-5.71V950.47s-.32-5.23,0-5.71,0-7.61,0-7.61l.14-6v-9.83l-.93-4.12-1.27-12-2.06-13.48-1.75-11.58-.63-5.24-.32-7.45-1.65-6.56h-22l-78,31.62-13,7.93Z"/><path class="cls-7" d="M529.53,727.49l-1-3.59-2-4.43-2.27-4.91-5.15-9s-4.43-10.18-4.55-10.66-.6-4.31-.6-4.31v-3.47s-.12-3.48-.6-4.07,0-3.36,0-3.36l-.48-4.19-1-2.16L510,670.84a40,40,0,0,1-2.51-3.6c-.48-1-2.76-4-2.76-4l-2-3.59s-1.68-3.47-2-4-3.71-2.88-3.83-3.24-6.23-7.42-6.23-7.42l-5-9.83s-1.08-2.63-1.2-3-1.08-3-1.08-3l-1.31-6-1.62-6.23-4.49-5.63L472,605.32l-9.71-15.09-1.79-3.72v-3.23l-.6-4.43-1.2-4.43-.6-3.24-.72-6.35V554.17l-.84-2.63-2.39-3-3.59-2.87-2.67-1.17-4.16-4.1L436.58,539l-15.45-1.91-32,6-22.64,17-31,20.13-34.26,13.29L246,624l-41.32,3.39-20.84,21.92L150,652l3.67,3.14,1.43,4.19.56,3.11s.4,3.6.07,4,.69,4,.21,5.39,0,4.55,0,4.55v4.19l1,5.51s1.2,4.19,1.32,4.91,1,4.55,1,4.55l1.31,13.78,1.2,4.91v3.23l2.16,5.87,1.31,4.31a62.91,62.91,0,0,1,1.92,7.43,28.46,28.46,0,0,0,1.56,5.39l1.91,5.39,1.92,5.63,1.08,5.75,1.2,5.63,1.79,18.08,1.56,5.51,2.52,5.51,4.67,10.9,2.87,6.35,3.6,6,4.91,8.62,7.42,17,4.67,12.58,4.91,15.81,3.84,11,1,2.28.95,2.75.84,2.64s1.44,3.23,1.56,3.71,2.4,4.91,2.4,4.91l2.51,6.47,1.44,3.23,2.27,1.92h2.64l2-.72h3.36l5.27-1.08,2.39-.72,6.83-2.15,5.15-1.68,4.43-1.08,6.23-2.51,2.76-1.2,6.71-3.12,7.9-2.51,6.11-2.64,8.38-3.11,7.43-3.23,5.63-2.16,4.79-2.28s5.39-2.27,5.75-2.51,4.43-1.68,4.43-1.68l6-3.47,4.43-2.64s2.88-1.91,3.24-2.27,3.83-2.52,3.83-2.52l2.39-2,1.28-1.8s1.36-2.16,1.6-2.52a17.37,17.37,0,0,0,.84-2.27c.12-.36.12-3.84.12-3.84l-.12-3.83-1.56-12.81s-.36-5.51-.72-6.11,0-6.71,0-6.71l.6-5.75,2.37-3.08-3.54-13.5L345.78,781l-5.42-21.75V722.58l4.39,2.46,7.25,9.84,8.8,14,6.31,14s-.12-4.43,0-5.39,1,.6,1.08,1S370.7,763,370.7,763l.84,6s.84,3.83.84,4.19a28.33,28.33,0,0,0,1.44,3.23l1.55,2.28,3.36,2.87,2.27,1.68,4.8,3.23,6.1,2.76,6,1.44,2.76.83,4.31.36,4,.12,4.55-.24,3.12-.83,2.39,1.55,6.11,5.63-2-3.11-2.52-3-1.8-2.27-2.15-9.35s.72-3.83.72-4.19.84-4.19.84-4.19l1.31-3.35,1.68-3.48,2.52-5.15,1.43-3.35,1.92-3.24,5-5.62s4-2.64,4.67-3.24,4.91-2.87,4.91-2.87,6.95-3.36,7.55-3.6,4.43-2.27,4.43-2.27l5.39-2.88,5.63-2.75,4.91-2.16,5.39-2.15,5-1.08,4.07-1,4.55-.24,6.47-.72h10.78l5.39-.24,4.08.36,2.87.48,3.11,1.32,3,1.79,2.39,1.44,2.4,3.6,1.68,3.23v-3.71Z"/><path class="cls-8" d="M179.56,195.31s26.94-18.05,80-31.91l9.15,17.78s-13.34,3.93-4.71,43.69l22.24-1.31s54.93,48.39,105.93-3.93l30.87-2.09s-5.5-35-11.25-37.93c0,0,31.91,12.56,68.53,30.87,0,0,33,104.63,1.57,134.71,0,0-53.36,29.82-38.45,65.91,0,0,14.39,34.27-13.6,74.55,0,0-4.19,9.41,1.31,12.55,0,0,21.18,14.39,16.74,46.3,0,0-34.53.52-51.53,8.37,0,0-18,7.85-25.64,27.2l-58.59,23.28s-19.88,15.44-35.31,21.71c0,0-30.86,21.19-69.84,13.61,0,0-9.41-.27-20.4,18.31H173l-23-5-5.23-205.34,2.61-98.34s30.94-10.73,38.88-26.42C186.26,321.91,202.05,226.17,179.56,195.31Z"/><path class="cls-6" d="M179.56,195.31s-44.39,15.4-65.44,60L50.68,330,47,334.77,36.37,351.05,25.14,368.74,16.44,380l-2.25,6.17V396l-3.93,9.83L5.49,431.05v17.4l2,26.52,5.33,39.45L17,540.8,20.09,588l-.56,36,.56,4.41L73.7,624l1.4-6-3.93-17.66-1.12-31.44,2.53-44.63,3.65-35.37L77.35,475,77.91,456V442.56l-.28-14.32V417.86l.56-6,16.28-14.47L104.58,389l4.49-2.81,3.09-3.09L115,378l2-3.65,2-3.65,3.37-1.68,2.81-.56L129,363.4l.84-2.8,2.24-3.37,14-11.79,1.26,2.89,6.36-2.51,10.31-4.93,10.25-6.31,6.55-5.49,3.78-4.47,2.09-5.65,1.4-10.35,1.69-15.73L191.22,273V250.57l.07-8.69-.75-9.85-1.2-9.11-3.08-13.43-2.89-7.6Z"/><path class="cls-6" d="M480.36,210.48l31.75,32.9,15.09,9.52,8.2,5.25L547.87,268l9.18,9.84,5.25,7.88,4.6,5.9,3.6,3.61,6.24,6.89,16.73,20.34,12.14,16.41,5.58,5.25,10.5,11.48L644,381.18,654.82,391l4.92,3.94,4.92,3.94,3.94,4.26,2.95,2.95,6.57,4.08,5.57,6.75,6.56,5.25a31.53,31.53,0,0,1,2.3,3.94c.33,1,2.3,6.56,2.3,6.56l6.56,15.09,13.12,25.92,9.85,23.95L729,511.43l5.58,16.4,12.79,26.58,9.52,13.12,4.26,6.89-5.25-2.95-6.23-3.28-5.58-1.64h-4.92l-4.59-.33-5.25.66-4.27.65s-2.29,1-3.28,1.31-5.25,1.64-5.25,1.64l-4.59,3.94-1.64,4.92-5.58-14.43-5.58-12.14-5.57-9.19L687,535.05l-8.53-8.86L667,513.07l-7.22-8.53-6.56-7.22-4.92-4.59-3.61-5.58-6.56-9.51-5.25-12.47-2-5.58-2.3-4.92-3.93-5.58-3.9-4.26-7.26-7.22-7.87-7.87-18.05-16.08-5.24-3.47-8.86-4.4-5.91-5.25-4.92-3.61-4.92-2-5.58-3.56-1.64-3.61-6.23-2.3-8.53-2-7.55-6.57-4.26-6.23-2.63-3.28-9.84-5.25L501,352.64l-8.86-3.94-10.16-3.51,6.07-8.06,4.06-10,2-8.73,1-8,.39-6.93.07-17.73L494,274.53l-1.11-8.47-1.59-9.85L489.5,247l-1.81-8.5-1.4-6-1.53-6.18-1.84-6.93Z"/><polygon class="cls-6" points="392.21 219.63 423.08 217.54 420.71 204.73 419.43 198.89 418.29 194.27 417.1 190.07 416.14 187.1 414.97 184.12 411.83 179.61 406.36 173.47 403.44 169.98 401.26 167.06 397.81 163.4 395.87 159.88 393.74 156.78 390.83 154.47 389.1 153.63 389.23 161.44 389.77 166.34 390.43 170.13 392.43 174.97 393.6 179.47 394.49 186.63 394.98 193.84 395.43 204.13 394.43 212.97 392.21 219.63"/><polygon class="cls-6" points="286.28 223.56 264.04 224.87 262.99 219.63 262.05 213.75 261.62 210.22 261.2 204.65 261.2 198.87 261.2 194.04 262.47 190.24 263.8 186.63 265.63 183.66 268.75 181.18 272.17 189.35 274.64 197.49 274.64 202.15 277.1 207.55 278.43 210.48 280.98 214.29 283.41 218.32 286.28 223.56"/><path class="cls-3" d="M626.65,1198.67s-2.57,7.71,0,10.28,2.57,7.7,2.57,7.7l12.85,7.71,2.56-5.14s10.28,0,10.28,5.14v5.14l7.71,2.57,2.56-2.57h2.57l2.57-2.57s30.83,10.27,36,15.41l5.13,7.71h7.71l2.57-2.57,5.14,2.57v7.7h7.7l2.57-2.57h7.71l2.57,5.14h7.7l2.57-2.57s12.85,2.57,12.85,0v5.14h7.7l7.71-5.14s18,0,18-7.7l-38.53-7.71-141.29-41.1Z"/><path class="cls-4" d="M809,1250.05s-59.08,2.57-74.5-2.57a216.34,216.34,0,0,1-25.69-10.28s-23.11-10.27-46.23-18c-15.42-5.14-28.26-10.27-33.4-12.84-2.57-2.57-5.14-5.14-5.14-7.71,0-15.41,5.14-33.39,20.55-51.37,0,0,2.57-2.57,5.14,0h0v2.56c0,2.57,2.57,10.28,0,12.85,0,7.7,18,7.7,20.55,7.7s18-7.7,30.83-5.13l5.14-10.28s2.56-5.14,5.13-5.14,5.14,7.71,5.14,7.71,2.57,7.71,5.14,7.71c2.57,2.57,0,7.7-2.57,7.7l10.28,10.28c5.13,5.14,5.13,7.7,5.13,7.7s12.85,5.14,15.42,12.85c5.13,7.71,33.39,20.55,48.8,23.12C816.74,1232.07,809,1250.05,809,1250.05Z"/><path class="cls-4" d="M395,1004.44l6.88-5.49s3.77-1.55,4.88-2,8.88-1.56,8.88-1.56,10.2-.22,10.87,0,6.65,1.11,7.32,1.11,7.1,1.11,7.1,1.11l1.88.48-5.66,14.61-13.31,2-13.09-1.1L399,1012.49Z"/><path class="cls-4" d="M389,931.87s5.81,1.34,6.58,1.34,4.44-.67,4.44-.67,3.53-1,4.14-1.32,4.6-2.61,4.6-2.61l2.6-2.76,2.15-4-3.83-4.44H401.2l-5.36,2.3Z"/><path class="cls-5" d="M91.43,685.47c0-.5-2.67-9.17-2.67-9.17l-3.83-12.5-1.17-4.16-2.83-4.84s-2.33-3-2.5-4.83-2.5-5.67-2.5-6.17-2-5.83-2-5.83l-.23-14-1.77-5-33.5,1-14.33,2.5-4,5.91s4.79,19.09-18.46,51.14L.06,682.66v13.2s.12,13.44,0,13.94,0,5.34,0,5.34l1.54,2,3.89,2.45a5.86,5.86,0,0,1,3.25,0A37.84,37.84,0,0,0,13.89,721h3.73l4.86,1.56H42s9.16.7,10,0,10.59,0,10.59,0L68,724l5.57-.32a10.55,10.55,0,0,1,1.5-1.84c.5-.33,2.5-4.66,2.5-4.66l4.83-10.5,2.5-4.17,2.67-5,4.5-7S91.43,686,91.43,685.47Z"/><path class="cls-5" d="M91.89,690.64S95.64,701.2,96.51,722l-20.34,6-7.07,1.2-4.56-.55-1.63-1-1.42-2.71L61,722.84a11.2,11.2,0,0,1,0-2.18c.14-.32.68-1.95.68-1.95l1-2.4,2-2.61,3-2.61Z"/><circle class="cls-9" cx="121.99" cy="1151.08" r="88.16"/></g></g></svg>