<?xml version="1.0" encoding="UTF-8"?>
<svg version="1.1" viewBox="0 0 891 111" xmlns="http://www.w3.org/2000/svg">
<title>Untitled</title>
<desc>Created with Sketch.</desc>
<g fill="none" fill-rule="evenodd">
<g transform="translate(-1)" fill="#fff" fill-rule="nonzero">
<g transform="translate(446.5 56) scale(-1 1) rotate(180) translate(-446.5 -56)">
<g transform="translate(.28975 3.5682)">
<polygon points="67.5 106.25 67.5 64.021 24.205 64.021 0.73125 42.379 67.5 42.379 67.5 0.1525 90.975 0.1525 90.975 106.25"/>
</g>
<polygon points="24.495 67.588 1.0212 67.588 1.0212 109.82 24.495 109.82"/>
<g transform="translate(1.021 3.4468)">
<polygon points="0 42.5 23.474 39.871 23.474 0.27375 0 0.27375"/>
</g>
<g transform="translate(314.32 3.5859)">
<polygon points="0 106.25 23.474 106.25 23.474 21.474 23.474 0.13375 0 21.474"/>
</g>
<g transform="translate(336.68 2.5599)">
<polygon points="3.75 22.5 54.318 22.5 54.318 1.16 1.1125 1.16"/>
</g>
<g transform="translate(638.17 3.5859)">
<polygon points="26.25 106.25 0.17375 36.002 8.9162 0.13375 51.511 106.25"/>
</g>
<g transform="translate(583.27 3.534)">
<polygon points="53.75 32.5 26.359 106.3 0.48 106.3 43.081 0.18375 63.811 0.18375"/>
</g>
<g transform="translate(94)">
<g transform="translate(0)">
<g transform="translate(.547 .71)">
<path d="m158.75 111.25c-21.015 0-38.33-10.142-48.131-25.35 3.5562-8.76 5.2162-18.411 4.55-28.455l-0.02-0.3575c-0.335-5.115-1.26-10.041-2.6812-14.732 1.1038 4.39 1.6875 8.985 1.6875 13.712v0.30375c0 9.3312-2.2612 18.099-6.3162 25.785-9.1262 17.31-27.438 29.094-50.238 29.094-32.928 0-56.859-24.85-56.859-55.182v-0.3075c0-30.334 23.626-54.878 56.549-54.878 20.962 0 38.244 10.089 48.06 25.235-2.4238 6.1238-3.9575 12.728-4.415 19.679l-0.0225 0.35625c-0.49 7.4325 0.30375 14.646 2.1738 21.451-0.78125-3.725-1.195-7.5825-1.195-11.536v-0.3075c0-9.1262 2.1412-17.726 6.0325-25.294 0 0.00375 0.0025 0.00625 0.0025 0.0075 9.0338-17.585 27.495-29.591 50.519-29.591 32.925 0 56.858 24.848 56.858 55.185v0.30375c0 30.334-23.628 54.879-56.554 54.879zm-69.135-55.49c0-18.292-13.112-33.229-32.014-33.229-18.904 0-32.318 15.244-32.318 33.536v0.30375c0 18.292 13.11 33.23 32.008 33.23 18.906 0 32.324-15.24 32.324-33.534v-0.3075zm101.15 0c0-18.292-13.111-33.229-32.011-33.229-18.906 0-32.321 15.244-32.321 33.536v0.30375c0 18.292 13.114 33.23 32.018 33.23 18.901 0 32.315-15.24 32.315-33.534v-0.3075z"/>
</g>
<g transform="translate(286.84 .71)">
<path d="m158.75 111.25c-21.012 0-38.329-10.142-48.13-25.35 3.5562-8.76 5.2162-18.411 4.5512-28.455l-0.02-0.3575c-0.33625-5.115-1.26-10.041-2.6825-14.732 1.1038 4.39 1.6875 8.985 1.6875 13.712v0.30375c0 9.3312-2.2612 18.099-6.3175 25.785-9.1238 17.31-27.436 29.094-50.238 29.094-32.926 0-56.858-24.85-56.858-55.182v-0.3075c0-30.334 23.626-54.878 56.548-54.878 20.965 0 38.245 10.089 48.06 25.235-2.4225 6.1238-3.9562 12.728-4.415 19.679l-0.02375 0.35625c-0.4875 7.4325 0.30625 14.646 2.1762 21.451-0.78125-3.725-1.1962-7.5825-1.1962-11.536v-0.3075c0-9.1262 2.1425-17.726 6.0338-25.294 0 0.00375 0.0025 0.00625 0.00375 0.0075 9.0325-17.585 27.494-29.591 50.518-29.591 32.924 0 56.858 24.848 56.858 55.185v0.30375c0 30.334-23.626 54.879-56.555 54.879zm-69.135-55.49c0-18.292-13.112-33.229-32.014-33.229-18.904 0-32.318 15.244-32.318 33.536v0.30375c0 18.292 13.112 33.23 32.008 33.23 18.906 0 32.324-15.24 32.324-33.534v-0.3075zm101.15 0c0-18.292-13.114-33.229-32.014-33.229-18.902 0-32.32 15.244-32.32 33.536v0.30375c0 18.292 13.116 33.23 32.018 33.23s32.316-15.24 32.316-33.534v-0.3075z"/>
</g>
<g transform="translate(582.23 .71)">
<path d="m158.75 111.25c-21.015 0-38.328-10.142-48.129-25.35 3.5562-8.76 5.2138-18.411 4.55-28.455l-0.0225-0.3575c-0.335-5.115-1.2575-10.041-2.6788-14.732 1.1038 4.39 1.685 8.985 1.685 13.712v0.30375c0 9.3312-2.2588 18.099-6.315 25.785-9.125 17.31-27.436 29.094-50.239 29.094-32.928 0-56.858-24.85-56.858-55.182v-0.3075c0-30.334 23.628-54.878 56.548-54.878 20.964 0 38.244 10.089 48.06 25.235-2.4212 6.1238-3.955 12.728-4.415 19.679l-0.0225 0.35625c-0.48875 7.4325 0.30625 14.646 2.1762 21.451-0.7825-3.725-1.195-7.5825-1.195-11.536v-0.3075c0-9.1262 2.1412-17.726 6.0325-25.294 0 0.00375 0.0025 0.00625 0.00375 0.0075 9.0325-17.585 27.494-29.591 50.518-29.591 32.925 0 56.858 24.848 56.858 55.185v0.30375c0 30.334-23.628 54.879-56.556 54.879zm-69.134-55.49c0-18.292-13.114-33.229-32.015-33.229-18.902 0-32.318 15.244-32.318 33.536v0.30375c0 18.292 13.112 33.23 32.008 33.23 18.908 0 32.325-15.24 32.325-33.534v-0.3075zm101.15 0c0-18.292-13.112-33.229-32.014-33.229-18.904 0-32.321 15.244-32.321 33.536v0.30375c0 18.292 13.114 33.23 32.02 33.23 18.9 0 32.315-15.24 32.315-33.534v-0.3075z"/>
</g>
</g>
</g>
</g>
</g>
</g>
</svg>
