<svg xmlns="http://www.w3.org/2000/svg" xmlns:xlink="http://www.w3.org/1999/xlink" viewBox="0 0 143 143"><defs><style>.cls-1{fill:none;}.cls-2{fill:url(#linear-gradient);}.cls-3{clip-path:url(#clip-path);}.cls-4{fill:#fff;}</style><linearGradient id="linear-gradient" y1="71.5" x2="143" y2="71.5" gradientUnits="userSpaceOnUse"><stop offset="0" stop-color="#74b054"/><stop offset="1" stop-color="#479d45"/></linearGradient><clipPath id="clip-path"><rect class="cls-1" x="8.16" y="32.5" width="126.51" height="78"/></clipPath></defs><title>03</title><g id="Layer_2" data-name="Layer 2"><g id="IKONICE"><rect class="cls-2" width="143" height="143" rx="20.15" ry="20.15"/><g class="cls-3"><path class="cls-4" d="M113.11,32.5A2.52,2.52,0,0,0,110.65,35v3.1a2.52,2.52,0,0,0,2.46,2.46h1.63L84.59,70.87,84,68.56c-.64-2.15-2.31-4.76-6.88-4.26l-17.71.83L47.36,54a8,8,0,0,0-7.87-2.32L8.16,60v5.58h.17l12.79-3.45,3.45,12.3L8.16,78.89V105a9.09,9.09,0,0,0,17.23-5.41L57.05,91a9.09,9.09,0,0,0,11,5.74,9.19,9.19,0,0,0,6.57-10.5l9-2.46c2.15-.64,3.78-2.14,3.1-4.75L85.91,76,121.5,40.41h5.08V61.74h8V32.5ZM17.67,106.12a4.85,4.85,0,1,1-2.61-9.34,1.77,1.77,0,0,1,1.16-.33,4.66,4.66,0,0,1,4.94,3.62,5.1,5.1,0,0,1-3.49,6.05ZM30,72.81,26.72,60.35l11.8-3.1h1.79a7,7,0,0,1,4.09,2l7.88,7.72ZM66.86,92.67a5,5,0,0,1-6-3.45,5.14,5.14,0,0,1,3.62-6.06,1,1,0,0,0,1,0,4.69,4.69,0,0,1,4.94,3.62,4.83,4.83,0,0,1-3.5,5.89Zm38.54-23V96.1c0,2.46.64,4.42,4.59,4.42h5.57a10.59,10.59,0,0,0,10.5,9.84,10,10,0,0,0,8.51-4.59V65.46c.17-.17-24.6-.17-24.6-.17-4.08,0-4.57,1.8-4.57,4.42ZM126.06,94a5.54,5.54,0,0,1,5.58,5.58,5.68,5.68,0,0,1-5.58,5.74,5.81,5.81,0,0,1-5.74-5.74A5.92,5.92,0,0,1,126.06,94Z"/></g></g></g></svg>