<svg xmlns="http://www.w3.org/2000/svg" xmlns:xlink="http://www.w3.org/1999/xlink" viewBox="0 0 143 143"><defs><style>.cls-1{fill:url(#linear-gradient);}.cls-2{fill:#fff;}</style><linearGradient id="linear-gradient" y1="71.5" x2="143" y2="71.5" gradientUnits="userSpaceOnUse"><stop offset="0" stop-color="#74b054"/><stop offset="1" stop-color="#479d45"/></linearGradient></defs><title>04</title><g id="Layer_2" data-name="Layer 2"><g id="IKONICE"><rect class="cls-1" width="143" height="143" rx="20.15" ry="20.15"/><path class="cls-2" d="M71.11,125.82a9.45,9.45,0,0,1-7.61-3.44c-1-1-6.48-6.81-4.48-17.88,1.86-10.25-4.27-19.89-11.16-28.77-5.84-7.52-2.57-16.61,9.71-27,2.35-2,2.23-7.83-.32-16.45a108.59,108.59,0,0,0-5.13-13.5,1.78,1.78,0,0,1,.11-1.69,1.74,1.74,0,0,1,1.48-.81H80.25a1.75,1.75,0,0,1,1.67,1.2,190,190,0,0,1,7.17,35.37c2,18.52,1.88,45.1-9.86,66.61C78.84,120.34,76.32,125.82,71.11,125.82ZM56.41,19.75A109.75,109.75,0,0,1,60.6,31.22c3.12,10.48,2.87,17.08-.77,20.16-10.72,9.09-13.73,16.36-9.2,22.2C58,83.11,64.57,93.52,62.47,105.13c-1.81,10,3.44,14.71,3.49,14.75a1.61,1.61,0,0,1,.32.37,5.91,5.91,0,0,0,4.83,2.06c3.16,0,4.88-4.23,4.9-4.28s.06-.13.09-.2c20-36.58,5.45-89.46,2.86-98.08Z"/><path class="cls-2" d="M70.32,67.8a1.76,1.76,0,0,1-.55-3.42l15-5L58.9,35.07a1.76,1.76,0,0,1,.93-3l22.8-3.51A1.76,1.76,0,0,1,83.17,32L63.93,35,89.36,58.82a1.75,1.75,0,0,1-.64,2.94L70.88,67.71A1.82,1.82,0,0,1,70.32,67.8Z"/><path class="cls-2" d="M71.11,125.82a9.45,9.45,0,0,1-7.61-3.44c-1-1-6.48-6.81-4.48-17.88,1.86-10.25-4.27-19.89-11.16-28.77-5.84-7.52-2.57-16.61,9.71-27l.14-.15A1.75,1.75,0,0,1,60,48.41C66.32,53.27,70.35,59,72,65.55c.93,3.7,1.55,7.56,2.14,11.3C75.75,87,77.27,96.53,84.79,103a1.76,1.76,0,0,1,.53,1.85,80.36,80.36,0,0,1-6.1,14.59C78.84,120.34,76.32,125.82,71.11,125.82ZM59,52.1c-10,8.76-12.78,15.79-8.37,21.48C58,83.11,64.57,93.52,62.47,105.13c-1.81,10,3.44,14.71,3.49,14.75a1.61,1.61,0,0,1,.32.37,5.91,5.91,0,0,0,4.83,2.06c3.16,0,4.88-4.23,4.9-4.28s.06-.13.09-.2a76.43,76.43,0,0,0,5.53-13c-7.75-7.27-9.38-17.53-11-27.47-.58-3.66-1.18-7.44-2.07-11h0C67.25,61.07,64,56.26,59,52.1Z"/><path class="cls-2" d="M123.25,126.75H54.84a1.75,1.75,0,1,1,0-3.5h68.41a1.75,1.75,0,0,1,0,3.5Z"/><path class="cls-2" d="M44.31,126.75H19.75a1.75,1.75,0,0,1,0-3.5H44.31a1.75,1.75,0,1,1,0,3.5Z"/></g></g></svg>